<?xml version="1.0" encoding="utf-8"?>
<svg width="230px" height="100px" viewBox="0 0 230 100" version="1.1" xmlns:xlink="http://www.w3.org/1999/xlink" xmlns="http://www.w3.org/2000/svg">
  <desc>Created with Lunacy</desc>
  <path d="M97.1967 66.5486L97.0796 66.5486L94.512 64.0061C91.9444 65.7123 89.0869 66.5821 86.0091 66.5933L85.906 66.5933C82.2427 66.5933 79.4354 65.7959 77.5647 64.218C75.6578 62.6122 74.6877 60.1812 74.6737 56.9863C74.6486 50.8475 79.1148 47.714 87.9467 47.6777C89.8396 47.6721 91.7437 47.8283 93.6339 48.1489L93.6255 46.3647C93.6171 43.9448 91.8775 42.7683 88.3035 42.7683L88.2366 42.7683C85.0306 42.7795 81.4203 43.2701 77.5006 44.218L77.0323 44.3323L77.0072 37.5941L77.2971 37.5244C81.2726 36.5626 84.9469 36.0663 88.2115 36.0524L88.3537 36.0524C93.0178 36.0524 96.483 36.978 98.744 38.8096C93.6645 16.5849 73.7705 0 50.0041 0C26.681 0 7.0908 15.966 1.5625 37.5634C5.08912 36.78 8.36484 36.3702 11.3088 36.3591L11.4482 36.3591C20.4139 36.3591 24.972 39.7686 24.9999 46.4957L25.0808 66.8358L20.1742 66.8581L17.6093 64.3128C15.0445 66.0162 12.1814 66.8888 9.10641 66.8999L9.00326 66.8999C6.38268 66.8999 4.22489 66.4901 2.51594 65.69C9.09805 85.6175 27.8686 100 50.0041 100C71.8162 100 90.3637 86.0301 97.1967 66.5486ZM72.3685 66.649L72.3406 59.9331L68.8977 59.947L68.8754 59.947C66.6953 59.947 65.6749 58.7455 65.6637 56.1723L65.6108 42.8603L72.2737 42.8324L72.2458 36.1165L64.6824 36.1472L63.5283 31.3326L57.2891 31.3549L57.395 58.3022C57.4089 61.0649 58.0808 63.1753 59.3967 64.5721C60.707 65.9688 62.6724 66.6769 65.24 66.6769L65.2958 66.6769L72.3685 66.649ZM53.9097 57.2679C53.8874 51.1179 50.436 47.9983 43.6588 47.9983L43.5696 47.9983L38.7494 48.0179C37.6538 48.0206 36.8537 47.806 36.3351 47.3711C35.8305 46.9501 35.5796 46.3173 35.5768 45.4335C35.574 44.5386 36.0034 43.8835 36.8843 43.4263C37.8406 42.9328 39.3181 42.6791 41.2808 42.6735C45.0917 42.6708 48.6685 43.3008 51.922 44.586L52.4433 44.7951L52.4154 37.7223L52.1561 37.6359C48.8219 36.5041 45.2228 35.9437 41.4536 35.9548C36.9791 35.9744 33.5668 36.7968 31.3114 38.4054C29.0142 40.0418 27.8573 42.5119 27.8712 45.7485C27.8824 48.8152 28.6936 51.157 30.2799 52.7098C31.8523 54.2431 34.208 55.0209 37.2858 55.0209L37.361 55.0209L42.7472 54.9986C43.7173 55.007 44.47 55.2105 44.9384 55.6342C45.4068 56.0608 45.6354 56.6964 45.6382 57.5857C45.6409 58.2632 45.6493 60.3206 41.1804 60.3401L41.0131 60.3401C36.8202 60.3401 33.0705 59.6989 29.859 58.4277L29.3376 58.2214L29.3655 65.2941L29.622 65.3806C32.9116 66.4929 36.6501 67.056 40.7427 67.056L40.9239 67.056C45.2033 67.0421 48.4678 66.2141 50.6256 64.6055C52.8196 62.9691 53.9236 60.499 53.9097 57.2679ZM178.766 39.487C178.343 39.0633 177.467 38.7399 176.689 38.7399C175.477 38.7399 174.702 39.317 174.702 40.2788C174.702 41.38 176.012 41.7201 177.314 42.1968C178.596 42.6763 179.882 43.3008 179.882 44.9512C179.882 47.1675 177.947 48.0039 176.536 48.0039C175.137 48.0039 174.077 47.6052 173.063 46.6044L173.851 45.8991C174.827 46.886 175.574 47.0421 176.55 47.0421C177.679 47.0421 178.766 46.4483 178.766 45.1213C178.766 43.9364 177.637 43.4959 176.436 43.0443C175.081 42.5369 173.626 42.0295 173.626 40.4182C173.626 38.6116 174.967 37.7781 176.519 37.7781C177.651 37.7781 178.624 38.0875 179.458 38.7259L178.766 39.487ZM115.814 37.9482L114.868 37.9482L111.055 47.8311L112.142 47.8311L112.989 45.5868L117.338 45.5868L118.086 47.8311L119.257 47.8311L115.814 37.9482ZM146.264 39.4006L145.305 39.4006L145.305 38.0736L146.264 38.0736L146.264 39.4006ZM197.23 39.4006L196.268 39.4006L196.268 38.0736L197.23 38.0736L197.23 39.4006ZM210.135 40.9423L210.135 41.8177L208.13 41.8177L208.13 45.6175C208.13 46.8581 208.554 47.0839 209.189 47.0839C209.44 47.0839 209.725 47.0142 210.034 46.8999L210.274 47.6638C209.964 47.831 209.583 47.9593 209.176 47.9593C207.832 47.9593 207.168 47.1564 207.168 45.729L207.168 41.8177L206.195 41.8177L206.195 40.9423L207.168 40.9423L207.168 39.2194L208.13 39.2194L208.13 40.9423L210.135 40.9423ZM113.344 44.6278L117.032 44.6278L115.306 39.4173L115.292 39.4173L113.344 44.6278ZM228.515 39.6933C228.858 39.6933 229.212 39.7993 229.457 39.8829L229.273 40.4823C229.092 40.407 228.88 40.354 228.624 40.354C228.409 40.354 228.152 40.3875 227.96 40.5353C227.673 40.7611 227.628 41.1876 227.628 41.7647L227.628 42.6178L229.092 42.6178L229.092 43.2813L227.628 43.2813L227.628 47.831L226.904 47.831L226.904 43.2813L226.293 43.2813L226.293 42.6178L226.904 42.6178L226.904 41.7006C226.904 41.1653 226.987 40.6635 227.235 40.3011C227.481 39.9387 227.876 39.6933 228.515 39.6933ZM120.5 47.831L120.5 40.9423L121.459 40.9423L121.459 42.155C122.011 41.2378 122.859 40.7722 123.762 40.7722C124.919 40.7722 125.596 41.2935 125.934 42.1968C126.812 41.0845 127.503 40.7722 128.362 40.7722C130.202 40.7722 130.949 41.9459 130.949 44.1037L130.949 47.831L129.987 47.831L129.987 44.2598C129.987 42.9467 129.692 41.6476 128.323 41.6476C127.503 41.6476 126.669 42.1968 126.148 43.0889C126.19 43.3984 126.204 43.7245 126.204 44.0758L126.204 47.831L125.242 47.831L125.242 44.2598C125.242 42.9607 125.002 41.6476 123.62 41.6476C122.744 41.6476 121.911 42.3808 121.459 43.2562L121.459 47.831L120.5 47.831ZM133.489 44.6278C133.573 45.9548 134.448 47.1843 135.945 47.1843C136.862 47.1843 137.64 46.9278 138.134 45.9966L138.811 46.4343C138.262 47.4658 137.06 48.0039 136.015 48.0039C133.757 48.0039 132.527 46.3646 132.527 44.3462C132.527 42.3111 134.024 40.7722 135.903 40.7722C137.682 40.7722 138.967 42.2832 138.967 43.9922C138.967 44.218 138.939 44.4996 138.925 44.6278L133.489 44.6278ZM141.607 40.9423L140.648 40.9423L140.648 47.831L141.607 47.831L141.607 43.2283C142.104 42.3529 142.625 41.7619 143.417 41.7619C143.684 41.7619 143.854 41.7898 144.066 41.8874L144.192 40.828C143.994 40.7862 143.799 40.7722 143.612 40.7722C142.653 40.7722 141.989 41.4775 141.607 42.2414L141.607 40.9423ZM151.517 47.1257C151.954 47.1257 152.634 46.9278 152.972 46.6741L153.465 47.4101C152.902 47.7892 152.308 48.0011 151.589 48.0011C149.44 48.0011 147.945 46.4483 147.945 44.3881C147.945 42.3697 149.456 40.7722 151.561 40.7722C152.194 40.7722 152.788 40.9562 153.281 41.2378L152.927 42.0435C152.548 41.7898 151.954 41.6476 151.489 41.6476C149.922 41.6476 148.932 42.9049 148.932 44.3881C148.932 45.9409 149.922 47.1257 151.517 47.1257ZM159 47.0281C158.337 47.7474 157.534 48.0039 156.742 48.0039C155.471 48.0039 154.355 47.254 154.355 45.9548C154.355 44.2598 155.939 43.5963 157.405 43.5963C157.871 43.5963 158.353 43.6521 158.972 43.8082L158.972 43.4262C158.972 42.2832 158.409 41.6476 157.207 41.6476C156.405 41.6476 155.498 41.9431 154.963 42.2414L154.637 41.38C155.273 41.0845 156.346 40.7722 157.249 40.7722C159.298 40.7722 159.934 41.8455 159.934 43.6242L159.934 47.831L159.072 47.831L159 47.0281ZM162.148 40.9423L162.148 47.831L163.11 47.831L163.11 43.2562C163.562 42.3808 164.393 41.6476 165.424 41.6476C166.963 41.6476 167.203 42.9607 167.203 44.2598L167.203 47.831L168.165 47.831L168.165 44.1037C168.165 42.0295 167.529 40.7722 165.566 40.7722C164.507 40.7722 163.659 41.2378 163.11 42.155L163.11 40.9423L162.148 40.9423ZM188.307 44.3881C188.307 46.3925 186.882 48.0039 184.833 48.0039C182.784 48.0039 181.359 46.3925 181.359 44.3881C181.359 42.3808 182.784 40.7722 184.833 40.7722C186.882 40.7722 188.307 42.3808 188.307 44.3881ZM194.381 46.6741C194.041 46.9278 193.363 47.1257 192.926 47.1257C191.328 47.1257 190.341 45.9409 190.341 44.3881C190.341 42.9049 191.328 41.6476 192.895 41.6476C193.363 41.6476 193.954 41.7898 194.336 42.0435L194.69 41.2378C194.197 40.9562 193.603 40.7722 192.967 40.7722C190.863 40.7722 189.352 42.3697 189.352 44.3881C189.352 46.4483 190.851 48.0011 192.995 48.0011C193.715 48.0011 194.308 47.7892 194.874 47.4101L194.381 46.6741ZM202.325 47.1843C200.831 47.1843 199.956 45.9548 199.869 44.6278L205.305 44.6278C205.319 44.4996 205.35 44.218 205.35 43.9922C205.35 42.2832 204.062 40.7722 202.286 40.7722C200.407 40.7722 198.91 42.3111 198.91 44.3462C198.91 46.3646 200.14 48.0039 202.398 48.0039C203.443 48.0039 204.642 47.4658 205.194 46.4343L204.517 45.9966C204.023 46.9278 203.245 47.1843 202.325 47.1843ZM145.305 47.8338L146.264 47.8338L146.264 40.9423L145.305 40.9423L145.305 47.8338ZM196.268 47.8338L197.23 47.8338L197.23 40.9423L196.268 40.9423L196.268 47.8338ZM211.406 40.9423L213.862 48.1712L212.942 50.6551L213.762 50.9813L217.506 40.9423L216.472 40.9423L214.398 46.7745L212.449 40.9423L211.406 40.9423ZM133.52 43.8082C133.715 42.523 134.576 41.5918 135.906 41.5918C137.077 41.5918 137.966 42.6512 138.025 43.8082L133.52 43.8082ZM202.288 41.5918C200.958 41.5918 200.096 42.523 199.898 43.8082L204.404 43.8082C204.348 42.6512 203.459 41.5918 202.288 41.5918ZM182.352 44.3881C182.352 42.9468 183.297 41.6476 184.836 41.6476C186.377 41.6476 187.32 42.9468 187.32 44.3881C187.32 45.8266 186.377 47.1257 184.836 47.1257C183.297 47.1257 182.352 45.8266 182.352 44.3881ZM222.703 47.9593C224.25 47.9593 225.332 46.7438 225.332 45.2244C225.332 43.7078 224.25 42.4895 222.703 42.4895C221.153 42.4895 220.074 43.7078 220.074 45.2244C220.074 46.7438 221.153 47.9593 222.703 47.9593ZM11.0399 47.9872C5.84611 48.0067 2.16616 49.1023 0.0167271 51.2462C0.00557569 50.8336 0 50.4154 0 50C0 48.1767 0.100362 46.3758 0.292724 44.5999L0.596599 44.5247C4.51631 43.5768 8.12657 43.0889 11.3326 43.075L11.3995 43.075C14.9735 43.075 16.7131 44.2515 16.7243 46.6713L16.7299 48.4555C14.8397 48.1349 12.9244 47.9788 11.0399 47.9872ZM222.706 43.153C221.541 43.153 220.824 44.1372 220.824 45.2244C220.824 46.3145 221.541 47.2986 222.706 47.2986C223.871 47.2986 224.588 46.3145 224.588 45.2244C224.588 44.1372 223.871 43.153 222.706 43.153ZM155.313 45.8405C155.313 44.7672 156.414 44.3881 157.362 44.3881C157.855 44.3881 158.379 44.4438 158.97 44.5832L158.97 46.1806C158.323 46.8023 157.56 47.2094 156.768 47.2094C155.962 47.2094 155.313 46.6741 155.313 45.8405ZM156.295 63.9532L153.892 63.9532L153.892 51.2462L156.295 51.2462L156.295 63.9532ZM180.353 63.9504L180.152 62.8492C179.525 63.8333 178.321 64.1539 177.406 64.1539C175.053 64.1539 173.258 62.0546 173.258 59.4619C173.258 56.9529 175.017 54.8369 177.44 54.8369C178.287 54.8369 179.355 55.1436 180.032 55.9046L180.032 51.2462L182.438 51.2462L182.438 63.9504L180.353 63.9504ZM195.976 53.8026L193.57 53.8026L193.57 51.7535L195.976 51.7535L195.976 53.8026ZM119.026 54.1427L119.026 52.0937L110.98 52.0937L110.98 54.1427L113.791 54.1427L113.791 63.9504L116.213 63.9504L116.213 54.1427L119.026 54.1427ZM170.036 63.9504L169.272 61.7508L165.054 61.7508L164.259 63.9504L161.566 63.9504L166.409 52.0937L168.374 52.0937L172.832 63.9504L170.036 63.9504ZM87.9663 53.5433C84.579 53.5573 82.937 54.6445 82.9453 56.8692C82.9481 58.0875 83.2827 58.9685 83.9601 59.5567C84.6376 60.145 85.6858 60.4405 87.0741 60.4405L87.116 60.4405C89.455 60.4321 91.6601 59.7017 93.673 58.2743L93.6563 54.0201C91.925 53.705 90.0599 53.5433 88.1084 53.5433L87.9663 53.5433ZM7.06055 59.8634C6.3831 59.2724 6.04856 58.397 6.04298 57.1759C6.03741 54.954 7.67945 53.8639 11.0667 53.85L11.2089 53.85C13.1576 53.85 15.0226 54.0089 16.7567 54.3295L16.7734 58.581C14.7606 60.0111 12.5554 60.7388 10.2164 60.7471L10.1746 60.7471C8.78343 60.7471 7.73799 60.4488 7.06055 59.8634ZM119.484 55.0404L121.567 55.0404L121.754 56.2253C122.264 55.3973 122.955 54.8369 123.839 54.8369C124.279 54.8369 124.667 54.9206 124.99 55.0404L124.413 57.1397C124.16 57.0059 123.872 56.9389 123.566 56.9389C122.872 56.9389 122.247 57.3292 121.89 57.9203L121.89 63.9504L119.484 63.9504L119.484 55.0404ZM131.052 63.9532L130.865 63.1893C130.291 63.9002 129.393 64.1539 128.443 64.1539C126.784 64.1539 125.242 63.1558 125.242 61.3242C125.242 59.1386 127.275 58.4472 129.12 58.4472C129.614 58.4472 130.171 58.5141 130.731 58.6312L130.731 58.4974C130.731 57.3794 130.274 56.702 128.97 56.702C127.952 56.702 127.054 57.0728 126.276 57.4798L125.632 55.7513C126.767 55.1938 128.139 54.8369 129.46 54.8369C131.933 54.8369 133.135 56.2754 133.135 58.5977L133.135 63.9532L131.052 63.9532ZM148.167 62.2247C146.896 62.2247 146.102 61.3075 145.932 60.0892L152.199 60.0892C152.268 59.7324 152.319 59.3114 152.319 58.9546C152.319 56.5821 150.487 54.8369 148.014 54.8369C145.458 54.8369 143.492 56.9027 143.492 59.5958C143.492 62.2749 145.304 64.1539 147.997 64.1539C149.913 64.1539 151.047 63.443 152.062 61.9682L150.487 60.9005C149.913 61.748 149.319 62.2247 148.167 62.2247ZM201.223 54.8369C202.408 54.8369 203.476 55.2272 204.307 56.0078L202.985 57.4631C202.528 57.056 201.901 56.7187 201.223 56.7187C200.766 56.7187 200.359 56.9724 200.359 57.3962C200.359 57.9537 201.02 58.2437 201.767 58.5475C202.918 59.0215 204.374 59.5986 204.374 61.2908C204.374 63.2562 202.681 64.1539 200.953 64.1539C199.562 64.1539 198.343 63.613 197.359 62.6289L198.734 61.2071C199.411 61.8679 199.969 62.2582 200.833 62.2582C201.326 62.2582 201.97 62.0212 201.97 61.4803C201.97 60.8503 201.156 60.5799 200.275 60.1924C199.208 59.7324 198.037 59.1218 198.037 57.5662C198.037 55.7513 199.598 54.8369 201.223 54.8369ZM214.843 59.4954C214.843 62.1216 212.897 64.1539 210.187 64.1539C207.46 64.1539 205.512 62.1216 205.512 59.4954C205.512 56.8693 207.46 54.8369 210.187 54.8369C212.897 54.8369 214.843 56.8693 214.843 59.4954ZM218.488 55.0404L216.402 55.0404L216.402 63.9504L218.808 63.9504L218.808 57.9203C219.162 57.3292 219.79 56.9389 220.484 56.9389C220.79 56.9389 221.078 57.0059 221.331 57.1397L221.908 55.0404C221.585 54.9206 221.195 54.8369 220.754 54.8369C219.873 54.8369 219.182 55.3973 218.672 56.2253L218.488 55.0404ZM225.653 54.8369C226.838 54.8369 227.906 55.2272 228.734 56.0078L227.412 57.4631C226.958 57.056 226.33 56.7187 225.653 56.7187C225.193 56.7187 224.789 56.9724 224.789 57.3962C224.789 57.9537 225.45 58.2437 226.194 58.5475C227.345 59.0215 228.803 59.5986 228.803 61.2908C228.803 63.2562 227.108 64.1539 225.383 64.1539C223.991 64.1539 222.773 63.613 221.789 62.6289L223.161 61.2071C223.838 61.8679 224.398 62.2582 225.263 62.2582C225.756 62.2582 226.397 62.0212 226.397 61.4803C226.397 60.8503 225.583 60.5799 224.705 60.1924C223.635 59.7324 222.467 59.1218 222.467 57.5662C222.467 55.7513 224.025 54.8369 225.653 54.8369ZM140.44 55.0404L138.628 60.5297L138.592 60.5297L136.796 55.0404L134.137 55.0404L137.493 63.9504L139.456 63.9504L143.116 55.0404L140.44 55.0404ZM189.823 55.0404L188.008 60.5297L187.975 60.5297L186.179 55.0404L183.52 55.0404L186.873 63.9504L188.839 63.9504L192.499 55.0404L189.823 55.0404ZM193.57 63.9504L195.976 63.9504L195.976 55.0404L193.57 55.0404L193.57 63.9504ZM168.595 59.7658L165.766 59.7658L167.207 55.7876L167.224 55.7876L168.595 59.7658ZM149.858 58.4444C149.81 57.3766 149.063 56.7187 148.082 56.7187C146.928 56.7187 146.303 57.4463 146.047 58.4444L149.858 58.4444ZM177.964 56.9027C178.708 56.9027 179.419 57.1592 180.029 57.8701L180.029 60.92C179.505 61.801 178.691 62.0881 177.93 62.0881C176.558 62.0881 175.711 60.8336 175.711 59.5289C175.711 58.2771 176.422 56.9027 177.964 56.9027ZM207.969 59.4954C207.969 58.0401 208.864 56.9027 210.188 56.9027C211.509 56.9027 212.39 58.0401 212.39 59.4954C212.39 60.9534 211.509 62.0881 210.188 62.0881C208.864 62.0881 207.969 60.9534 207.969 59.4954ZM129.517 59.9192C129.888 59.9192 130.278 59.9693 130.735 60.0725L130.735 61.7145C130.228 62.1717 129.651 62.4756 128.956 62.4756C128.243 62.4756 127.602 62.0714 127.602 61.2908C127.602 60.2426 128.636 59.9192 129.517 59.9192Z" id="ASTA-Logo" fill="#00ABBE" fill-rule="evenodd" stroke="none" />
</svg>