<?xml version="1.0" encoding="UTF-8"?>
<!DOCTYPE svg PUBLIC "-//W3C//DTD SVG 1.1//EN" "http://www.w3.org/Graphics/SVG/1.1/DTD/svg11.dtd">
<!-- Creator: CorelDRAW X7 -->
<svg xmlns="http://www.w3.org/2000/svg" xml:space="preserve" width="100px" height="100px" version="1.1" style="shape-rendering:geometricPrecision; text-rendering:geometricPrecision; image-rendering:optimizeQuality; fill-rule:evenodd; clip-rule:evenodd"
viewBox="0 0 100 100"
 xmlns:xlink="http://www.w3.org/1999/xlink">
 <defs>
  <style type="text/css">
   <![CDATA[
    .fil0 {fill:#2073AA}
   ]]>
  </style>
 </defs>
 <g id="Layer_x0020_1">
  <metadata id="CorelCorpID_0Corel-Layer"/>
  <path id="ATOL" class="fil0" d="M1 41c5,-27 30,-45 58,-40 24,4 41,25 41,49 0,3 0,6 -1,9 -5,27 -31,45 -58,40 -27,-4 -45,-30 -40,-58zm95 17c-4,26 -29,43 -54,38 -26,-4 -43,-29 -38,-54 4,-25 29,-43 54,-38 25,4 42,29 38,54zm-27 1c0,0 -13,2 -23,-8 -9,-10 -9,-22 -3,-33l-8 -1 -9 50 40 7 3 -15zm-8 -38l0 0 0 0 0 0zm-9 24c-8,-15 9,-24 9,-24l0 0 14 3 -10 -2 10 2 -6 33c0,0 -11,0 -17,-12zm9 -24l4 1 -4 -1 0 0zm-49 39c0,2 1,4 4,3 2,0 2,-1 2,-4l-1 -3 -11 3c1,0 1,0 1,1 0,0 0,0 0,1l5 -1zm27 4l-2 -6 -3 0 -4 4 2 0 1 -1 3 1 1 1 2 1zm-22 -5l-1 -1 -4 1c0,1 1,1 1,1 0,1 1,1 2,1 1,0 2,-1 2,-2zm23 0l8 1 0 1 -3 0 -1 4 -2 -1 1 -4 -3 0 0 -1zm-4 2l-1 -2 -1 2 2 0zm22 3c0,0 0,-1 -1,-2 -1,0 -2,-1 -3,-1 -2,0 -3,0 -4,0 -1,0 -1,1 -1,2 -1,1 0,1 1,2 0,1 1,1 3,1 1,0 2,0 3,0 1,0 2,-1 2,-2zm-4 -2c-1,0 -2,0 -2,0 -1,0 -1,1 -1,1 -1,1 0,1 0,2 0,0 1,0 2,0 1,0 1,0 2,0 0,0 1,0 1,-1 0,0 0,-1 -1,-1 0,-1 -1,-1 -1,-1zm7 5l5 1 0 0 -7 -1 1 -5 2 1 -1 4zm-51 2c0,1 1,1 1,1 0,1 0,1 0,1l4 -2 1 0c-1,1 -1,1 -1,2l-2 3c0,0 0,1 0,1 1,0 1,1 1,1l1 -1c0,-1 1,-3 2,-4 1,1 2,1 4,0 0,0 1,-1 1,-2 0,-1 -1,-2 -1,-2l-2 -3 -9 5zm10 -2c0,0 0,-1 0,-1l-4 3c1,1 2,1 3,0 0,0 1,0 1,0 1,-1 0,-2 0,-2zm62 14l-9 -6 4 -5c2,-2 5,-2 6,0 3,2 3,5 1,8l-2 3zm-5 -9l-1 1 6 6 1 -1c2,-2 2,-4 -1,-6 -2,-2 -4,-2 -5,0zm-56 11c2,3 6,2 8,0 1,-2 2,-5 -1,-8 -3,-2 -6,-2 -8,1 -2,2 -2,5 1,7zm6 -7c-1,-1 -3,-1 -5,2 -2,1 -2,3 -1,5 2,1 4,0 6,-2 1,-1 2,-4 0,-5zm40 3l6 9 5 -4c0,0 0,0 0,0 -1,0 -1,-1 -1,-1 0,1 -1,1 -3,2l-2 -3 2 -1c0,0 1,0 1,-1 0,0 0,0 0,0 0,0 -1,-1 -1,-1 0,1 -1,1 -1,1l-1 1 -2 -2c1,-1 2,-2 3,-2 0,0 -1,-1 -1,-1 0,0 0,0 0,0l-5 3zm-30 3c1,1 2,1 3,2 0,0 0,-1 0,-1 0,0 0,0 0,0l-7 -4c0,1 0,1 0,1 0,0 0,0 -1,1 1,0 2,0 3,1l-4 8c1,0 1,0 1,1 1,0 1,0 1,0l4 -9zm27 0l3 9c0,0 -1,0 -1,0 0,0 -1,0 -1,1l-3 -9c-1,0 -2,1 -3,1 0,0 0,0 0,-1 0,0 0,0 0,0l7 -3c0,0 0,0 0,1 0,0 0,0 0,0 -1,0 -1,1 -2,1zm-24 11l2 -10 5 1c0,0 0,0 0,0 0,1 0,1 0,1 0,0 0,0 0,0 -1,0 -2,0 -3,-1l-1 4 2 0c1,0 1,0 2,0 0,0 0,0 0,1 0,0 0,0 0,0 -1,0 -2,0 -2,0l-2 0 -1 3c2,1 3,1 4,1 0,0 0,0 0,0 0,1 0,1 0,1l-6 -1zm18 -1c0,1 -1,1 -2,1 -3,0 -4,-1 -4,-4 -1,-2 0,-5 3,-5 1,0 2,0 2,1l1 0c0,0 0,-1 0,-1 -1,-1 -2,-1 -3,-1 -4,1 -6,3 -6,7 0,3 3,4 6,4 1,0 2,0 3,-1l0 -1 0 0z"/>
  <path class="fil0" d="M36 13l2 0c0,0 0,1 0,1 0,0 1,0 1,0 0,1 1,0 1,0 0,0 0,0 0,-1 0,0 0,0 0,-1 0,0 0,0 -1,0 0,0 0,0 0,0l0 -1c0,0 1,0 1,-1 0,0 1,0 1,0 0,-1 0,-1 -1,-1 0,0 0,0 0,0 0,0 -1,0 -1,0 0,0 0,0 0,1l-2 -1c0,0 1,-1 1,-1 0,0 0,0 1,-1 0,0 1,0 1,0 1,1 1,1 2,1 0,1 0,1 0,2 0,1 0,1 -1,1 0,1 0,1 1,1 0,1 0,1 0,2 0,0 -1,1 -1,1 -1,1 -2,1 -2,1 -1,0 -2,-1 -2,-1 0,-1 -1,-1 -1,-2zm14 5l1 -2 -4 -1 1 -1 4 -5 1 1 0 5 1 0 -1 1 -1 0 0 2 -2 0zm1 -3l0 -3 -2 2 2 1zm11 5l0 -2 -3 -1 0 -1 4 -5 2 1 -1 5 1 0 0 1 -1 0 -1 2 -1 0zm0 -3l1 -3 -3 2 2 1zm10 0c0,0 -1,-1 -1,-1 0,0 0,-1 0,-1 0,-1 1,-1 1,-1 1,-1 1,-1 2,-1 1,0 1,1 2,1 0,1 0,1 0,2 0,0 0,1 0,1 -1,0 -1,0 -1,0 0,1 0,1 1,1 0,1 0,1 0,2 0,0 -1,1 -1,1 -1,1 -2,1 -2,1 -1,0 -2,-1 -2,-1 -1,-1 -1,-1 -1,-2 0,-1 1,-1 1,-1 0,-1 1,-1 1,-1zm1 -2c0,1 0,1 0,1 0,0 0,0 1,1 0,0 0,0 0,-1 0,0 1,0 1,0 0,-1 0,-1 0,-1 -1,0 -1,0 -1,0 0,0 -1,0 -1,0 0,0 0,0 0,0zm-1 4c0,0 0,1 0,1 0,0 1,0 1,0 0,1 0,0 1,0 0,0 0,0 0,-1 0,0 0,0 0,-1 0,0 0,0 -1,0 0,0 0,0 -1,0 0,0 0,1 0,1z"/>
 </g>
</svg>
