<?xml version="1.0" encoding="utf-8"?>
<svg width="156px" height="100px" viewBox="0 0 156 100" version="1.1" xmlns:xlink="http://www.w3.org/1999/xlink" xmlns="http://www.w3.org/2000/svg">
  <desc>Created with Lunacy</desc>
  <path d="M61.8398 5.67605C63.6296 7.16755 65.648 8.58656 67.8114 9.40619C69.6765 5.8266 72.219 2.75997 75.1323 0C70.2759 0.671871 65.7205 2.53973 61.8398 5.67605ZM87.3806 9.40619C89.4715 8.58656 91.4899 7.16755 93.2797 5.67605C89.4715 2.53973 84.9134 0.671871 80.0625 0C83.0511 2.83803 85.4403 5.74854 87.3806 9.40619ZM76.7005 1.03986C73.7844 3.43183 71.175 6.64621 69.5273 10.078C71.766 10.828 74.2332 11.4274 76.7005 11.4274L76.7005 1.03986ZM85.6636 10.078C83.9435 6.56815 81.3313 3.43183 78.4961 1.03986L78.4961 11.4274C80.8825 11.4274 83.3442 10.906 85.6636 10.078ZM64.0797 23.3733L53.3242 23.3733C53.6253 17.1034 56.0842 11.3465 60.5698 6.86926C62.5826 8.58657 64.6011 9.9331 67.0683 10.9758C65.2701 15.0126 64.3027 18.8932 64.0797 23.3733ZM101.865 23.3733L91.04 23.3733C90.8895 18.9713 89.9193 14.9345 88.1992 10.9758C90.5159 9.9331 92.6793 8.51409 94.6252 6.86926C99.2558 11.4971 101.642 17.2512 101.865 23.3733ZM76.7019 13.2172L76.7019 23.3733L65.9492 23.3733C66.0189 19.3421 66.9166 15.3053 68.6339 11.5751C71.1764 12.5453 73.9364 13.1447 76.7019 13.2172ZM78.4961 23.3733L78.4961 13.2172C81.1808 13.1447 83.9435 12.5453 86.4833 11.5751C88.2006 15.3833 89.2488 19.264 89.2488 23.3733L78.4961 23.3733ZM64.0797 25.1687L53.3242 25.1687C53.6253 31.4385 56.1622 37.2651 60.5698 41.6727C62.5826 40.0251 64.6011 38.6841 67.0683 37.6359C65.2701 33.5294 64.3027 29.6487 64.0797 25.1687ZM76.7019 35.3248L76.7019 25.1687L65.9492 25.1687C66.0189 29.1999 66.9166 33.3064 68.6339 36.8943C71.1764 35.9967 73.9364 35.3973 76.7019 35.3248ZM78.4961 25.1687L78.4961 35.3248C81.1055 35.3973 84.0216 35.9967 86.4833 36.8943C88.2006 33.2339 89.2488 29.1999 89.2488 25.1687L78.4961 25.1687ZM101.865 25.1687L91.04 25.1687C90.8895 29.6487 89.9918 33.6075 88.1992 37.6359C90.5159 38.6841 92.6068 40.0251 94.6252 41.6727C99.0272 37.2651 101.642 31.2908 101.865 25.1687ZM48.4667 32.4087L0 32.4087C1.86507 35.4753 4.48285 38.3858 7.17034 38.3858L41.5974 38.3858C43.3147 38.4639 43.3147 40.0251 41.5974 40.2537L7.76694 40.2537C8.96013 42.7154 11.8009 46.3005 14.8592 46.3005L45.7067 46.3005C47.1982 46.5236 47.1982 47.8701 45.7067 48.0931L15.085 48.0931C16.8776 51.2294 19.9387 54.218 23.3761 54.218L49.5846 54.218C51.2322 54.3685 51.157 55.637 49.5149 55.9381L22.8548 55.9381C24.126 58.6256 27.2568 62.0574 31.2908 62.0574L57.5829 62.0574C62.5091 62.0574 67.2874 58.1043 68.634 53.8472C56.3842 48.6925 50.2648 41.2963 48.4667 32.4087ZM155.114 32.4087L106.723 32.4087C104.93 41.2963 98.7303 48.6925 86.4805 53.8472C87.8995 58.1043 92.6778 62.0574 97.6123 62.0574L123.902 62.0574C127.86 62.0574 131.069 58.6256 132.338 55.9381L105.6 55.9381C104.033 55.637 103.882 54.3685 105.53 54.218L131.814 54.218C135.179 54.218 138.312 51.2294 140.029 48.0931L109.483 48.0931C107.916 47.8701 107.916 46.5236 109.483 46.3005L140.255 46.3005C143.389 46.3005 146.224 42.7154 147.347 40.2537L113.517 40.2537C111.875 40.0251 111.875 38.4639 113.517 38.3858L148.022 38.3858C150.712 38.3858 153.322 35.4753 155.114 32.4087ZM76.7005 47.4993C73.7844 45.1826 71.175 41.9738 69.5273 38.4639C71.766 37.6359 74.2332 37.1926 76.7005 37.1926L76.7005 47.4993ZM85.6636 38.4639C83.9435 41.9738 81.3313 45.1826 78.4961 47.5718L78.4961 37.1926C80.8825 37.1926 83.3442 37.714 85.6636 38.4639ZM61.8398 42.8631C63.6296 41.4469 65.7205 39.9526 67.8114 39.133C69.7545 42.7906 72.1437 45.782 75.1323 48.4695C70.2759 47.8701 65.648 46.0022 61.8398 42.8631ZM87.3806 39.133C89.4715 40.0251 91.5596 41.3744 93.2797 42.8631C89.4715 46.0022 84.9134 47.8701 80.0625 48.4695C83.0511 45.782 85.4403 42.7906 87.3806 39.133ZM83.8681 76.0998L80.3582 100L90.5143 100L94.0242 76.0998L102.541 76.0998L104.111 68.1126L76.4022 68.1126L74.9023 76.0998L83.8681 76.0998ZM28.4534 68.2604L22.1055 100L32.4121 100L38.7601 68.2604L28.4534 68.2604ZM38.7578 100L54.2917 68.2604L64.4478 68.2604L70.8738 100L61.3087 100L60.7901 96.2643L50.6312 96.2643L48.992 100L38.7578 100ZM116.057 68.2604L100.523 100L110.758 100L112.4 96.2643L122.553 96.2643L123.002 100L132.637 100L126.291 68.2604L116.057 68.2604ZM59.7495 89.6153L53.1758 89.6153L58.0322 77.9677L59.7495 89.6153ZM114.938 89.6153L121.508 89.6153L119.794 77.9677L114.938 89.6153Z" id="IATA-Logo" fill="#014D82" fill-rule="evenodd" stroke="none" />
</svg>