<?xml version="1.0" encoding="utf-8"?>
<svg width="40px" height="39px" viewBox="0 0 40 39" version="1.1" xmlns:xlink="http://www.w3.org/1999/xlink" xmlns="http://www.w3.org/2000/svg">
  <desc>Created with Lunacy</desc>
  <defs>
    <path d="M0 0L39.1136 0L39.1136 38.9881L0 38.9881L0 0Z" id="path_1" />
    <clipPath id="mask_1">
      <use xlink:href="#path_1" />
    </clipPath>
  </defs>
  <g id="Group-3">
    <path d="M0 0L39.1136 0L39.1136 38.9881L0 38.9881L0 0Z" id="Clip-2" fill="none" stroke="none" />
    <g clip-path="url(#mask_1)">
      <path d="M19.5561 0C12.525 0 6.82422 5.72 6.82422 12.7274C6.82422 15.4919 7.71311 18.1437 9.34126 20.3407L18.3353 32.5363C18.6316 32.9156 19.0761 33.1437 19.5561 33.1437C20.0376 33.1437 20.482 32.9156 20.7768 32.5363L29.7694 20.3407C31.4361 18.1437 32.2879 15.4919 32.2879 12.7274C32.2879 5.72 26.5887 0 19.5561 0ZM29.3938 12.7273C29.3938 7.34363 24.9819 2.96289 19.5582 2.96289C14.1345 2.96289 9.72266 7.34363 9.72266 12.7273C9.72266 14.8355 10.3878 16.8488 11.6501 18.5496L19.5582 29.274L27.4619 18.5555C28.7345 16.877 29.3938 14.8725 29.3938 12.7273ZM19.5556 7.38672C16.6697 7.38672 14.3008 9.81042 14.3008 12.766C14.3008 15.7201 16.6697 18.1438 19.5556 18.1438C22.4415 18.1438 24.8119 15.7201 24.8119 12.7275C24.8119 9.77339 22.4415 7.38672 19.5556 7.38672ZM21.9168 12.7274C21.9168 11.4163 20.8575 10.3496 19.5553 10.3496C18.2768 10.3496 17.1953 11.4548 17.1953 12.7659C17.1953 14.0741 18.2768 15.1807 19.5553 15.1807C20.8575 15.1807 21.9168 14.08 21.9168 12.7274ZM39.1141 32.4666C39.1141 29.0444 33.6356 27.4147 29.037 26.6518C28.2919 26.5288 27.6015 27.0414 27.4815 27.7984C27.3615 28.554 27.8622 29.2681 28.6015 29.3895C34.5541 30.3792 36.403 31.991 36.403 32.4666C36.403 33.554 30.6059 36.2147 19.8593 36.2147L19.2548 36.2147C8.50815 36.2147 2.71111 33.554 2.71111 32.4666C2.71111 31.991 4.56 30.3792 10.5126 29.3895C11.2519 29.2681 11.7541 28.554 11.6326 27.7984C11.5111 27.0414 10.8119 26.5288 10.077 26.6518C5.48 27.4147 0 29.0444 0 32.4666C0 36.9481 9.98074 38.9895 19.2548 38.9895L19.8593 38.9895C29.1333 38.9895 39.1141 36.9481 39.1141 32.4666Z" transform="translate(0 -0.0007324219)" id="Fill-1" fill="#020303" fill-rule="evenodd" stroke="none" />
    </g>
  </g>
</svg>