<?xml version="1.0" encoding="utf-8"?>
<svg width="81px" height="55px" viewBox="0 0 81 55" version="1.1" xmlns:xlink="http://www.w3.org/1999/xlink" xmlns="http://www.w3.org/2000/svg">
  <desc>Created with Lunacy</desc>
  <defs>
    <path d="M0 0L37.5557 0L37.5557 54.5425L0 54.5425L0 0Z" id="path_1" />
    <path d="M0 0L37.5559 0L37.5559 54.5425L0 54.5425L0 0Z" id="path_2" />
    <clipPath id="mask_1">
      <use xlink:href="#path_1" />
    </clipPath>
    <clipPath id="mask_2">
      <use xlink:href="#path_2" />
    </clipPath>
  </defs>
  <g id="Group-7" transform="matrix(-1 0 0 1 80.55469 0)" opacity="0.5">
    <g id="Group-3" transform="translate(43 0)">
      <path d="M0 0L37.5557 0L37.5557 54.5425L0 54.5425L0 0Z" id="Clip-2" fill="none" stroke="none" />
      <g clip-path="url(#mask_1)">
        <path d="M0 25.3585C0 25.3585 0 25.4641 0 25.3585C0.106391 26.7321 0.106391 27.8943 0.319172 29.1623C0.956453 34.1283 2.76616 38.7774 5.42593 42.6857C6.70262 44.6943 8.29848 46.3838 9.99967 47.9688C11.703 49.4491 13.5116 50.8226 15.533 51.8792C16.065 52.1952 16.7033 52.4075 17.2353 52.7235C17.5545 52.8302 17.7673 53.0415 18.0864 53.1472C19.2567 53.5698 20.427 53.9925 21.5973 54.3084C21.9165 54.4151 22.2346 54.4151 22.5548 54.5208C23.6187 54.7321 24.0443 53.3585 23.1932 52.8302C22.9804 52.7235 22.7666 52.5132 22.4485 52.4075C21.5973 51.8792 20.8526 51.2453 20.1068 50.6103C19.7887 50.2943 19.4695 49.9774 19.0429 49.6604C18.7248 49.3434 18.4056 49.0254 18.0864 48.6038C16.8097 47.2302 15.8512 45.6453 15.0011 44.0604C14.15 42.4755 13.618 40.7849 13.1914 39.0943C13.0861 38.7774 13.0861 38.4604 12.9797 38.2491C12.8733 37.7208 13.2988 37.1925 13.9372 37.1925L27.4488 37.1925C32.9811 37.1925 37.5559 32.7547 37.5559 27.1547L37.5559 10.0377C37.5559 4.5434 33.0875 0 27.4488 0L10.2135 0C4.68013 0 0.106391 4.43774 0.106391 10.0377L0.106391 21.0264C0.106391 21.5547 0.106391 22.1887 0 22.717L0 23.5623L0 25.3585Z" id="Fill-1" fill="#D8D8D8" stroke="none" />
      </g>
    </g>
    <g id="Group-6">
      <path d="M0 0L37.5559 0L37.5559 54.5425L0 54.5425L0 0Z" id="Clip-5" fill="none" stroke="none" />
      <g clip-path="url(#mask_2)">
        <path d="M0 25.3585C0 25.3585 0 25.4641 0 25.3585C0.106391 26.7321 0.106391 27.8943 0.319172 29.1623C0.957517 34.1283 2.76616 38.7774 5.42593 42.6857C6.70262 44.6943 8.29848 46.3838 10.0007 47.9688C11.703 49.4491 13.5116 50.8226 15.533 51.8792C16.065 52.1952 16.7033 52.4075 17.2353 52.7235C17.5545 52.8302 17.7673 53.0415 18.0864 53.1472C19.2567 53.5698 20.427 53.9925 21.5973 54.3084C21.9165 54.4151 22.2357 54.4151 22.5548 54.5208C23.6187 54.7321 24.0443 53.3585 23.1932 52.8302C22.9804 52.7235 22.7676 52.5132 22.4485 52.4075C21.5973 51.8792 20.8526 51.2453 20.1079 50.6103C19.7887 50.2943 19.4695 49.9774 19.0439 49.6604C18.7248 49.3434 18.4056 49.0254 18.0864 48.6038C16.8097 47.2302 15.8522 45.6453 15.0011 44.0604C14.15 42.4755 13.618 40.7849 13.1925 39.0943C13.0861 38.7774 13.0861 38.4604 12.9797 38.2491C12.8733 37.7208 13.2988 37.1925 13.9372 37.1925L27.4488 37.1925C32.9811 37.1925 37.5559 32.7547 37.5559 27.1547L37.5559 10.0377C37.5559 4.5434 33.0875 0 27.4488 0L10.2135 0C4.68119 0 0.106391 4.43774 0.106391 10.0377L0.106391 21.0264C0.106391 21.5547 0.106391 22.1887 0 22.717L0 23.5623L0 25.3585Z" id="Fill-4" fill="#D8D8D8" stroke="none" />
      </g>
    </g>
  </g>
</svg>