<?xml version="1.0" encoding="utf-8"?>
<svg width="8px" height="14px" viewBox="0 0 8 14" version="1.1" xmlns:xlink="http://www.w3.org/1999/xlink" xmlns="http://www.w3.org/2000/svg">
  <desc>Created with Lunacy</desc>
  <path d="M7.38905 5.44449L0.389623 5.44449C0.305312 5.44449 0.223652 5.41744 0.156309 5.36707C-0.0160252 5.23821 -0.050492 4.9943 0.0778308 4.82249L3.57807 0.155676C3.60035 0.126512 3.62633 0.0999989 3.65602 0.077728C3.82783 -0.0511251 4.07175 -0.016128 4.2006 0.155676L7.70084 4.82249C7.75122 4.88983 7.77879 4.97149 7.77879 5.05581C7.77879 5.27056 7.60381 5.44449 7.38905 5.44449ZM0.389741 8.55566L7.38917 8.55566C7.47348 8.55566 7.55514 8.58271 7.62248 8.63308C7.79482 8.76194 7.82928 9.00585 7.70096 9.17766L4.20072 13.8445C4.17845 13.8736 4.15246 13.9002 4.1233 13.9219C3.95149 14.0513 3.70705 14.0163 3.57819 13.8445L0.0779482 9.17766C0.0275735 9.11032 0 9.02866 0 8.94434C0.00053026 8.72959 0.174986 8.55566 0.389741 8.55566Z" id="Sort-By-Icon" fill="#020303" fill-rule="evenodd" stroke="none" />
</svg>