<?xml version="1.0" encoding="utf-8"?>
<svg width="41px" height="41px" viewBox="0 0 41 41" version="1.1" xmlns:xlink="http://www.w3.org/1999/xlink" xmlns="http://www.w3.org/2000/svg">
  <desc>Created with Lunacy</desc>
  <g id="Group-7" transform="matrix(-1 0 0 1 40.19922 0.2000122)">
    <path d="M33.9639 0L6.03613 0C2.70141 0 0 2.70141 0 6.03613L0 33.9639C0 37.2971 2.70141 40 6.03613 40L33.9639 40C37.2971 40 40 37.2971 40 33.9639L40 6.03613C40 2.70141 37.2971 0 33.9639 0L33.9639 0Z" id="Fill-1" fill="#20A1AA" stroke="none" />
    <path d="M5.83931 5.82829C5.72313 5.94499 5.57012 6.00153 5.41711 5.99997C5.26463 6.00153 5.11162 5.94499 4.99492 5.82829L0.172328 1.00622C-0.0574427 0.77593 -0.0574427 0.403006 0.172328 0.172717C0.403136 -0.0575723 0.775541 -0.0575723 1.00635 0.172717L5.41711 4.58348L9.8284 0.172717C10.0582 -0.0575723 10.4316 -0.0575723 10.6614 0.172717C10.8912 0.403006 10.8917 0.77593 10.6614 1.00622L5.83931 5.82829Z" transform="matrix(-4.371139E-08 -1 1 -4.371139E-08 17.41694 25.41697)" id="Dropdown-Icon" fill="#FFFFFF" stroke="#FFFFFF" stroke-width="0.4" />
  </g>
</svg>