<?xml version="1.0" encoding="UTF-8"?>
<!DOCTYPE svg PUBLIC "-//W3C//DTD SVG 1.1//EN" "http://www.w3.org/Graphics/SVG/1.1/DTD/svg11.dtd">
<!-- Creator: CorelDRAW X7 -->
<svg xmlns="http://www.w3.org/2000/svg" xml:space="preserve" width="50px" height="50px" version="1.1" style="shape-rendering:geometricPrecision; text-rendering:geometricPrecision; image-rendering:optimizeQuality; fill-rule:evenodd; clip-rule:evenodd"
viewBox="0 0 50 50"
 xmlns:xlink="http://www.w3.org/1999/xlink">
 <defs>
  <style type="text/css">
   <![CDATA[
    .fil0 {fill:none}
    .fil2 {fill:#FEFEFE}
    .fil1 {fill:#FEFEFE}
   ]]>
  </style>
 </defs>
 <g id="Layer_x0020_1">
  <metadata id="CorelCorpID_0Corel-Layer"/>
  <g id="ATOL-Logo">
   <polygon id="Clip-2" class="fil0" points="0,0 50,0 50,50 0,50 "/>
   <g>
    <polygon class="fil0" points="0,0 50,0 50,50 0,50 "/>
   </g>
   <g>
    <path id="Fill-1" class="fil1" d="M0 20c2,-13 15,-22 29,-20 12,2 21,13 21,25 0,1 0,3 -1,4 -2,14 -15,23 -29,20 -13,-2 -22,-15 -20,-29zm48 9c-3,12 -15,21 -27,19 -13,-2 -22,-15 -19,-27 2,-13 14,-22 27,-19 12,2 21,14 19,27zm-14 0c0,0 -6,1 -11,-4 -5,-5 -5,-11 -2,-16l-4 -1 -4 25 20 4 1 -8zm-4 -19l0 0 0 0c0,0 -8,5 -4,12 3,6 8,6 8,6l3 -16 -6 -1 -1 -1zm0 0l0 0 0 0 7 2 -6 -1 -1 -1 0 0zm-25 20c1,1 1,2 3,1 1,0 1,-1 1,-2l-1 -1 -5 1c0,0 0,0 0,1 0,0 0,0 0,0l2 0zm14 2l-1 -3 -1 0 -2 2 1 0 0 -1 2 1 0 0 1 1zm-11 -3l0 0 -2 0c0,1 0,1 0,1 0,0 1,0 1,0 1,0 1,0 1,-1zm12 0l4 1 0 0 -2 0 0 2 -1 0 0 -2 -1 0 0 -1zm-2 1l-1 -1 0 1 1 0zm11 2c0,-1 0,-1 -1,-1 0,0 -1,-1 -1,-1 -1,0 -2,0 -2,0 -1,0 -1,1 -1,1 0,1 0,1 1,1 0,0 0,1 1,1 1,0 1,0 2,0 0,0 1,-1 1,-1zm-3 -1c0,0 0,0 -1,0 0,0 0,0 0,0 0,1 0,1 0,1 0,0 1,0 1,0 1,0 1,0 1,0 0,0 1,0 1,0 0,-1 0,-1 -1,-1 0,0 0,0 -1,0zm4 2l3 0 0 1 -4 -1 1 -2 1 0 -1 2zm-25 1c0,1 0,1 0,1 0,0 0,0 0,0l2 -1 0 0c0,0 0,1 0,1l-1 2c0,0 0,0 0,0 1,0 1,1 1,1l0 -1c0,0 1,-1 1,-2 1,1 1,1 2,0 0,0 1,0 1,-1 0,0 -1,-1 -1,-1l-1 -1 -4 2zm5 -1c0,0 0,0 0,0l-2 1c0,1 1,1 1,0 0,0 0,0 1,0 0,0 0,-1 0,-1zm31 7l-5 -3 2 -2c1,-1 2,-1 3,0 2,1 2,2 1,4l-1 1zm-3 -4l0 0 3 3 0 0c1,-1 1,-2 0,-3 -1,-1 -2,-1 -3,0zm-28 5c1,2 3,1 4,0 1,-1 1,-2 0,-4 -2,-1 -3,-1 -4,0 -1,2 -1,3 0,4zm3 -3c0,-1 -1,-1 -2,0 -1,1 -1,2 -1,3 1,1 2,0 3,-1 1,0 1,-2 0,-2zm20 1l3 5 3 -2c0,0 0,0 -1,0 0,-1 0,-1 0,-1 0,1 0,1 -1,1l-1 -1 0 -1c1,0 1,0 1,0 0,0 0,0 0,0 0,0 0,-1 0,-1 0,1 -1,1 -1,1l0 0 -1 -1c0,0 1,-1 1,-1 0,0 0,0 0,0 0,0 0,0 0,0l-3 1zm-15 2c1,0 1,0 2,1 0,-1 0,-1 0,-1 0,0 0,0 0,0l-4 -2c0,0 0,1 0,1 0,0 0,0 0,0 0,0 1,0 1,0l-2 5c1,0 1,0 1,0 0,0 0,0 0,0l2 -4zm15 -1c-1,0 -1,1 -1,1l1 4c0,0 0,0 0,0 0,0 -1,0 -1,1l-1 -5c-1,0 -1,1 -2,1 0,0 0,0 0,-1 0,0 0,0 0,0l4 -1c0,0 0,0 0,0 0,0 0,0 0,0zm-13 6l1 -5 2 1c0,0 0,0 0,0 0,0 0,0 0,0 0,0 0,0 0,0 0,0 -1,0 -1,0l-1 1 1 1c0,0 1,0 1,0 0,0 0,0 0,0 0,0 0,0 0,0 0,0 -1,0 -1,0l-1 0 0 2c1,0 1,0 2,0 0,0 0,0 0,0 0,1 0,1 0,1l-3 -1zm9 0c0,0 -1,0 -1,0 -2,0 -2,0 -2,-2 -1,-1 0,-2 1,-2 1,0 1,0 1,0l1 0c0,0 0,0 0,0 -1,-1 -1,-1 -2,-1 -2,0 -3,1 -3,3 0,2 2,3 3,3 1,0 1,0 2,-1l0 0 0 0z"/>
   </g>
  </g>
  <path class="fil2" d="M18 6l1 0c0,0 0,1 0,1 0,0 0,0 0,0 1,0 1,0 1,0 0,0 0,0 0,-1 0,0 0,0 0,0 0,0 0,0 0,0 0,0 0,0 -1,0l1 -1c0,0 0,0 0,0 0,0 0,0 0,0 0,0 0,-1 0,-1 0,0 0,0 0,0 0,0 0,0 0,0 -1,0 -1,0 -1,1l0 -1c0,0 0,0 0,0 0,0 0,0 0,0 1,0 1,0 1,0 0,0 1,0 1,0 0,0 0,1 0,1 0,0 0,0 -1,1 1,0 1,0 1,0 0,0 0,0 0,1 0,0 0,0 -1,0 0,1 0,1 -1,1 0,0 0,-1 0,-1 -1,0 -1,0 -1,-1zm7 3l0 -1 -1 -1 0 0 2 -2 0 0 0 2 0 0 0 1 0 0 0 1 -1 0zm0 -2l0 -1 -1 1 1 0zm5 2l1 0 -2 -1 0 0 2 -2 1 0 -1 2 1 0 0 1 -1 0 0 1 -1 -1zm1 -1l0 -1 -1 1 1 0zm4 0c0,0 0,0 0,0 0,0 0,-1 0,-1 0,0 0,0 0,0 1,-1 1,-1 1,-1 1,0 1,1 1,1 0,0 0,0 0,1 0,0 0,0 0,0 0,0 0,0 0,0 0,0 0,1 0,1 0,0 0,0 0,0 0,1 0,1 0,1 -1,0 -1,1 -1,0 -1,0 -1,0 -1,0 0,0 -1,-1 0,-1 0,0 0,0 0,-1 0,0 0,0 0,0zm1 -1c0,1 0,1 0,1 0,0 0,0 0,0 0,0 0,0 0,0 0,0 1,0 1,0 0,-1 0,-1 0,-1 -1,0 -1,0 -1,0 0,0 0,0 0,0 0,0 0,0 0,0zm-1 2c0,0 0,0 0,1 0,0 1,0 1,0 0,0 0,0 0,0 0,0 0,-1 0,-1 0,0 0,0 0,0 0,0 0,0 0,0 0,0 0,0 -1,0 0,0 0,0 0,0z"/>
 </g>
</svg>
