<?xml version="1.0" encoding="utf-8"?>
<svg width="24px" height="20px" viewBox="0 0 24 20" version="1.1" xmlns:xlink="http://www.w3.org/1999/xlink" xmlns="http://www.w3.org/2000/svg">
  <desc>Created with Lunacy</desc>
  <path d="M21.2357 7.59925C19.9275 8.90743 18.4781 9.62954 17.1594 9.62954C16.4934 9.63771 15.8411 9.44037 15.2913 9.06441L12.9942 11.3616L19.1426 17.51C19.3526 17.7057 19.439 18.0004 19.368 18.2785C19.297 18.5566 19.0798 18.7737 18.8017 18.8448C18.5236 18.9158 18.229 18.8293 18.0333 18.6193L11.8848 12.4709L5.60559 18.7502C5.40991 18.9602 5.11522 19.0466 4.83712 18.9756C4.55902 18.9045 4.34186 18.6874 4.27084 18.4093C4.19982 18.1312 4.28626 17.8365 4.49625 17.6408L10.7755 11.3616L7.82949 8.41555L6.55271 9.69234C6.24626 9.9984 5.74982 9.9984 5.44337 9.69234L0.210661 4.45962C-0.0775137 4.15036 -0.0690106 3.66843 0.229895 3.36952C0.5288 3.07062 1.01073 3.06211 1.32 3.35029L5.99804 8.02833L6.72015 7.30622L2.30375 2.88981C2.01557 2.58055 2.02407 2.09861 2.32298 1.79971C2.62188 1.5008 3.10382 1.4923 3.41308 1.78047L7.82949 6.19688L8.5516 5.47477L4.39683 1.32C4.10866 1.01073 4.11716 0.5288 4.41606 0.229895C4.71497 -0.0690106 5.1969 -0.0775137 5.50617 0.210661L10.2156 4.9201C10.5217 5.22655 10.5217 5.72299 10.2156 6.02944L8.93883 7.30622L11.8848 10.2522L14.25 7.88705C13.4023 6.30677 13.9832 4.16659 15.8774 2.27235C17.1699 0.974637 18.6089 0.262988 19.9328 0.262988C20.8141 0.252009 21.6621 0.599512 22.2822 1.22581C23.8521 2.81655 23.4544 5.38058 21.2357 7.59925ZM19.9328 1.81187C19.017 1.81187 17.9339 2.43456 16.9867 3.38168C15.5582 4.81021 14.9198 6.52131 15.9402 7.56785C16.2619 7.89222 16.7027 8.07008 17.1594 8.05973C18.0804 8.05973 19.174 7.44227 20.1264 6.48992C21.5549 5.05615 22.2194 3.38168 21.1729 2.33514C20.8494 1.99706 20.4006 1.80769 19.9328 1.81187Z" transform="translate(0.1015625 0.09997559)" id="Shape" fill="#878787" fill-rule="evenodd" stroke="#878787" stroke-width="0.2" />
</svg>