<?xml version="1.0" encoding="utf-8"?>
<svg width="15px" height="11px" viewBox="0 0 15 11" version="1.1" xmlns:xlink="http://www.w3.org/1999/xlink" xmlns="http://www.w3.org/2000/svg">
  <desc>Created with Lunacy</desc>
  <g id="Arrow" transform="translate(0.09960938 0.09960938)">
    <path d="M14.2904 5.00067C14.2829 4.85707 14.2315 4.7442 14.1638 4.67318L9.87673 0.147896C9.67947 -0.0501375 9.38436 -0.0421826 9.20315 0.129295C9.02193 0.300765 9.01307 0.621662 9.18455 0.802876L12.705 4.52432L0.476345 4.52432C0.213284 4.52432 0 4.73758 0 5.00067C0 5.26375 0.213284 5.47701 0.476345 5.47701L12.705 5.47701L9.18455 9.19846C9.01308 9.37969 9.02796 9.69443 9.20315 9.87204C9.38436 10.0558 9.70526 10.0347 9.87673 9.85346L14.1638 5.32818C14.2769 5.21255 14.283 5.11425 14.2904 5.00069L14.2904 5.00067Z" transform="matrix(-1 0 0 1 14.29102 0)" id="Arrow-Icon" fill="#424242" stroke="#424242" stroke-width="0.2" />
  </g>
</svg>