<?xml version="1.0" encoding="utf-8"?>
<svg width="35px" height="29px" viewBox="0 0 35 29" version="1.1" xmlns:xlink="http://www.w3.org/1999/xlink" xmlns="http://www.w3.org/2000/svg">
  <desc>Created with Lunacy</desc>
  <path d="M4.02 28.631L30.493 28.631C32.71 28.631 34.513 26.828 34.513 24.611L34.513 8.433C34.513 6.216 32.71 4.413 30.493 4.413L25.188 4.413L22.567 0.481C22.366 0.18 22.029 0 21.669 0L12.844 0C12.484 0 12.147 0.18 11.946 0.481L9.325 4.413L4.02 4.413C1.803 4.413 0 6.216 0 8.433L0 24.611C0 26.828 1.803 28.631 4.02 28.631ZM4.02025 6.57023C2.99225 6.57023 2.15625 7.40523 2.15625 8.43323L2.15625 24.6112C2.15625 25.6382 2.99225 26.4742 4.02025 26.4742L30.4932 26.4742C31.5212 26.4742 32.3572 25.6382 32.3572 24.6112L32.3572 8.43323C32.3572 7.40523 31.5212 6.57023 30.4932 6.57023L24.6112 6.57023C24.2502 6.57023 23.9132 6.39023 23.7132 6.08923L21.0922 2.15723L13.4212 2.15723L10.8003 6.08923C10.6002 6.39023 10.2632 6.57023 9.90325 6.57023L4.02025 6.57023ZM10.2949 15.7862C10.2949 19.6252 13.4179 22.7482 17.2569 22.7482C21.0959 22.7482 24.2179 19.6252 24.2179 15.7862C24.2179 11.9482 21.0959 8.8252 17.2569 8.8252C13.4179 8.8252 10.2949 11.9482 10.2949 15.7862ZM12.4512 15.7859C12.4512 13.1369 14.6082 10.9819 17.2572 10.9819C19.9062 10.9819 22.0622 13.1369 22.0622 15.7859C22.0622 18.4359 19.9062 20.5909 17.2572 20.5909C14.6082 20.5909 12.4512 18.4359 12.4512 15.7859Z" id="Camera-Icon" fill="#FFFFFF" fill-rule="evenodd" stroke="none" />
</svg>