<?xml version="1.0" encoding="utf-8"?>
<svg width="14px" height="14px" viewBox="0 0 14 14" version="1.1" xmlns:xlink="http://www.w3.org/1999/xlink" xmlns="http://www.w3.org/2000/svg">
  <desc>Created with Lunacy</desc>
  <g id="Close-Icon">
    <path d="M0 6.84496C0 3.06496 3.06444 0 6.84496 0C10.625 0 13.6899 3.06496 13.6899 6.84496C13.6899 10.6255 10.625 13.6899 6.84496 13.6899C3.06444 13.6899 0 10.6255 0 6.84496ZM12.6529 6.84496C12.6529 3.64259 10.0473 1.03704 6.84496 1.03704C3.64259 1.03704 1.03704 3.64259 1.03704 6.84496C1.03704 10.0473 3.64259 12.6529 6.84496 12.6529C10.0473 12.6529 12.6529 10.0473 12.6529 6.84496Z" id="Menu-Icon" fill="#020303" fill-rule="evenodd" stroke="none" />
    <path d="M6.32645 1.03704C6.61319 1.03704 6.84548 0.804741 6.84548 0.518518C6.84548 0.232296 6.61319 -7.27602e-12 6.32645 -7.27602e-12L0.518519 -7.27602e-12C0.232296 -7.27602e-12 0 0.232296 0 0.518518C0 0.804741 0.232296 1.03704 0.518519 1.03704L6.32645 1.03704Z" transform="matrix(-0.7071068 0.7071068 -0.7071068 -0.7071068 9.632813 4.791016)" id="Path" fill="#020303" stroke="none" />
    <path d="M6.32644 1.03704C6.61318 1.03704 6.84548 0.804741 6.84548 0.518518C6.84548 0.232296 6.61318 3.63926e-12 6.32644 3.63923e-12L0.518518 3.63798e-12C0.232296 3.63795e-12 -7.60001e-16 0.232296 -7.60001e-16 0.518518C-3.80001e-16 0.804741 0.232296 1.03704 0.518518 1.03704L6.32644 1.03704Z" transform="matrix(0.7071068 0.7071068 -0.7071068 0.7071068 4.792969 4.058594)" id="Path" fill="#020303" stroke="none" />
  </g>
</svg>