<?xml version="1.0" encoding="utf-8"?>
<svg width="8px" height="8px" viewBox="0 0 8 8" version="1.1" xmlns:xlink="http://www.w3.org/1999/xlink" xmlns="http://www.w3.org/2000/svg">
  <desc>Created with Lunacy</desc>
  <path d="M7.13143 7.13188C6.8423 7.42101 6.37299 7.42101 6.08334 7.13136L3.67448 4.72249L1.26557 7.1314C0.975924 7.42105 0.506614 7.42105 0.217486 7.13192C-0.0716424 6.84279 -0.0716419 6.37348 0.218009 6.08383L2.62691 3.67493L0.216451 1.26446C-0.0726768 0.975335 -0.0726767 0.506026 0.216451 0.216898C0.50558 -0.0722301 0.974889 -0.07223 1.26402 0.216898L3.67448 2.62736L6.0849 0.21694C6.37403 -0.0721884 6.84334 -0.0721884 7.13247 0.21694C7.4216 0.506068 7.4216 0.975377 7.13247 1.26451L4.72204 3.67493L7.13091 6.08379C7.42056 6.37344 7.42056 6.84275 7.13143 7.13188Z" id="Close-Icon" fill="#878787" fill-rule="evenodd" stroke="none" />
</svg>