<?xml version="1.0" encoding="utf-8"?>
<svg width="120px" height="120px" viewBox="0 0 120 120" version="1.1" xmlns:xlink="http://www.w3.org/1999/xlink" xmlns="http://www.w3.org/2000/svg">
  <desc>Created with Lunacy</desc>
  <path d="M60 0C75.9995 0 91.0467 6.22192 102.375 17.5221C113.721 28.8425 119.98 43.9023 119.999 59.9269C120.039 93.0115 93.1563 119.958 60.0731 120L59.922 120C44.1858 120 28.7846 113.627 17.6469 102.499C6.28746 91.1789 0.0189377 76.1115 4.5258e-05 60.0718C-0.0402587 26.9885 26.8437 0.040304 59.927 0L60 0ZM60.0695 114.593C74.0575 114.592 88.0493 109.265 98.6958 98.6148C109.01 88.2982 114.689 74.581 114.688 59.991C114.685 45.4022 109.002 31.6863 98.6845 21.3735C77.3876 0.080421 42.7351 0.0867186 21.4432 21.3848L21.2468 21.5813C0.0619898 42.8757 0.152674 77.4363 21.4546 98.6261C32.1024 109.271 46.0853 114.594 60.0695 114.593ZM80.9042 36.4626C81.1926 36.4626 81.481 36.508 81.7556 36.6012C82.437 36.8279 82.9886 37.3065 83.3111 37.9501C83.6322 38.5937 83.6839 39.323 83.4559 40.0044L73.0373 71.2651C72.7716 72.0649 72.1368 72.7009 71.3471 72.9667L40.08 83.389C39.5309 83.5767 38.9301 83.5767 38.381 83.3916C36.9741 82.9205 36.2134 81.3915 36.6844 79.9821L47.1055 48.7201C47.37 47.9228 48.0035 47.2868 48.7932 47.021L80.0527 36.6012C80.3273 36.508 80.6157 36.4626 80.9042 36.4626ZM68.3669 68.2953L43.4805 76.5916L51.7755 51.7052L76.662 43.4102L68.3669 68.2953Z" id="Compass-Icon" fill="#FFFFFF" fill-opacity="0.2470238" fill-rule="evenodd" stroke="none" />
</svg>