<?xml version="1.0" encoding="utf-8"?>
<svg width="14px" height="14px" viewBox="0 0 14 14" version="1.1" xmlns:xlink="http://www.w3.org/1999/xlink" xmlns="http://www.w3.org/2000/svg">
  <desc>Created with Lunacy</desc>
  <path d="M4.34377 1.16075L1.98143 1.16075L5.65623 4.83335C5.88223 5.0603 5.88223 5.42777 5.65623 5.65419C5.54271 5.76714 5.39363 5.82335 5.24562 5.82335C5.09655 5.82335 4.94801 5.76714 4.83501 5.65366L1.16021 1.98106L1.16021 4.34232C1.16021 4.66207 0.900265 4.92243 0.580371 4.92243C0.260477 4.92243 0 4.66207 0 4.34232L0 0.58488C0 0.428983 0.0604775 0.28316 0.171353 0.172866C0.281698 0.0615105 0.428117 0 0.584085 0L4.34377 0C4.66366 0 4.92414 0.260359 4.92414 0.580638C4.92414 0.900386 4.66366 1.16075 4.34377 1.16075ZM13.4172 0C13.5742 0 13.7211 0.0620408 13.8315 0.174987C13.9402 0.281039 14.0018 0.428452 14.0018 0.58488L14.0018 4.34232C14.0018 4.66207 13.7418 4.92243 13.4219 4.92243C13.102 4.92243 12.8416 4.66207 12.8416 4.34232L12.8416 1.98106L9.16676 5.65419C9.05695 5.76343 8.91159 5.82388 8.75615 5.82388C8.60125 5.82388 8.45589 5.76343 8.34607 5.65419C8.23626 5.54443 8.17578 5.39861 8.17578 5.2443C8.17578 5.08893 8.23626 4.94311 8.34607 4.83335L12.0203 1.16075L9.65801 1.16075C9.33812 1.16075 9.07764 0.900386 9.07764 0.580638C9.07764 0.260359 9.33812 0 9.65801 0L13.4172 0ZM4.83501 8.34616L1.16021 12.0188L1.16021 9.65803C1.16021 9.33775 0.900265 9.07792 0.580371 9.07792C0.260477 9.07792 0 9.33775 0 9.65803L0 13.4155C0 13.5719 0.0615385 13.7188 0.169761 13.8254C0.280106 13.9378 0.427056 13.9998 0.584085 13.9998L4.34377 13.9998C4.66366 13.9998 4.92414 13.7395 4.92414 13.4197C4.92414 13.0994 4.66366 12.8391 4.34377 12.8391L1.98143 12.8391L5.65623 9.16647C5.88223 8.94005 5.88223 8.57205 5.65623 8.34562C5.4366 8.12663 5.05411 8.12716 4.83501 8.34616ZM14.0018 13.4154L14.0018 9.65796C14.0018 9.33768 13.7418 9.07785 13.4219 9.07785C13.102 9.07785 12.8416 9.33768 12.8416 9.65796L12.8416 12.0187L9.16676 8.34609C8.94766 8.12656 8.56464 8.12709 8.34607 8.34609C8.23626 8.45585 8.17578 8.60168 8.17578 8.75704C8.17578 8.91188 8.23679 9.05717 8.34607 9.1664L12.0203 12.839L9.65801 12.839C9.33812 12.839 9.07764 13.0994 9.07764 13.4196C9.07764 13.7394 9.33812 13.9998 9.65801 13.9998L13.4172 13.9998C13.5737 13.9998 13.7201 13.9382 13.8304 13.8269C13.9413 13.7171 14.0018 13.5708 14.0018 13.4154Z" id="Expand-Icon" fill="#FFFFFF" fill-rule="evenodd" stroke="none" />
</svg>