<?xml version="1.0" encoding="utf-8"?>
<svg width="26px" height="26px" viewBox="0 0 26 26" version="1.1" xmlns:xlink="http://www.w3.org/1999/xlink" xmlns="http://www.w3.org/2000/svg">
  <desc>Created with Lunacy</desc>
  <path d="M3.92432 0L22.0767 0C24.2432 0 26 1.75684 26 3.92432L26 22.0767C26 24.2432 24.2432 26 22.0767 26L3.92432 26C1.75684 26 0 24.2432 0 22.0767L0 3.92432C0 1.75684 1.75684 0 3.92432 0ZM24.0297 22.0768C24.0297 23.1542 23.1532 24.0306 22.0759 24.0306L3.92353 24.0306C2.8452 24.0306 1.96875 23.1542 1.96875 22.0768L1.96875 3.9245C1.96875 2.84618 2.8452 1.96973 3.92353 1.96973L22.0759 1.96973C23.1532 1.96973 24.0297 2.84618 24.0297 3.9245L24.0297 22.0768ZM19.6808 13.0004C19.6808 13.544 19.2406 13.9852 18.696 13.9852L7.30118 13.9852C6.7566 13.9852 6.31641 13.544 6.31641 13.0004C6.31641 12.4568 6.7566 12.0156 7.30118 12.0156L18.696 12.0156C19.2406 12.0156 19.6808 12.4568 19.6808 13.0004Z" id="Minus-Icon" fill="#020303" fill-rule="evenodd" stroke="none" />
</svg>