<?xml version="1.0" encoding="utf-8"?>
<svg width="51px" height="51px" viewBox="0 0 51 51" version="1.1" xmlns:xlink="http://www.w3.org/1999/xlink" xmlns="http://www.w3.org/2000/svg">
  <desc>Created with Lunacy</desc>
  <path d="M40.491 50.263L9.772 50.263C4.383 50.263 0 45.879 0 40.491L0 9.772C0 4.384 4.383 0 9.772 0L40.491 0C45.879 0 50.263 4.384 50.263 9.772L50.263 40.491C50.263 45.879 45.879 50.263 40.491 50.263ZM9.772 2C5.486 2 2 5.486 2 9.772L2 40.491C2 44.776 5.486 48.263 9.772 48.263L40.491 48.263C44.777 48.263 48.263 44.776 48.263 40.491L48.263 9.772C48.263 5.486 44.777 2 40.491 2L9.772 2ZM25.9451 12.793C25.7201 12.569 25.4251 12.459 25.1311 12.462C24.8371 12.459 24.5431 12.569 24.3171 12.793L15.0201 22.091C14.5761 22.535 14.5771 23.254 15.0201 23.698C15.4631 24.141 16.1831 24.142 16.6271 23.698L23.9951 16.33L23.9951 36.664C23.9951 37.292 24.5031 37.8 25.1311 37.8C25.7581 37.8 26.2671 37.292 26.2671 36.664L26.2671 16.33L33.6351 23.698C34.0801 24.142 34.7981 24.141 35.2431 23.698C35.6861 23.254 35.6871 22.535 35.2431 22.091L25.9451 12.793Z" id="Fill-1" fill="#FFFFFF" fill-rule="evenodd" stroke="none" />
</svg>