<?xml version="1.0" encoding="utf-8"?>
<svg width="30px" height="30px" viewBox="0 0 30 30" version="1.1" xmlns:xlink="http://www.w3.org/1999/xlink" xmlns="http://www.w3.org/2000/svg">
  <desc>Created with Lunacy</desc>
  <path d="M25.4719 0L4.52693 0C2.02598 0 0 2.02712 0 4.52693L0 25.4719C0 27.9729 2.02598 30 4.52693 30L25.4719 30C27.9717 30 29.9989 27.9729 29.9989 25.4719L29.9989 4.52693C29.9989 2.02712 27.9717 0 25.4719 0ZM27.7272 4.52684C27.7272 3.28375 26.7159 2.27246 25.4728 2.27246L4.52781 2.27246C3.28359 2.27246 2.27344 3.28375 2.27344 4.52684L2.27344 25.4718C2.27344 26.7149 3.28359 27.7274 4.52781 27.7274L25.4728 27.7274C26.7159 27.7274 27.7272 26.7149 27.7272 25.4718L27.7272 4.52684ZM21.5732 8.56982C22.2016 8.56982 22.7095 9.07774 22.7095 9.7061C22.7095 10.3333 22.2016 10.8424 21.5732 10.8424L8.42534 10.8424C7.79698 10.8424 7.28906 10.3333 7.28906 9.7061C7.28906 9.07774 7.79698 8.56982 8.42534 8.56982L21.5732 8.56982ZM22.7095 15C22.7095 14.3728 22.2016 13.8638 21.5732 13.8638L8.42534 13.8638C7.79698 13.8638 7.28906 14.3728 7.28906 15C7.28906 15.6273 7.79698 16.1363 8.42534 16.1363L21.5732 16.1363C22.2016 16.1363 22.7095 15.6273 22.7095 15ZM22.7095 20.294C22.7095 19.6668 22.2016 19.1577 21.5732 19.1577L8.42534 19.1577C7.79698 19.1577 7.28906 19.6668 7.28906 20.294C7.28906 20.9212 7.79698 21.4303 8.42534 21.4303L21.5732 21.4303C22.2016 21.4303 22.7095 20.9212 22.7095 20.294Z" id="List-Icon" fill="#020303" fill-rule="evenodd" stroke="none" />
</svg>