<?xml version="1.0" encoding="utf-8"?>
<svg width="24px" height="34px" viewBox="0 0 24 34" version="1.1" xmlns:xlink="http://www.w3.org/1999/xlink" xmlns="http://www.w3.org/2000/svg">
  <desc>Created with Lunacy</desc>
  <path d="M0 11.6434C0 5.2236 5.22164 0 11.6405 0C18.0613 0 23.2839 5.2236 23.2839 11.6434L23.2839 22.3575C23.2839 28.7774 18.0613 34 11.6405 34C5.22164 34 0 28.7774 0 22.3575L0 11.6434ZM21.126 22.3575C21.126 27.587 16.871 31.8421 11.6405 31.8421C6.41198 31.8421 2.15794 27.587 2.15794 22.3575L2.15794 11.6434C2.15794 6.41395 6.41198 2.15892 11.6405 2.15892C16.871 2.15892 21.126 6.41395 21.126 11.6434L21.126 22.3575ZM12.6316 22.2231L12.6316 25.0434C12.6316 25.6381 12.1478 26.1229 11.5522 26.1229C10.9575 26.1229 10.4737 25.6381 10.4737 25.0434L10.4737 22.2231C10.4737 21.6284 10.9575 21.1436 11.5522 21.1436C12.1478 21.1436 12.6316 21.6284 12.6316 22.2231Z" transform="matrix(-1 0 0 -1 23.28394 34)" id="Scroll-Icon" fill="#000000" fill-rule="evenodd" stroke="none" />
</svg>