<?xml version="1.0" encoding="utf-8"?>
<svg width="27px" height="27px" viewBox="0 0 27 27" version="1.1" xmlns:xlink="http://www.w3.org/1999/xlink" xmlns="http://www.w3.org/2000/svg">
  <desc>Created with Lunacy</desc>
  <path d="M22.071 20.0139L21.782 20.3769L26.148 24.7429C26.527 25.1219 26.527 25.7389 26.148 26.1179C25.768 26.4969 25.15 26.4959 24.774 26.1169L20.408 21.7509L20.043 22.0399C17.852 23.7829 15.207 24.7049 12.394 24.7049C9.083 24.7049 5.979 23.4259 3.652 21.0979C1.297 18.7919 0 15.6899 0 12.3639C0 9.05188 1.28 5.94887 3.604 3.62488C8.435 -1.20812 16.298 -1.20812 21.132 3.62387C23.456 5.94788 24.735 9.05188 24.735 12.3639C24.735 15.1759 23.813 17.8219 22.071 20.0139ZM12.3411 22.7089C15.1221 22.7089 17.7021 21.6299 19.6031 19.6759C21.5581 17.7199 22.6351 15.1229 22.6351 12.3639C22.6351 9.60287 21.5581 7.00587 19.6031 5.05087C15.5871 1.03287 9.04709 1.03087 5.02809 5.05087C3.07309 7.00587 1.99609 9.60287 1.99609 12.3639C1.99609 15.1229 3.07309 17.7199 5.02809 19.6759C6.98409 21.6329 9.58209 22.7089 12.3411 22.7089Z" id="Search-Icon" fill="#FFFFFF" fill-rule="evenodd" stroke="none" />
</svg>