<?xml version="1.0" encoding="utf-8"?>
<svg width="1028px" height="594px" viewBox="0 0 1028 594" version="1.1" xmlns:xlink="http://www.w3.org/1999/xlink" xmlns="http://www.w3.org/2000/svg">
  <desc>Created with Lunacy</desc>
  <g id="Group">
    <path d="M0 58.5724L0 55.4897L16.4191 47.269L16.4191 45.2138L12.3143 44.1862L12.3143 40.0759L16.4191 29.8L23.6025 29.8L37.9692 25.6897L41.0478 14.3862L57.4669 6.16552L69.7812 6.16552L89.2789 0L93.3837 0L108.777 9.24828L131.353 14.3862L154.955 13.3586L169.322 24.6621L174.453 25.6897L180.61 22.6069L185.741 22.6069L205.239 30.8276L217.553 26.7172L217.553 24.6621L215.501 19.5241L220.632 15.4138L223.71 15.4138L224.736 16.4414L225.763 23.6345L237.051 26.7172L237.051 23.6345L240.129 23.6345L243.208 26.7172L243.208 29.8L237.051 35.9655L220.632 36.9931L209.344 44.1862L193.951 48.2966L188.82 55.4897L183.689 64.7379L182.663 71.931L189.846 76.0414L196.003 82.2069L201.134 83.2345L201.134 87.3448L198.055 93.5103L198.055 98.6483L204.213 97.6207L212.422 84.2621L220.632 79.1241L221.658 71.931L233.972 54.4621L245.26 53.4345L250.391 62.6828L250.391 65.7655L249.365 68.8483L256.549 69.8759L261.679 62.6828L263.732 62.6828L265.784 77.069L272.968 93.5103L272.968 97.6207L270.915 101.731L255.522 108.924L249.365 109.952L248.339 107.897L236.025 107.897L219.606 118.172L219.606 120.228L221.658 120.228L231.92 114.062L241.156 114.062L241.156 116.117L238.077 119.2L238.077 124.338L245.26 127.421L244.234 131.531L234.998 133.586L231.92 135.641L231.92 137.697L229.867 136.669L229.867 134.614L233.972 132.559L233.972 128.448L225.763 130.503L214.475 136.669L210.37 143.862L201.134 144.89L192.924 157.221L189.846 161.331L186.767 162.359L187.794 156.193L185.741 156.193L181.636 169.552L169.322 178.8L161.112 188.048L160.086 197.297L158.034 209.628L157.008 213.738L154.955 213.738L151.877 206.545L151.877 193.186L146.746 191.131L139.562 191.131L133.405 192.159L133.405 196.269L128.274 197.297L122.117 194.214L111.855 194.214L101.593 203.462L95.436 215.793L93.3837 229.152L96.4622 237.372L99.5408 242.51L110.829 242.51L115.96 234.29L129.3 232.234L129.3 236.345L120.065 252.786L119.039 255.869L136.484 256.897L134.431 272.31L134.431 279.503L137.51 281.559L139.562 285.669L143.667 287.724L147.772 285.669L150.851 284.641L152.903 285.669L154.955 287.724L155.981 289.779L159.06 289.779L162.139 279.503L167.27 277.448L173.427 274.366L177.532 271.283L179.584 272.31L179.584 274.366L176.505 276.421L176.505 279.503L175.479 280.531L174.453 284.641L176.505 286.697L180.61 285.669L180.61 278.476L182.663 273.338L185.741 273.338L193.951 280.531L201.134 281.559L205.239 280.531L208.317 279.503L210.37 280.531L213.448 285.669L218.579 289.779L221.658 293.89L227.815 300.055L241.156 302.11L245.26 307.248L249.365 312.386L251.418 319.579L250.391 324.717L248.339 327.8L246.287 330.883L246.287 332.938L248.339 332.938L248.339 330.883L253.47 328.828L254.496 327.8L258.601 327.8L258.601 328.828L258.601 330.883L257.575 332.938L255.522 333.966L253.47 333.966L253.47 334.993L253.47 337.048L257.575 337.048L260.653 333.966L261.679 329.855L264.758 329.855L267.837 332.938L271.941 334.993L282.203 340.131L290.413 340.131L301.701 347.324L305.806 347.324L308.884 362.738L294.518 381.234L296.57 390.483L296.57 399.731L292.465 414.117L289.387 424.393L278.099 428.503L267.837 434.669L266.81 450.083L262.706 461.386L258.601 471.662L254.496 477.828L251.418 477.828L243.208 473.717L239.103 472.69L248.339 483.993L245.26 490.159L242.182 494.269L236.025 494.269L232.946 496.324L232.946 498.379L233.972 499.407L232.946 503.517L227.815 505.572L227.815 505.572L227.815 508.655L230.894 512.766L229.867 519.959L225.763 527.152L233.972 532.29L233.972 536.4L231.92 539.483L231.92 547.703L233.972 553.869L230.894 557.979L230.894 561.062L228.841 561.062L223.71 557.979L222.684 553.869L219.606 552.841L208.317 533.317L206.265 532.29L204.213 531.262L204.213 529.207L207.291 527.152L207.291 523.041L203.186 509.683L196.003 505.572L194.977 501.462L194.977 496.324L192.924 492.214L193.951 482.966L194.977 481.938L194.977 469.607L191.898 465.497L191.898 452.138L190.872 445.972L189.846 439.807L188.82 431.586L188.82 424.393L187.794 418.228L185.741 411.034L184.715 407.952L176.505 401.786L172.401 397.676L163.165 388.428L159.06 381.234L154.955 376.097L150.851 367.876L149.824 364.793L147.772 358.628L140.589 354.517L140.589 345.269L144.693 341.159L144.693 339.103L141.615 339.103L141.615 332.938L143.667 322.662L152.903 313.414L152.903 300.055L152.903 294.917L151.877 290.807L149.824 289.779L148.798 289.779L146.746 290.807L145.72 294.917L141.615 294.917L135.458 288.752L128.274 284.641L126.222 281.559L125.196 276.421L123.143 272.31L121.091 268.2L115.96 268.2L109.803 263.062L106.724 261.007L103.646 258.952L100.567 254.841L98.5146 252.786L96.4622 254.841L92.3575 256.897L79.0169 248.676L71.8336 244.566L65.6764 239.428L62.5978 235.317L63.624 231.207L63.624 220.931L57.4669 208.6L53.3621 198.324L51.3097 190.103L51.3097 178.8L51.3097 172.634L49.2573 172.634L48.2311 176.745L46.1787 184.966L45.1525 190.103L47.2049 195.241L50.2835 206.545L53.3621 217.848L53.3621 219.903L50.2835 219.903L48.2311 213.738L45.1525 208.6L42.074 201.407L41.0478 197.297L43.1002 191.131L42.074 187.021L41.0478 180.855L40.0216 176.745L40.0216 170.579L33.8644 165.441L33.8644 157.221L35.9168 147.972L38.9954 137.697L49.2573 120.228L55.4145 108.924L60.5454 102.759L64.6502 102.759L64.6502 104.814L66.7026 105.841L66.7026 101.731L67.7288 93.5103L65.6764 88.3724L66.7026 82.2069L69.7812 70.9035L73.886 61.6552L74.9122 56.5172L74.9122 54.4621L73.886 54.4621L70.8074 55.4897L68.755 55.4897L67.7288 53.4345L66.7026 51.3793L65.6764 48.2966L61.5716 47.269L56.4407 44.1862L54.3883 42.131L52.3359 42.131L50.2835 44.1862L46.1787 46.2414L44.1263 47.269L41.0478 47.269L37.9692 47.269L36.943 46.2414L38.9954 44.1862L42.074 43.1586L44.1263 41.1035L47.2049 39.0483L47.2049 36.9931L45.1525 36.9931L38.9954 40.0759L15.3929 52.4069L6.15716 57.5448L2.05239 58.5724L0 58.5724Z" transform="translate(13.33984 32.88281)" id="Path" fill="#000000" stroke="none" />
    <path d="M1.02619 7.1931L1.02619 4.11035L5.13097 3.08276L8.20955 4.11035L9.23575 6.16552L6.15716 7.1931L1.02619 7.1931Z" transform="translate(0 86.31726)" id="Path" fill="#000000" stroke="none" />
    <path d="M1.53929 4.11035L1.53929 0L5.64407 0L6.67026 3.08276L8.72265 6.16552L8.72265 11.3035L7.69646 11.3035L4.61787 8.22069L4.61787 4.11035L1.53929 4.11035Z" transform="translate(70.29492 122.2827)" id="Path" fill="#000000" stroke="none" />
    <path d="M18.4715 24.6621L20.5239 24.6621L23.6025 19.5241L25.6548 18.4966L27.7072 20.5517L28.7334 20.5517L28.7334 17.469L25.6548 12.331L20.5239 11.3035L19.4977 9.24828L18.4715 4.11035L14.3667 0L8.20955 1.02759L0 5.13793L0 7.1931L3.07858 8.22069L8.20955 7.1931L12.3143 9.24828L16.4191 10.2759L17.4453 13.3586L8.20955 14.3862L5.13097 16.4414L3.07858 21.5793L0 27.7448L1.02619 30.8276L6.15716 26.7172L7.18336 21.5793L11.2881 17.469L14.3667 16.4414L18.4715 18.4966L18.4715 24.6621Z" transform="translate(171.375 141.8069)" id="Path" fill="#000000" stroke="none" />
    <path d="M0 9.76207L0 7.7069L6.15716 6.67931L10.2619 5.65173L15.3929 3.59655L21.5501 2.56897L24.6286 0.513793L27.7072 0.513793L27.7072 2.56897L23.6025 4.62414L15.3929 5.65173L13.3405 7.7069L5.13097 9.76207L0 9.76207Z" transform="translate(183.6875 164.9276)" id="Path" fill="#000000" stroke="none" />
    <path d="M0 10.2759L12.3143 1.02759L15.3929 0L16.4191 2.05517L14.3667 7.19311L16.4191 10.2759L17.4453 16.4414L16.4191 21.5793L11.2881 18.4966L7.18335 16.4414L2.05239 16.4414L0 12.331L0 10.2759Z" transform="translate(270.9141 136.6689)" id="Path" fill="#000000" stroke="none" />
    <path d="M54.3883 2.05517L54.3883 4.11034L45.1525 10.2759L35.9168 10.2759L25.6548 14.3862L15.3929 24.6621L10.2619 25.6897L3.07858 25.6897L0 22.6069L0 20.5517L5.13097 15.4138L13.3405 11.3034L21.5501 9.24828L21.5501 7.1931L15.3929 6.16552L6.15716 7.1931L1.02619 6.16552L1.02619 4.11034L8.20955 2.05517L15.3929 0L24.6287 0L29.7596 3.08276L35.9168 3.08276L43.1001 3.08276L51.3097 2.05517L54.3883 2.05517Z" transform="translate(283.2285 2.055176)" id="Path" fill="#000000" stroke="none" />
    <path d="M2.05239 9.24828L0 7.1931L0 5.13793L7.18336 0L11.2881 0L12.3143 1.02759L12.3143 6.16552L14.3667 7.1931L14.3667 10.2759L12.3143 10.2759L10.2619 7.1931L7.18336 7.1931L5.13097 8.22069L5.13097 10.2759L2.05239 9.24828Z" transform="translate(229.8672 71.93103)" id="Path" fill="#000000" stroke="none" />
    <path d="M2.05239 14.3862L9.23575 14.3862L14.3667 9.24827L25.6548 6.16552L25.6548 4.11034L18.4715 0L12.3143 2.05517L6.15716 8.22069L0 12.331L2.05239 14.3862Z" transform="translate(173.4258 27.74487)" id="Path" fill="#000000" stroke="none" />
    <path d="M0 5.13793L0 10.2759L12.3143 10.2759L17.4453 9.24828L20.5239 5.13793L19.4977 1.02759L16.4191 0L13.3405 5.13793L12.3143 5.13793L11.2881 4.11035L8.20955 1.02759L5.13097 2.05517L0 5.13793Z" transform="translate(209.3438 22.60693)" id="Path" fill="#000000" stroke="none" />
    <path d="M7.18336 8.22069L7.18336 6.16552L15.3929 1.02759L21.5501 0L29.7596 4.11034L34.8906 5.13793L34.8906 8.22069L31.812 11.3034L32.8382 12.331L33.8644 15.4138L32.8382 15.4138L28.7334 16.4414L25.6548 18.4966L22.5763 17.469L19.4977 16.4414L12.3143 16.4414L4.10478 16.4414L0 13.3586L0 11.3034L7.18336 10.2759L11.2881 11.3034L11.2881 9.24828L8.20955 8.22069" transform="translate(180.6094 36.99316)" id="Path" fill="#000000" stroke="none" />
    <path d="M0 4.11035L7.18336 0L14.3667 2.05517L14.3667 5.13793L12.3143 8.22069L8.20955 12.331L3.07858 12.331L0 9.24828L0 4.11035Z" transform="translate(223.7109 34.93799)" id="Path" fill="#000000" stroke="none" />
    <path d="M0 5.13793L0 9.24828L3.07858 9.24828L8.20955 7.1931L13.3405 4.11035L13.3405 1.02759L7.18335 1.02759L3.07858 2.05517L0 5.13793Z" transform="translate(240.1289 35.96558)" id="Path" fill="#000000" stroke="none" />
    <path d="M1.02619 3.08276L2.05239 9.24827L4.10477 9.24827L9.23574 6.16552L9.23574 3.08276L7.18335 1.02759L4.10477 1.02759L1.02619 1.02759L1.02619 3.08276Z" transform="translate(239.1035 24.66211)" id="Path" fill="#000000" stroke="none" />
    <path d="M0 1.02759L2.05239 7.1931L11.2881 10.2759L27.7072 10.2759L26.6811 6.16552L10.2619 6.16552L5.13097 0L0 1.02759Z" transform="translate(255.5215 25.6897)" id="Path" fill="#000000" stroke="none" />
    <path d="M1.02619 12.331L0 7.1931L10.2619 0L16.4191 0L20.5239 0L20.5239 2.05517L20.5239 3.08276L22.5763 6.16552L30.7858 5.13793L33.8644 8.22069L40.0216 12.331L44.1264 16.4414L43.1002 19.5241L41.0478 22.6069L41.0478 23.6345L51.3097 29.8L50.2835 32.8828L40.0216 39.0483L36.943 36.9931L34.8906 33.9103L32.8382 33.9103L32.8382 40.0759L27.7072 50.3517L25.6549 51.3793L21.5501 48.2965L13.3405 40.0759L3.07858 40.0759L1.02619 38.0207L6.15716 33.9103L9.23575 33.9103L14.3667 33.9103L24.6287 22.6069L27.7072 19.5241L26.681 16.4414L16.4191 15.4138L7.18336 14.3862L1.02619 12.331Z" transform="translate(250.3906 39.04822)" id="Path" fill="#000000" stroke="none" />
    <path d="M0 4.11034L0 3.08276L4.10478 0L18.4715 1.02759L34.8906 12.331L34.8906 14.3862L34.8906 15.4138L22.5763 15.4138L23.6025 12.331L21.5501 11.3034L18.4715 8.22069L15.3929 4.11034L0 4.11034Z" transform="translate(151.877 256.8965)" id="Path" fill="#000000" stroke="none" />
    <path d="M2.05239 3.59655L8.20956 3.59655L7.18336 6.6793L4.10478 6.6793L2.05239 5.65172L2.05239 3.59655Z" transform="translate(168.2949 273.8517)" id="Path" fill="#000000" stroke="none" />
    <path d="M0 6.6793L0 7.70689L5.13097 7.70689L10.2619 8.73447L11.2881 9.76206L15.3929 7.70689L22.5763 6.6793L22.5763 4.62413L18.4715 4.62413L14.3667 0.513792L8.20955 1.54138L6.15716 1.54138L6.15716 5.65172L1.02619 5.65172" transform="translate(183.6875 271.7965)" id="Path" fill="#000000" stroke="none" />
    <path d="M3.59168 3.59655L6.67027 3.59655L8.72266 5.65172L3.59168 6.6793L1.53929 5.65172L3.59168 3.59655Z" transform="translate(208.8301 274.8793)" id="Path" fill="#000000" stroke="none" />
    <path d="M2.56548 2.56896L4.61787 7.70689L7.69645 6.6793L7.69645 3.59655L5.64406 2.56896L2.56548 2.56896" transform="translate(223.1973 283.1)" id="Path" fill="#000000" stroke="none" />
    <path d="M3.59168 1.54138L5.64406 1.54138L6.67026 8.73447L3.59168 8.73447L3.59168 5.65172L3.59168 1.54138Z" transform="translate(224.2227 290.2931)" id="Path" fill="#000000" stroke="none" />
    <path d="M72.8598 0L100.567 1.02759L100.567 3.08276L97.4884 4.11034L92.3575 6.16552L92.3575 7.1931L95.436 9.24828L99.5408 11.3034L103.646 13.3586L107.75 12.331L111.855 10.2759L119.038 10.2759L124.169 11.3034L124.169 13.3586L121.091 14.3862L113.908 17.469L111.855 19.5241L104.672 23.6345L97.4884 29.8L97.4884 34.9379L103.646 39.0483L103.646 40.0759L99.5408 46.2414L96.4622 49.3241L93.3837 49.3241L91.3313 48.2966L88.2527 49.3241L88.2527 52.4069L92.3575 56.5172L92.3575 58.5724L88.2527 58.5724L86.2003 56.5172L84.1479 56.5172L84.1479 59.6L89.2789 61.6552L92.3575 61.6552L91.3313 65.7655L82.0955 65.7655L68.755 67.8207L54.3883 73.9862L42.074 78.0965L24.6287 99.6759L20.5239 101.731L15.3929 96.5931L9.23575 92.4828L9.23575 77.069L17.4453 65.7655L23.6025 55.4897L19.4977 47.269L17.4453 35.9655L10.2619 30.8276L5.13097 30.8276L1.02619 30.8276L0 25.6897L4.10478 22.6069L6.15716 23.6345L12.3143 23.6345L14.3667 21.5793L14.3667 17.469L46.1787 4.11034L51.3097 4.11034L56.4407 7.1931L68.755 6.16552L72.8598 0Z" transform="translate(314.0156 0)" id="Path" fill="#000000" stroke="none" />
    <path d="M0 3.08276L3.07858 0L5.13097 0L8.20955 4.11034L10.2619 4.11034L14.3667 2.05517L21.5501 1.02759L24.6287 4.11034L23.6025 9.24828L17.4453 13.3586L8.20955 12.331L3.07858 11.3034L3.07858 8.22069L1.02619 7.1931L0 3.08276Z" transform="translate(396.1113 75.01379)" id="Path" fill="#000000" stroke="none" />
    <path d="M0 16.4414L2.05239 12.331L0 11.3035L2.05239 8.22069L5.13097 2.05517L10.2619 0L13.3405 0L16.4191 1.02759L13.3405 6.16552L11.2881 11.3035L7.18336 16.4414L5.13097 16.4414L4.10477 15.4138L2.05239 16.4414L0 16.4414Z" transform="translate(422.791 124.3379)" id="Path" fill="#000000" stroke="none" />
    <path d="M12.3143 0L12.3143 1.02759L10.2619 3.08276L13.3405 4.11034L15.3929 7.1931L12.3143 9.24828L12.3143 11.3034L14.3667 15.4138L16.4191 20.5517L19.4977 25.6897L23.6024 25.6897L23.6024 28.7724L20.5239 32.8828L14.3667 33.9103L6.15716 35.9655L0 36.9931L1.02619 34.9379L5.13097 32.8828L5.13097 30.8276L4.10477 29.8L6.15716 24.6621L10.2619 21.5793L10.2619 17.469L7.18335 16.4414L3.07858 11.3034L3.07858 5.13793L6.15716 0L12.3143 0Z" transform="translate(436.1328 108.9241)" id="Path" fill="#000000" stroke="none" />
    <path d="M34.8906 172.634L34.8906 152.083L34.8906 146.945L40.0216 145.917L46.1787 145.917L53.3621 147.972L56.4407 147.972L60.5454 145.917L59.5193 142.834L61.5716 139.752L60.5454 133.586L56.4407 130.503L52.3359 128.448L51.3097 127.421L51.3097 124.338L57.4669 124.338L58.4931 121.255L57.4669 120.228L60.5454 119.2L61.5716 122.283L65.6764 122.283L72.8598 114.062L75.9384 113.034L77.9907 109.952L80.0431 108.924L81.0693 112.007L82.0955 110.979L82.0955 104.814L86.2003 103.786L91.3313 102.759L92.3575 98.6483L92.3575 91.4552L91.3313 88.3724L94.4099 86.3172L97.4884 85.2896L98.5146 88.3724L98.5146 93.5103L96.4622 95.5655L96.4622 98.6483L99.5408 99.6759L104.672 100.703L107.75 100.703L112.881 98.6483L115.96 98.6483L121.091 98.6483L124.169 99.6759L126.222 98.6483L127.248 93.5103L129.3 88.3724L131.353 86.3172L133.405 86.3172L134.431 87.3448L137.51 86.3172L137.51 83.2345L136.484 79.1241L143.667 78.0965L146.746 78.0965L150.851 76.0414L148.798 73.9862L147.772 72.9586L144.693 73.9862L141.615 75.0138L137.51 76.0414L133.405 76.0414L128.274 65.7655L128.274 62.6828L132.379 58.5724L135.458 55.4897L135.458 50.3517L134.431 50.3517L131.353 49.3241L128.274 52.4069L124.169 56.5172L124.169 59.6L120.065 61.6552L116.986 68.8483L119.039 73.9862L119.039 77.069L115.96 82.2069L113.908 87.3448L113.908 90.4276L111.855 92.4828L109.803 93.5103L108.777 95.5655L104.672 95.5655L104.672 91.4552L102.619 88.3724L100.567 86.3172L100.567 81.1793L99.5408 82.2069L99.5408 79.1241L95.436 81.1793L94.4099 81.1793L92.3575 83.2345L88.2527 83.2345L86.2003 80.1517L86.2003 69.8759L91.3313 65.7655L95.436 61.6552L104.672 52.4069L111.855 46.2414L121.091 36.9931L135.458 27.7448L142.641 27.7448L148.798 29.8L151.877 31.8552L162.139 35.9655L171.374 42.131L173.427 42.131L175.479 44.1862L176.505 45.2138L176.505 48.2966L175.479 50.3517L171.374 50.3517L166.243 48.2966L162.139 47.269L158.034 45.2138L158.034 49.3241L160.086 51.3793L164.191 53.4345L169.322 58.5724L172.401 58.5724L179.584 52.4069L181.636 51.3793L184.715 48.2966L185.741 50.3517L188.82 50.3517L188.82 46.2414L186.767 45.2138L186.767 42.131L184.715 41.1034L184.715 36.9931L186.767 36.9931L190.872 40.0759L190.872 44.1862L192.924 44.1862L199.082 42.131L207.291 39.0483L213.448 36.9931L222.684 34.9379L232.946 33.9103L238.077 36.9931L242.182 36.9931L242.182 33.9103L239.103 29.8L236.025 28.7724L236.025 25.6897L242.182 19.5241L243.208 18.4966L247.313 17.469L248.339 19.5241L248.339 23.6345L257.575 35.9655L257.575 41.1034L254.496 42.131L252.444 45.2138L257.575 45.2138L260.653 42.131L261.679 35.9655L265.784 35.9655L267.837 35.9655L267.837 33.9103L260.653 31.8552L255.522 27.7448L253.47 22.6069L264.758 15.4138L269.889 11.3034L276.046 6.16552L292.465 1.02759L298.622 0L324.277 0L328.382 1.02759L327.356 5.13793L322.225 12.331L324.277 13.3586L333.513 8.22069L344.801 8.22069L381.744 14.3862L385.849 15.4138L395.085 14.3862L396.111 10.2759L398.163 7.1931L404.32 8.22069L419.713 11.3034L434.08 11.3034L444.342 10.2759L455.63 14.3862L464.866 14.3862L476.154 9.24828L485.39 9.24828L507.966 11.3034L522.333 16.4414L531.568 18.4966L535.673 21.5793L535.673 23.6345L531.568 23.6345L527.464 22.6069L523.359 22.6069L521.307 22.6069L519.254 21.5793L517.202 22.6069L517.202 27.7448L523.359 29.8L528.49 31.8552L531.568 32.8828L530.542 35.9655L524.385 45.2138L524.385 47.269L516.176 48.2966L511.045 50.3517L514.123 54.4621L521.307 61.6552L527.464 71.931L530.542 82.2069L530.542 88.3724L528.49 88.3724L524.385 83.2345L518.228 77.069L508.992 68.8483L502.835 64.7379L502.835 59.6L505.914 55.4897L504.887 49.3241L501.809 44.1862L499.757 43.1586L497.704 46.2414L496.678 46.2414L494.626 45.2138L490.521 45.2138L490.521 50.3517L492.573 55.4897L488.468 58.5724L481.285 59.6L475.128 60.6276L467.944 60.6276L461.787 62.6828L460.761 64.7379L460.761 78.0965L465.892 83.2345L467.944 83.2345L468.971 82.2069L473.075 82.2069L477.18 85.2896L484.364 93.5103L488.468 101.731L491.547 109.952L493.599 120.228L494.626 130.503L484.364 133.586L483.337 141.807L482.311 149L486.416 155.166L491.547 163.386L492.573 165.441L492.573 168.524L489.495 170.579L486.416 172.634L485.39 169.552L482.311 163.386L479.233 158.248L475.128 155.166L468.971 149L467.944 149L463.84 153.11L460.761 152.083L460.761 147.972L461.787 145.917L457.683 145.917L451.525 152.083L451.525 155.166L455.63 159.276L463.84 159.276L467.944 161.331L466.918 163.386L464.866 164.414L464.866 169.552L473.075 181.883L477.18 190.103L474.102 191.131L477.18 193.186L479.233 196.269L479.233 210.655L475.128 215.793L464.866 226.069L455.63 232.234L452.552 237.372L450.499 237.372L448.447 234.29L446.394 232.234L442.29 234.29L438.185 244.566L439.211 248.676L447.421 255.869L453.578 263.062L454.604 275.393L451.525 280.531L448.447 284.641L444.342 287.724L443.316 290.807L440.237 290.807L440.237 287.724L438.185 284.641L436.132 282.586L432.028 279.503L432.028 275.393L428.949 274.366L425.871 272.31L424.844 270.255L420.74 270.255L422.792 280.531L422.792 288.752L425.871 295.945L429.975 302.11L434.08 308.276L437.159 314.441L439.211 318.552L438.185 321.634L435.106 321.634L432.028 318.552L429.975 318.552L423.818 305.193L420.74 300.055L415.609 294.917L415.609 280.531L414.582 271.283L411.504 263.062L408.425 253.814L406.373 254.841L403.294 257.924L400.216 258.952L397.137 257.924L398.163 249.703L392.006 241.483L387.901 238.4L387.901 235.317L386.875 230.179L382.77 230.179L378.666 235.317L375.587 234.29L374.561 232.234L371.482 234.29L367.377 241.483L362.246 248.676L358.142 253.814L351.985 263.062L348.906 276.421L347.88 284.641L344.801 295.945L342.749 295.945L339.67 294.917L336.592 285.669L331.461 277.448L324.277 259.979L321.199 247.648L320.173 235.317L317.094 235.317L316.068 241.483L314.015 242.51L310.937 240.455L304.78 234.29L302.727 231.207L301.701 227.097L296.57 222.986L272.968 222.986L268.863 221.959L263.732 219.903L263.732 215.793L261.679 213.738L256.548 214.766L254.496 216.821L248.339 216.821L245.26 213.738L239.103 207.572L234.998 203.462L230.894 203.462L228.841 206.545L228.841 208.6L233.972 212.71L236.025 216.821L238.077 217.848L239.103 220.931L241.156 220.931L244.234 219.903L245.26 221.959L245.26 227.097L248.339 227.097L253.47 228.124L255.522 225.041L257.575 220.931L261.679 220.931L261.679 226.069L262.706 229.152L265.784 230.179L269.889 231.207L271.941 232.234L272.968 234.29L268.863 245.593L263.732 252.786L258.601 257.924L254.496 259.979L248.339 264.09L243.208 269.228L238.077 272.31L224.736 275.393L220.632 276.421L216.527 270.255L214.475 267.172L212.422 254.841L203.186 241.483L187.794 217.848L184.715 207.572L182.663 209.628L181.636 208.6L180.61 207.572L177.532 207.572L177.532 211.683L180.61 217.848L187.794 231.207L193.951 241.483L193.951 248.676L202.16 256.897L204.213 265.117L206.265 266.145L211.396 272.31L217.553 278.476L216.527 285.669L220.632 286.697L227.815 284.641L240.129 280.531L246.287 279.503L246.287 282.586L234.998 310.331L225.763 323.69L213.448 336.021L204.213 347.324L204.213 360.683L208.317 387.4L208.317 394.593L200.108 402.814L191.898 410.007L184.715 416.172L186.767 425.421L186.767 434.669L177.532 440.834L177.532 443.917L171.374 456.248L162.139 467.552L154.955 472.69L147.772 473.717L137.51 475.772L133.405 479.883L130.327 478.855L129.3 476.8L124.169 473.717L123.143 463.441L113.908 447L111.855 432.614L110.829 425.421L103.646 408.979L103.646 392.538L110.829 379.179L107.75 360.683L101.593 348.352L92.3575 333.966L93.3837 325.745L96.4622 319.579L96.4622 314.441L91.3313 314.441L85.1741 314.441L79.0169 305.193L71.8336 305.193L57.4669 309.303L38.9954 315.469L31.812 314.441L15.3929 296.972L4.10478 282.586L0 274.366L0 265.117L3.07858 254.841L3.07858 244.566L4.10478 237.372L13.3405 217.848L18.4715 212.71L21.5501 212.71L28.7334 203.462L30.7858 196.269L31.812 193.186L37.9692 189.076L40.0216 185.993L44.1263 179.828L47.2049 179.828L50.2835 181.883L54.3883 181.883L65.6764 177.772L74.9122 175.717L80.0431 174.69L85.1741 172.634L92.3575 172.634L101.593 173.662L100.567 177.772L98.5146 183.938L99.5408 185.993L103.646 189.076L107.75 191.131L113.908 192.159L115.96 192.159L116.986 197.297L122.117 199.352L129.3 201.407L132.379 201.407L132.379 198.324L131.353 198.324L131.353 195.241L135.458 192.159L141.615 191.131L144.693 194.214L148.798 197.297L154.955 200.379L160.086 200.379L164.191 198.324L169.322 197.297L172.401 197.297L175.479 198.324L177.532 199.352L179.584 195.241L180.61 191.131L182.663 185.993L182.663 181.883L182.663 177.772L183.689 176.745L183.689 174.69L176.505 175.717L171.374 175.717L165.217 175.717L158.034 176.745L155.981 173.662L153.929 167.497L151.877 161.331L155.981 161.331L158.034 158.248L159.06 157.221L162.139 157.221L166.243 157.221L168.296 155.166L171.374 153.11L173.427 151.055L178.558 151.055L181.636 153.11L185.741 154.138L188.82 155.166L192.924 155.166L199.082 155.166L199.082 151.055L200.108 149L198.055 147.972L194.977 147.972L192.924 144.89L190.872 142.834L186.767 140.779L184.715 138.724L184.715 135.641L187.794 133.586L189.846 131.531L189.846 130.503L187.794 129.476L185.741 130.503L177.532 134.614L179.584 136.669L179.584 139.752L176.505 141.807L173.427 141.807L171.374 138.724L169.322 133.586L168.296 131.531L166.243 132.559L161.112 134.614L159.06 141.807L155.981 146.945L155.981 152.083L158.034 155.166L152.903 159.276L150.851 159.276L147.772 157.221L142.641 158.248L141.615 161.331L141.615 166.469L141.615 168.524L141.615 175.717L136.484 176.745L133.405 173.662L133.405 168.524L136.484 167.497L132.379 166.469L130.327 162.359L128.274 157.221L125.196 152.083L121.091 150.028L114.934 143.862L110.829 142.834L108.777 140.779L107.75 138.724L105.698 138.724L104.672 141.807L106.724 143.862L108.777 146.945L109.803 149L113.908 152.083L116.986 153.11L116.986 155.166L122.117 158.248L124.169 161.331L125.196 164.414L124.169 164.414L122.117 162.359L121.091 162.359L121.091 168.524L120.065 170.579L118.012 170.579L118.012 165.441L114.934 162.359L111.855 158.248L108.777 156.193L104.672 156.193L101.593 154.138L98.5146 147.972L96.4622 144.89L94.4099 142.834L91.3313 143.862L87.2265 149L83.1217 150.028L81.0693 147.972L76.9646 150.028L75.9384 153.11L65.6764 161.331L61.5716 170.579L57.4669 177.772L54.3883 177.772L51.3097 175.717L48.2311 176.745L44.1263 177.772L40.0216 175.717L36.943 174.69L34.8906 172.634Z" transform="translate(387.9004 27.74487)" id="Path" fill="#000000" stroke="none" />
    <path d="M6.15716 1.02759L3.07858 4.11035L4.10477 8.22069L4.10477 9.24828L6.15716 9.24828L7.18335 8.22069L7.18335 4.11035L6.15716 1.02759Z" transform="translate(476.1543 173.6621)" id="Path" fill="#000000" stroke="none" />
    <path d="M3.07858 3.08276L4.10477 2.05517L7.18335 1.02759L7.18335 2.05517L6.15716 5.13793L7.18335 6.16552L6.15716 9.24828L4.10477 9.24828L3.07858 8.22069L3.07858 5.13793L3.07858 3.08276Z" transform="translate(476.1543 183.938)" id="Path" fill="#000000" stroke="none" />
    <path d="M0 2.05517L0 4.11035L4.10478 6.16552L7.18337 8.22069L10.262 8.22069L11.2881 4.11035L9.23576 2.05517L6.15717 2.05517L0 2.05517Z" transform="translate(493.5996 195.2413)" id="Path" fill="#000000" stroke="none" />
    <path d="M0 5.13793L0 3.08276L4.10478 5.13793L10.262 4.11035L11.2881 6.16552L7.18337 7.1931L5.13098 6.16552L3.07859 5.13793L0 5.13793Z" transform="translate(529.5156 204.4896)" id="Path" fill="#000000" stroke="none" />
    <path d="M1.0262 6.16552L3.07859 3.08276L9.23577 2.05517L9.23577 4.11035L7.18337 6.16552L4.10479 8.22069L2.05239 8.22069L1.0262 6.16552Z" transform="translate(559.2754 204.4896)" id="Path" fill="#000000" stroke="none" />
    <path d="M2.05239 0L0 8.22069L8.20956 10.2759L10.262 11.3034L16.4191 11.3034L16.4191 9.24828L11.2882 8.22069L10.262 7.1931L9.23576 0L2.05239 0Z" transform="translate(586.9824 45.21375)" id="Path" fill="#000000" stroke="none" />
    <path d="M0 15.4138L6.15717 15.4138L9.23575 12.331L10.2619 12.331L13.3405 10.2759L17.4453 10.2759L23.6025 5.13793L23.6025 0L22.5763 0L15.3929 6.16552L12.3143 6.16552L7.18336 5.13793L5.13097 8.22069L3.07858 11.3034L1.02619 11.3034L0 15.4138Z" transform="translate(591.0879 27.74487)" id="Path" fill="#000000" stroke="none" />
    <path d="M0 2.05517L0 0L3.07858 0L5.13097 2.05517L8.20956 7.1931L12.3143 11.3035L14.3667 11.3035L20.5239 18.4966L23.6025 20.5517L23.6025 21.5793L22.5763 23.6345L24.6287 28.7724L27.7073 30.8276L29.7596 32.8828L29.7596 34.9379L27.7073 34.9379L27.7073 35.9655L25.6549 35.9655L23.6025 30.8276L20.5239 27.7448L17.4453 24.6621L12.3143 18.4966L7.18336 13.3586L3.07858 5.13793L0 2.05517Z" transform="translate(868.1602 107.8966)" id="Path" fill="#000000" stroke="none" />
    <path d="M0 3.08276L0 1.02759L3.07858 0L6.15717 1.02759L8.20956 1.02759L12.3143 1.02759L14.3667 2.05517L17.4453 5.13793L17.4453 8.22069L14.3667 10.2759L14.3667 12.331L11.2881 12.331L9.23575 11.3034L7.18336 11.3034L7.18336 15.4138L4.10478 15.4138L2.05239 12.331L1.02619 10.2759L2.05239 8.22069L3.07858 6.16552L2.05239 5.13793L0 3.08276Z" transform="translate(896.8926 147.9724)" id="Path" fill="#000000" stroke="none" />
    <path d="M12.3143 0L15.3929 0L19.4977 3.08276L22.5763 9.24828L25.6548 17.469L26.681 21.5793L25.6548 28.7724L21.5501 29.8L18.4715 26.7172L12.3143 26.7172L7.18335 29.8L7.18335 34.9379L4.10477 36.9931L0 35.9655L0 33.9103L3.07858 29.8L11.2881 23.6345L11.2881 18.4966L13.3405 18.4966L16.4191 19.5241L18.4715 14.3862L15.3929 11.3034L13.3405 5.13793L12.3143 0Z" transform="translate(890.7363 165.4414)" id="Path" fill="#000000" stroke="none" />
    <path d="M0 4.11035L3.07859 4.11035L3.07859 6.16552L4.10479 9.24828L6.15718 11.3035L8.20957 11.3035L10.262 8.22069L8.20957 5.13793L5.13098 0L2.05239 0L0 1.02759L0 3.08276" transform="translate(889.709 203.462)" id="Path" fill="#000000" stroke="none" />
    <path d="M0.513098 7.7069L4.61788 7.7069L6.67028 6.67931L9.74886 3.59655L7.69647 2.56897L3.59169 3.59655L1.53929 4.62414L0.513098 7.7069Z" transform="translate(899.459 191.6448)" id="Path" fill="#000000" stroke="none" />
    <path d="M5.64408 1.02759L7.69647 0L8.72267 1.02759L8.72267 9.24827L6.67028 13.3586L4.61788 16.4414L1.53929 16.4414L1.53929 14.3862L4.61788 11.3034L6.67028 7.1931L5.64408 1.02759Z" transform="translate(769.1328 113.0344)" id="Path" fill="#000000" stroke="none" />
    <path d="M18.4715 6.16552L16.4191 6.16552L16.4191 8.22069L14.3667 9.24828L12.3143 11.3034L12.3143 12.331L15.3929 14.3862L19.4977 20.5517L19.4977 26.7172L22.5763 29.8L25.6549 33.9103L26.6811 39.0483L28.7335 41.1034L28.7335 43.1586L25.6549 45.2138L22.5763 45.2138L15.3929 41.1034L11.2881 40.0759L11.2881 33.9103L13.3405 27.7448L8.20956 21.5793L0 13.3586L0 7.1931L6.15717 3.08276L13.3405 1.02759L16.4191 0L19.4977 0L20.5239 2.05517L20.5239 4.11034L18.4715 6.16552Z" transform="translate(603.4023 158.2483)" id="Path" fill="#000000" stroke="none" />
    <path d="M4.10479 0L9.23577 0L9.23577 1.02759L10.262 8.22069L8.20957 12.331L5.13098 13.3586L2.05239 13.3586L0 9.24828L1.0262 4.11035L3.07859 2.05517L4.10479 0Z" transform="translate(640.3438 157.2207)" id="Path" fill="#000000" stroke="none" />
    <path d="M2.05239 4.62414L0 5.65173L1.02619 7.7069L2.05239 7.7069L4.10477 9.76207L5.13097 9.76207L6.15716 7.7069L6.15716 5.65173L11.2881 5.65173L15.3929 4.62414L19.4977 3.59655L19.4977 1.54138L16.4191 1.54138L15.3929 2.56897L13.3405 2.56897L10.2619 1.54138L8.20955 0.513793L6.15716 0.513793L4.10477 2.56897L2.05239 4.62414Z" transform="translate(684.4707 153.6241)" id="Path" fill="#000000" stroke="none" />
    <path d="M1.0262 2.05517L6.15717 0L8.20956 0L11.2881 1.02759L11.2881 3.08276L9.23576 5.13793L7.18337 8.22069L7.18337 13.3586L4.10478 13.3586L0 10.2759L1.0262 2.05517Z" transform="translate(564.4063 356.5724)" id="Path" fill="#000000" stroke="none" />
    <path d="M2.56549 0L2.56549 9.24827L5.64408 15.4138L7.69647 15.4138L7.69647 11.3034L5.64408 6.16552L5.64408 2.05517L4.61788 0L2.56549 0Z" transform="translate(553.6309 377.1241)" id="Path" fill="#000000" stroke="none" />
    <path d="M3.07859 0L5.13098 0L5.13098 4.11035L6.15718 12.331L7.18337 19.5241L5.13098 18.4966L4.10479 16.4414L4.10479 11.3034L4.10479 5.13793L3.07859 0Z" transform="translate(567.4844 399.731)" id="Path" fill="#000000" stroke="none" />
    <path d="M4.10477 33.9103L5.13097 28.7724L3.07858 27.7448L5.13097 20.5517L11.2881 15.4138L14.3667 13.3586L17.4453 8.22069L24.6286 1.02759L26.681 0L26.681 6.16552L26.681 18.4966L19.4977 38.0207L14.3667 54.4621L7.18335 57.5448L3.07858 57.5448L0 50.3517L0 44.1862L4.10477 33.9103Z" transform="translate(602.375 408.9792)" id="Path" fill="#000000" stroke="none" />
    <path d="M2.56549 3.08275L2.56549 6.16551L5.64408 7.19309L7.69647 7.19309L7.69647 5.13792L5.64408 3.08275L2.56549 3.08275Z" transform="translate(642.9102 442.8896)" id="Path" fill="#000000" stroke="none" />
    <path d="M4.61788 3.08275L6.67028 3.08275L6.67028 6.16551L5.64408 7.19309L3.59169 7.19309L4.61788 3.08275Z" transform="translate(650.0938 438.7793)" id="Path" fill="#000000" stroke="none" />
    <path d="M3.07859 1.02759L6.15718 0L7.18337 5.13793L7.18337 8.22069L9.23577 15.4138L6.15718 15.4138L3.07859 12.331L1.0262 7.1931L3.07859 1.02759Z" transform="translate(870.2129 241.4828)" id="Path" fill="#000000" stroke="none" />
    <path d="M0 1.02759L5.13097 0L9.23574 5.13793L7.18335 11.3035L9.23574 18.4966L14.3667 20.5517L19.4977 24.6621L20.5239 26.7173L17.4453 26.7173L12.3143 22.6069L6.15716 22.6069L1.02619 15.4138L0 11.3035L2.05239 9.24828L1.02619 4.11035L0 1.02759Z" transform="translate(877.3965 271.2827)" id="Path" fill="#000000" stroke="none" />
    <path d="M3.07859 0L7.18337 6.16552L11.2881 10.2759L9.23576 15.4138L3.07859 17.469L0 12.331L1.0262 6.16552L2.05239 1.02759L3.07859 0Z" transform="translate(736.8066 315.469)" id="Path" fill="#000000" stroke="none" />
    <path d="M4.10477 0L16.4191 10.2759L27.7072 22.6069L35.9168 30.8276L40.0215 35.9655L38.9954 42.1311L38.9954 46.2414L34.8906 47.269L25.6548 39.0483L16.4191 23.6345L9.23574 13.3586L3.07858 5.13793L1.02619 5.13793L0 1.02759L4.10477 0Z" transform="translate(794.2734 333.9656)" id="Path" fill="#000000" stroke="none" />
    <path d="M0 5.13793L2.05239 2.05517L8.20956 0L12.3143 2.05517L21.5501 3.08276L27.7073 5.13793L33.8644 10.2759L34.8906 15.4138L30.7858 14.3862L27.7073 12.331L21.5501 12.331L16.4191 10.2759L7.18336 8.22069L4.10478 5.13793L0 5.13793Z" transform="translate(829.1641 382.2621)" id="Path" fill="#000000" stroke="none" />
    <path d="M8.20957 1.02758L7.18337 5.13792L4.10479 10.2758L2.05239 10.2758L2.05239 6.16551L4.10479 3.08275L5.13098 1.02758L7.18337 0" transform="translate(874.3164 306.2207)" id="Path" fill="#000000" stroke="none" />
    <path d="M3.59169 2.05517L7.69647 2.05517L7.69647 4.11034L5.64408 7.19309L2.56549 8.22068L2.56549 5.13792L3.59169 2.05517Z" transform="translate(887.1445 301.0828)" id="Path" fill="#000000" stroke="none" />
    <path d="M0 8.22069L2.05239 5.13793L4.10477 4.11034L5.13096 4.11034L7.18335 3.08276L8.20954 0L11.2881 0L12.3143 3.08276L14.3667 6.16551L9.23573 13.3586L5.13096 13.3586L5.13096 9.24827L4.10477 8.22069L1.02619 8.22069L0 8.22069Z" transform="translate(886.6309 311.3586)" id="Path" fill="#000000" stroke="none" />
    <path d="M28.7335 1.02759L30.7858 3.08276L32.8382 5.13793L34.8906 8.22069L30.7858 11.3034L29.7596 17.469L32.8382 20.5517L33.8644 25.6896L29.7596 29.8L26.6811 39.0483L22.5763 47.269L20.5239 48.2965L16.4191 48.2965L4.10478 43.1586L1.02619 34.9379L0 27.7448L0 23.6345L2.05239 23.6345L12.3143 16.4414L18.4715 9.24827L21.5501 4.11034L22.5763 0L28.7335 1.02759Z" transform="translate(846.6094 326.7725)" id="Path" fill="#000000" stroke="none" />
    <path d="M6.67028 0L7.69647 3.08276L7.69647 9.24827L6.67028 12.331L4.61788 12.331L2.56549 9.24827L2.56549 6.16551L3.59169 2.05517L5.64408 0L6.67028 0Z" transform="translate(909.7207 346.2965)" id="Path" fill="#000000" stroke="none" />
    <path d="M20.5239 0L22.5763 0L22.5763 1.02759L20.5239 3.08276L16.4191 4.11034L7.18337 4.11034L6.15717 12.331L10.262 9.24827L14.3667 7.1931L17.4453 8.22069L17.4453 10.2759L15.3929 10.2759L10.262 13.3586L10.262 16.4414L13.3405 21.5793L14.3667 24.6621L12.3143 27.7448L8.20956 28.7724L8.20956 25.6896L7.18337 18.4965L5.13098 18.4965L4.10478 22.6069L5.13098 29.8L5.13098 30.8276L1.0262 30.8276L1.0262 24.6621L0 20.5517L0 13.3586L3.07859 3.08276L5.13098 0L10.262 0L11.2881 2.05517L16.4191 2.05517L20.5239 0Z" transform="translate(881.5 351.4344)" id="Path" fill="#000000" stroke="none" />
    <path d="M0 7.19309L2.05239 5.13792L4.10479 3.08275L10.262 3.08275L10.262 5.13792L8.20957 7.19309L0 7.19309Z" transform="translate(868.1602 390.4828)" id="Path" fill="#000000" stroke="none" />
    <path d="M0 5.13792L0 7.19309L2.05239 8.22068L7.18336 8.22068L12.3143 5.13792L12.3143 2.05517L10.2619 2.05517L7.18336 4.11034L0 5.13792Z" transform="translate(882.5273 390.4828)" id="Path" fill="#000000" stroke="none" />
    <path d="M0 6.16551L0 9.24826L3.07858 9.24826L6.15716 7.19309L12.3143 4.11034L13.3405 3.08275L13.3405 1.02758L11.2881 1.02758L6.15716 3.08275L3.07858 3.08275L3.07858 5.13792L0 6.16551Z" transform="translate(895.8672 394.5931)" id="Path" fill="#000000" stroke="none" />
    <path d="M1.0262 3.08275L5.13098 3.08275L9.23577 5.13792L9.23577 7.19309L4.10479 7.19309L1.0262 6.16551L1.0262 3.08275Z" transform="translate(914.3379 366.8483)" id="Path" fill="#000000" stroke="none" />
    <path d="M0 2.05517L4.10477 11.3034L9.23574 12.331L16.4191 17.469L22.5763 21.5793L23.6025 24.6621L23.6025 31.8552L29.7596 36.9931L35.9168 38.0207L40.0216 40.0758L45.1525 33.9103L47.2049 32.8827L52.3359 39.0483L54.3883 44.1862L59.5192 46.2414L64.6502 46.2414L65.6764 43.1586L60.5454 35.9655L57.4668 31.8552L56.4407 28.7724L57.4668 25.6896L49.2573 18.4965L41.0477 13.3586L35.9168 11.3034L29.7596 8.22069L21.5501 6.16552L16.4191 10.2759L12.3143 10.2759L12.3143 7.1931L12.3143 4.11034L11.2881 2.05517L7.18336 1.02759L5.13097 0L3.07858 0L0 2.05517Z" transform="translate(925.627 360.6827)" id="Path" fill="#000000" stroke="none" />
    <path d="M0 11.3034L10.2619 11.3034L13.3405 7.1931L13.3405 0L11.2881 1.02759L10.2619 3.08276L9.23574 6.16551L9.23574 7.1931L8.20955 7.1931L6.15716 6.16551L4.10477 6.16551L4.10477 7.1931L2.05239 8.22068L0 9.24827L0 11.3034Z" transform="translate(986.1719 376.0966)" id="Path" fill="#000000" stroke="none" />
    <path d="M124.169 0L126.222 0L127.248 18.4966L128.274 34.9379L136.484 53.4345L140.589 76.0414L134.431 89.4L122.117 109.952L105.698 126.393L102.619 128.448L97.4884 129.476L93.3836 132.559L90.3051 134.614L87.2265 133.586L87.2265 131.531L83.1217 131.531L81.0693 134.614L77.9907 132.559L73.886 126.393L72.8598 119.2L70.8074 113.035L75.9383 107.897L75.9383 105.841L72.8598 105.841L67.7288 108.924L67.7288 112.007L64.6502 113.035L64.6502 107.897L64.6502 101.731L61.5716 98.6483L42.0739 98.6483L26.681 101.731L12.3143 107.897L7.18336 108.924L3.07858 109.952L0 104.814L5.13097 87.3449L8.20955 67.8207L9.23574 50.3517L23.6025 43.1586L36.943 41.1035L53.3621 25.6897L64.6502 16.4414L69.7812 15.4138L69.7812 19.5241L75.9383 19.5241L73.886 16.4414L73.886 13.3586L77.9907 12.331L84.1479 5.13793L86.2003 2.05517L90.3051 2.05517L92.3575 4.11035L99.5408 5.13793L100.567 8.22069L96.4622 18.4966L97.4884 22.6069L99.5408 25.6897L106.724 32.8828L110.829 31.8552L116.986 20.5517L119.038 11.3035L121.091 4.11035L124.169 0Z" transform="translate(838.4004 406.9241)" id="Path" fill="#000000" stroke="none" />
    <path d="M4.10478 1.02759L6.15717 0L8.20956 2.05518L11.2882 1.02759L14.3667 1.02759L15.3929 1.02759L16.4191 5.13794L11.2882 8.2207L10.262 10.2759L7.18337 13.3586L4.10478 13.3586L0 13.3586L0 8.2207L2.05239 3.08276L2.05239 0L4.10478 1.02759Z" transform="translate(912.2852 548.731)" id="Path" fill="#000000" stroke="none" />
    <path d="M13.3405 0L15.3929 2.05517L16.4191 11.3034L16.4191 16.4414L21.55 17.469L21.55 20.5517L16.4191 20.5517L12.3143 23.6345L7.18335 28.7724L4.10477 33.9103L0 32.8828L1.02619 28.7724L2.05239 22.6069L6.15716 20.5517L10.2619 16.4414L11.2881 9.24827L12.3143 2.05517L13.3405 0Z" transform="translate(1005.67 530.2345)" id="Path" fill="#000000" stroke="none" />
    <path d="M34.8906 0L37.9692 3.08276L38.9954 7.1931L33.8644 9.24827L24.6286 11.3034L18.4715 16.4414L14.3667 19.5241L12.3143 22.6069L9.23574 24.662L3.07858 24.662L0 24.662L0 19.5241L3.07858 17.469L11.2881 14.3862L16.4191 10.2759L23.6025 7.1931L29.7596 1.02759L34.8906 0Z" transform="translate(964.6211 559.0068)" id="Path" fill="#000000" stroke="none" />
  </g>
</svg>