<?xml version="1.0" encoding="utf-8"?>
<svg width="33px" height="27px" viewBox="0 0 33 27" version="1.1" xmlns:xlink="http://www.w3.org/1999/xlink" xmlns="http://www.w3.org/2000/svg">
  <desc>Created with Lunacy</desc>
  <defs>
    <path d="M0 0L32.4 0L32.4 26.33L0 26.33L0 0Z" transform="translate(0 0.00027)" id="path_1" />
    <clipPath id="mask_1">
      <use xlink:href="#path_1" />
    </clipPath>
  </defs>
  <g id="Group-3">
    <path d="M0 0L32.4 0L32.4 26.33L0 26.33L0 0Z" transform="translate(0 0.00027)" id="Clip-2" fill="none" stroke="none" />
    <g clip-path="url(#mask_1)">
      <path d="M32.4 3.1176C31.2075 3.6459 29.9259 4.0032 28.5822 4.1643C29.9565 3.3417 31.0104 2.0394 31.5045 0.4878C30.2193 1.2492 28.7991 1.8018 27.2817 2.0988C26.073 0.8073 24.3432 0 22.4307 0C18.7614 0 15.7851 2.9772 15.7851 6.6465C15.7851 7.1685 15.8418 7.6743 15.9561 8.1612C10.4337 7.8822 5.5359 5.2389 2.2545 1.215C1.6821 2.1996 1.3563 3.3417 1.3563 4.5594C1.3563 6.8634 2.5299 8.8983 4.3119 10.0926C3.2247 10.0584 2.1978 9.7569 1.2996 9.2619L1.2996 9.3429C1.2996 12.5658 3.5919 15.2523 6.6339 15.8607C6.0768 16.0173 5.4909 16.0947 4.8825 16.0947C4.4541 16.0947 4.0374 16.0551 3.6324 15.9777C4.4784 18.6174 6.9309 20.5398 9.8415 20.5911C7.5654 22.3749 4.698 23.4378 1.5858 23.4378C1.0494 23.4378 0.5193 23.4072 0 23.346C2.9421 25.2297 6.4359 26.3304 10.188 26.3304C22.4181 26.3304 29.1015 16.2045 29.1015 7.4187C29.1015 7.1298 29.0961 6.8418 29.0826 6.5592C30.3831 5.6205 31.5126 4.4496 32.4 3.1176" transform="translate(0 -0.00018)" id="Fill-1" fill="#000000" stroke="none" />
    </g>
  </g>
</svg>