<?xml version="1.0" encoding="utf-8"?>
<svg width="20px" height="20px" viewBox="0 0 20 20" version="1.1" xmlns:xlink="http://www.w3.org/1999/xlink" xmlns="http://www.w3.org/2000/svg">
  <desc>Created with Lunacy</desc>
  <path d="M0 10C0 4.48623 4.48571 0 10 0C15.5138 0 20 4.48623 20 10C20 15.5138 15.5138 20 10 20C4.48571 20 0 15.5138 0 10ZM10.0002 18.4417C5.34509 18.4417 1.55859 14.6552 1.55859 10.0002C1.55859 5.34561 5.34509 1.55859 10.0002 1.55859C14.6547 1.55859 18.4417 5.34561 18.4417 10.0002C18.4417 14.6552 14.6547 18.4417 10.0002 18.4417ZM13.0736 7.10757L8.40241 11.7206L7.12969 10.2655C6.84657 9.94185 6.3541 9.90861 6.02995 10.1922C5.70579 10.4759 5.67306 10.9678 5.9567 11.292L7.77488 13.3699C7.91618 13.5315 8.11826 13.6276 8.3328 13.6354C8.34267 13.6359 8.35203 13.6359 8.36138 13.6359C8.56605 13.6359 8.76293 13.5554 8.90891 13.4115L14.1686 8.21666C14.4746 7.9138 14.4777 7.4203 14.1754 7.11432C13.8731 6.80835 13.3796 6.80523 13.0736 7.10757Z" id="2B" fill="#1A1919" fill-rule="evenodd" stroke="none" />
</svg>