<?xml version="1.0" encoding="utf-8"?>
<svg width="15px" height="12px" viewBox="0 0 15 12" version="1.1" xmlns:xlink="http://www.w3.org/1999/xlink" xmlns="http://www.w3.org/2000/svg">
  <desc>Created with Lunacy</desc>
  <path d="M14.5565 6C14.5582 6.1689 14.4956 6.33838 14.3663 6.46764L9.02527 11.8087C8.7702 12.0638 8.35714 12.0638 8.10206 11.8087C7.84699 11.5536 7.84642 11.1406 8.10206 10.8855L12.3349 6.65262L8.20605 6.65262L5.08253 6.65262L0.653198 6.65262C0.291842 6.65262 0 6.36021 0 6C0 5.63979 0.291842 5.34738 0.653198 5.34738L5.08253 5.34738L8.20605 5.34738L12.3349 5.34738L8.10206 1.11452C7.84642 0.859441 7.84699 0.446381 8.10206 0.191306C8.35714 -0.0637687 8.7702 -0.0637687 9.02527 0.191306L14.3663 5.53236C14.4956 5.66162 14.5582 5.8311 14.5565 6" id="Arrow-Icon" fill="#FFFFFF" stroke="none" />
</svg>