<?xml version="1.0" encoding="utf-8"?>
<svg width="50px" height="50px" viewBox="0 0 50 50" version="1.1" xmlns:xlink="http://www.w3.org/1999/xlink" xmlns="http://www.w3.org/2000/svg">
  <desc>Created with Lunacy</desc>
  <defs>
    <path d="M0 0L49.4104 0L49.4104 49.4524L0 49.4524L0 0Z" id="path_1" />
    <clipPath id="mask_1">
      <use xlink:href="#path_1" />
    </clipPath>
  </defs>
  <g id="ATOL-Logo">
    <path d="M0 0L49.4104 0L49.4104 49.4524L0 49.4524L0 0Z" id="Clip-2" fill="none" stroke="none" />
    <g clip-path="url(#mask_1)">
      <path d="M0.37798 20.4333C2.74403 7.00803 15.5798 -1.99012 28.994 0.378402C40.9638 2.4926 49.4107 12.9488 49.4107 24.7124C49.4107 26.1352 49.2866 27.5722 49.0317 29.0191C46.6656 42.4445 33.8298 51.4426 20.4156 49.0741C7.00144 46.708 -1.98807 33.858 0.37798 20.4333ZM47.4612 28.7427C45.2488 41.3019 33.2408 49.7186 20.6933 47.5032C8.14512 45.2884 -0.263523 33.2692 1.94635 20.71C4.16179 8.15132 16.1698 -0.265351 28.7173 1.94946C41.2655 4.1649 49.6735 16.1834 47.4612 28.7427ZM34.1153 29.316C34.1153 29.316 27.6369 30.1086 22.8999 25.1598C18.1598 20.2086 18.124 14.3228 21.0956 8.94071L17.1511 8.24194L12.748 33.2611L32.7888 36.7926L34.1153 29.316ZM30.0511 10.5021L30.0394 10.5L30.0393 10.5001C30.0014 10.5179 21.9439 14.6892 25.8308 22.4364C28.6524 28.0543 34.3271 28.1278 34.3271 28.1278L37.2333 11.7802L31.1102 10.6907L30.0511 10.5021ZM30.0511 10.5021L30.0393 10.5001L30.0662 10.5056L37.2298 11.7802L31.1102 10.6907L30.0697 10.5056L30.0511 10.5021ZM5.7168 29.4538C6.07606 30.773 6.61371 31.6477 7.91556 31.2939C8.74396 31.0662 9.00445 30.4051 8.7242 29.3884L8.23408 27.5872L3.2168 28.9581C3.28285 29.1365 3.35383 29.3143 3.40322 29.4983C3.4526 29.6791 3.47976 29.868 3.51556 30.0575L5.7168 29.4538ZM19.3281 31.4439L18.0639 28.7272L16.9374 28.5291L14.8047 30.6377L15.8467 30.8241L16.2578 30.3852L18.0257 30.7007L18.2448 31.2494L19.3281 31.4439ZM8.2643 29.2457L8.13838 28.7932L6.12109 29.3444C6.17295 29.5031 6.2248 29.6704 6.30443 29.813C6.5643 30.2543 7.03097 30.3148 7.4748 30.1944C8.06183 30.0327 8.36554 29.6296 8.2643 29.2457ZM19.9613 29.0667L23.8323 29.7525L23.7551 30.1827L22.3274 29.9278L21.973 31.9123L20.97 31.7346L21.3212 29.7463L19.8848 29.4913L19.9613 29.0667ZM17.8197 30.2333L17.3919 29.1802L16.6055 30.0166L17.8197 30.2333ZM28.5994 31.8437C28.6784 31.4024 28.4976 31.0265 28.0562 30.7197C27.7272 30.4678 27.2229 30.2808 26.5401 30.1604C25.8574 30.0376 25.3173 30.04 24.9253 30.1635C24.4019 30.2981 24.1 30.5882 24.021 31.0295C23.9439 31.4623 24.1278 31.8382 24.5716 32.153C24.8982 32.4061 25.4025 32.5919 26.0852 32.716C26.7704 32.8363 27.3074 32.8332 27.7025 32.7104C28.2229 32.5647 28.5253 32.2771 28.5994 31.8437ZM26.4646 30.5884C26.0695 30.5168 25.7405 30.5334 25.48 30.6402C25.2164 30.7445 25.0633 30.934 25.0139 31.205C24.9646 31.4766 25.0467 31.71 25.2553 31.8958C25.4639 32.0853 25.7676 32.2168 26.1627 32.2877C26.5572 32.3593 26.8837 32.3402 27.1442 32.2328C27.4016 32.1266 27.5553 31.9371 27.6047 31.6655C27.6516 31.3945 27.572 31.1643 27.3664 30.9748C27.1609 30.789 26.859 30.6569 26.4646 30.5884ZM30.2237 32.9321L32.5898 33.3543L32.5157 33.7876L29.1484 33.187L29.5793 30.7747L30.5774 30.9531L30.2237 32.9321ZM4.98242 34.2734C5.0923 34.4295 5.20711 34.5802 5.30341 34.745C5.39971 34.9092 5.47625 35.0826 5.55835 35.2549L7.65588 34.0215L7.68304 34.0678C7.52131 34.3586 7.32687 34.7178 7.20835 34.9203L6.29045 36.5049C6.41884 36.6944 6.55341 36.8777 6.66822 37.0721C6.78921 37.2777 6.88242 37.4863 6.98366 37.6894L7.24168 37.1956C7.61946 36.4474 7.9818 35.6851 8.39847 34.9555C8.88674 35.4907 9.53366 35.6635 10.175 35.2882C10.6195 35.0246 10.8003 34.6573 10.7756 34.169C10.759 33.8098 10.4658 33.3382 10.2849 33.0314L9.46823 31.6382L4.98242 34.2734ZM9.7465 32.9216C9.72711 32.8893 9.70791 32.8574 9.68935 32.8259L7.9375 33.8568C8.27454 34.5802 8.80108 34.7284 9.47515 34.334C9.5659 34.279 9.66219 34.2154 9.78256 34.1086C10.2273 33.7202 9.97359 33.2988 9.7465 32.9216ZM40.3886 40.0536L36.3398 36.8487L37.9491 34.8147C39.0016 33.5783 40.304 33.7561 41.2775 34.5265C42.6238 35.5907 42.6732 37.1672 41.7077 38.387L40.3886 40.0536ZM37.8511 35.6481L37.3906 36.229L40.7517 38.8889L41.1524 38.3839C41.8017 37.5617 41.8838 36.613 40.4912 35.5111C39.3727 34.6253 38.5147 34.8062 37.8511 35.6481ZM10.2032 41.203C11.602 42.4283 13.2847 42.2283 14.2551 41.1092C15.0236 40.2215 15.5464 38.653 13.9205 37.2301C12.5014 35.9832 10.8699 36.1771 9.87728 37.3153C8.7421 38.6116 8.9421 40.098 10.2032 41.203ZM13.5864 37.5401C12.7938 36.8463 11.7962 37.0302 10.6777 38.3105C10.0277 39.0531 9.67648 40.1364 10.532 40.8845C11.4098 41.6549 12.5722 41.1203 13.403 40.1722C14.0475 39.437 14.4413 38.2913 13.5864 37.5401ZM33.2285 39.0846L36.2026 43.3069L38.5631 41.6402C38.4921 41.5636 38.4069 41.484 38.3439 41.3957C38.2835 41.3087 38.2372 41.2044 38.1878 41.1081C37.8446 41.4235 37.4446 41.7525 36.8168 42.205L35.7094 40.6309L36.3532 40.1735C36.631 39.9785 36.9051 39.8223 37.1538 39.6933C37.0804 39.6136 36.9952 39.534 36.9353 39.447C36.8748 39.3618 36.8279 39.2544 36.7785 39.1587C36.5705 39.3538 36.3347 39.5569 36.0551 39.7538L35.4106 40.2087L34.473 38.8766C35.0952 38.4161 35.5507 38.1692 35.9643 37.9525C35.8902 37.8729 35.8057 37.7933 35.7452 37.7062C35.6847 37.6211 35.6378 37.5143 35.589 37.418L33.2285 39.0846ZM18.4102 40.7364C18.8349 40.9198 19.2237 41.1445 19.6133 41.3722C19.6435 41.2679 19.6626 41.1611 19.7089 41.0568C19.7509 40.958 19.8133 40.871 19.8713 40.7796L16.2879 39.2278C16.2583 39.3321 16.2386 39.4364 16.1947 39.5352C16.1509 39.6395 16.0879 39.7272 16.0299 39.8204C16.4145 39.9272 16.875 40.0704 17.3676 40.2809L15.5176 44.5661C15.6954 44.6265 15.8793 44.6809 16.0521 44.7574C16.2281 44.8321 16.3917 44.9278 16.5596 45.0179L18.4102 40.7364ZM32.815 40.1229C32.3785 40.2377 31.9427 40.3532 31.5125 40.5205L33.215 44.8655C33.0335 44.9205 32.8477 44.9698 32.6718 45.0384C32.4964 45.1069 32.3267 45.197 32.1563 45.2822L30.4545 40.9371C29.9526 41.134 29.5279 41.3569 29.1792 41.5513C29.1545 41.447 29.1353 41.3402 29.0946 41.2328C29.0557 41.134 28.9952 41.0439 28.9434 40.9507L32.5785 39.5254C32.6032 39.6266 32.6199 39.7365 32.6582 39.8353C32.6995 39.9396 32.76 40.0297 32.815 40.1229ZM19.7754 46.0186L20.6414 40.9248L23.4877 41.4075C23.455 41.5094 23.413 41.6186 23.397 41.7223C23.3826 41.801 23.3822 41.8877 23.3818 41.9714C23.3817 41.9987 23.3816 42.0257 23.3809 42.052C22.9334 41.9149 22.4347 41.7668 21.6698 41.6544L21.3988 43.2637L22.1748 43.3921C22.5112 43.4501 22.8242 43.4717 23.1063 43.4828C23.0735 43.5841 23.0322 43.6939 23.013 43.7983C22.997 43.9026 22.9995 44.0174 22.997 44.1273C22.7254 44.0421 22.4242 43.96 22.0896 43.9026L21.3106 43.7711L20.9902 45.6705C21.7519 45.7939 22.2674 45.8433 22.7334 45.86C22.7032 45.9612 22.66 46.0705 22.6427 46.1748C22.6242 46.2791 22.6266 46.3946 22.6242 46.5044L19.7754 46.0186ZM28.8154 45.3617C28.5055 45.7185 27.9876 46.0148 27.5185 46.058C26.3561 46.1728 25.6321 45.3259 25.5092 44.0351C25.4018 42.9246 25.7913 41.674 27.0444 41.5537C27.5351 41.5043 28.045 41.7463 28.3629 42.1271L28.4703 42.116C28.5055 41.8475 28.5253 41.5839 28.5685 41.3209C28.1055 41.1234 27.4882 41.0518 26.9919 41.1018C25.3475 41.2604 24.0753 42.2913 24.2672 44.2629C24.4179 45.8111 25.7364 46.6882 27.3512 46.5321C27.8561 46.4827 28.3821 46.3407 28.8123 46.0611L28.9166 45.3975L28.8154 45.3617Z" id="Fill-1" fill="#FEFEFE" fill-rule="evenodd" stroke="none" />
    </g>
  </g>
</svg>