<?xml version="1.0" encoding="utf-8"?>
<svg width="20px" height="20px" viewBox="0 0 20 20" version="1.1" xmlns:xlink="http://www.w3.org/1999/xlink" xmlns="http://www.w3.org/2000/svg">
  <desc>Created with Lunacy</desc>
  <path d="M16.8177 1.51579L17.2093 1.51579C18.7509 1.51579 19.9992 2.76418 19.9992 4.30573L19.9992 17.2093C19.9992 18.7501 18.7509 20 17.2093 20L2.7907 20C1.24915 20 0 18.7501 0 17.2093L0 4.30573C0 2.76418 1.24915 1.51579 2.7907 1.51579L3.18233 1.51579L3.18233 0.757518C3.18233 0.338611 3.52095 0 3.93985 0C4.358 0 4.69737 0.338611 4.69737 0.757518L4.69737 1.51579L15.3026 1.51579L15.3026 0.757518C15.3026 0.338611 15.6412 0 16.0601 0C16.4783 0 16.8177 0.338611 16.8177 0.757518L16.8177 1.51579ZM18.4848 17.2092C18.4848 17.913 17.9129 18.4849 17.2099 18.4849L2.79129 18.4849C2.08831 18.4849 1.51563 17.913 1.51563 17.2092L1.51563 4.30567C1.51563 3.60269 2.08831 3.03076 2.79129 3.03076L3.18292 3.03076L3.18292 3.78752C3.18292 4.20643 3.52153 4.54504 3.94044 4.54504C4.35859 4.54504 4.69796 4.20643 4.69796 3.78752L4.69796 3.03076L15.3032 3.03076L15.3032 3.78752C15.3032 4.20643 15.6418 4.54504 16.0607 4.54504C16.4789 4.54504 16.8183 4.20643 16.8183 3.78752L16.8183 3.03076L17.2099 3.03076C17.9129 3.03076 18.4848 3.60269 18.4848 4.30567L18.4848 17.2092ZM9.99971 6.06079C9.5808 6.06079 9.24219 6.40016 9.24219 6.81831C9.24219 7.23646 9.5808 7.57583 9.99971 7.57583C10.4186 7.57583 10.7572 7.23646 10.7572 6.81831C10.7572 6.40016 10.4186 6.06079 9.99971 6.06079ZM12.2734 6.81831C12.2734 6.40016 12.612 6.06079 13.031 6.06079C13.4499 6.06079 13.7885 6.40016 13.7885 6.81831C13.7885 7.23646 13.4499 7.57583 13.031 7.57583C12.612 7.57583 12.2734 7.23646 12.2734 6.81831ZM16.0603 6.06079C15.6413 6.06079 15.3027 6.40016 15.3027 6.81831C15.3027 7.23646 15.6413 7.57583 16.0603 7.57583C16.4792 7.57583 16.8178 7.23646 16.8178 6.81831C16.8178 6.40016 16.4792 6.06079 16.0603 6.06079ZM3.18164 9.84858C3.18164 9.43043 3.52025 9.09106 3.93916 9.09106C4.35807 9.09106 4.69668 9.43043 4.69668 9.84858C4.69668 10.2667 4.35807 10.6061 3.93916 10.6061C3.52025 10.6061 3.18164 10.2667 3.18164 9.84858ZM6.97041 9.09106C6.5515 9.09106 6.21289 9.43043 6.21289 9.84858C6.21289 10.2667 6.5515 10.6061 6.97041 10.6061C7.38932 10.6061 7.72793 10.2667 7.72793 9.84858C7.72793 9.43043 7.38932 9.09106 6.97041 9.09106ZM9.24219 9.84858C9.24219 9.43043 9.5808 9.09106 9.99971 9.09106C10.4186 9.09106 10.7572 9.43043 10.7572 9.84858C10.7572 10.2667 10.4186 10.6061 9.99971 10.6061C9.5808 10.6061 9.24219 10.2667 9.24219 9.84858ZM13.031 9.09106C12.612 9.09106 12.2734 9.43043 12.2734 9.84858C12.2734 10.2667 12.612 10.6061 13.031 10.6061C13.4499 10.6061 13.7885 10.2667 13.7885 9.84858C13.7885 9.43043 13.4499 9.09106 13.031 9.09106ZM15.3027 9.84858C15.3027 9.43043 15.6413 9.09106 16.0603 9.09106C16.4792 9.09106 16.8178 9.43043 16.8178 9.84858C16.8178 10.2667 16.4792 10.6061 16.0603 10.6061C15.6413 10.6061 15.3027 10.2667 15.3027 9.84858ZM3.93916 12.1211C3.52025 12.1211 3.18164 12.4605 3.18164 12.8786C3.18164 13.2968 3.52025 13.6361 3.93916 13.6361C4.35807 13.6361 4.69668 13.2968 4.69668 12.8786C4.69668 12.4605 4.35807 12.1211 3.93916 12.1211ZM6.21289 12.8786C6.21289 12.4605 6.5515 12.1211 6.97041 12.1211C7.38932 12.1211 7.72793 12.4605 7.72793 12.8786C7.72793 13.2968 7.38932 13.6361 6.97041 13.6361C6.5515 13.6361 6.21289 13.2968 6.21289 12.8786ZM9.99971 12.1211C9.5808 12.1211 9.24219 12.4605 9.24219 12.8786C9.24219 13.2968 9.5808 13.6361 9.99971 13.6361C10.4186 13.6361 10.7572 13.2968 10.7572 12.8786C10.7572 12.4605 10.4186 12.1211 9.99971 12.1211ZM12.2734 12.8786C12.2734 12.4605 12.612 12.1211 13.031 12.1211C13.4499 12.1211 13.7885 12.4605 13.7885 12.8786C13.7885 13.2968 13.4499 13.6361 13.031 13.6361C12.612 13.6361 12.2734 13.2968 12.2734 12.8786ZM16.0603 12.1211C15.6413 12.1211 15.3027 12.4605 15.3027 12.8786C15.3027 13.2968 15.6413 13.6361 16.0603 13.6361C16.4792 13.6361 16.8178 13.2968 16.8178 12.8786C16.8178 12.4605 16.4792 12.1211 16.0603 12.1211ZM3.18164 15.9086C3.18164 15.4905 3.52025 15.1511 3.93916 15.1511C4.35807 15.1511 4.69668 15.4905 4.69668 15.9086C4.69668 16.3268 4.35807 16.6662 3.93916 16.6662C3.52025 16.6662 3.18164 16.3268 3.18164 15.9086ZM6.21289 15.9086C6.21289 15.4905 6.5515 15.1511 6.97041 15.1511C7.38932 15.1511 7.72793 15.4905 7.72793 15.9086C7.72793 16.3268 7.38932 16.6662 6.97041 16.6662C6.5515 16.6662 6.21289 16.3268 6.21289 15.9086Z" id="Calendar-Icon" fill="#020303" fill-rule="evenodd" stroke="none" />
</svg>