<?xml version="1.0" encoding="UTF-8"?>
<!DOCTYPE svg PUBLIC "-//W3C//DTD SVG 1.1//EN" "http://www.w3.org/Graphics/SVG/1.1/DTD/svg11.dtd">
<!-- Creator: CorelDRAW X7 -->
<svg xmlns="http://www.w3.org/2000/svg" xml:space="preserve" width="294px" height="41px" version="1.1" style="shape-rendering:geometricPrecision; text-rendering:geometricPrecision; image-rendering:optimizeQuality; fill-rule:evenodd; clip-rule:evenodd"
viewBox="0 0 294 41"
 xmlns:xlink="http://www.w3.org/1999/xlink">
 <defs>
  <style type="text/css">
   <![CDATA[
    .str0 {stroke:#FEFEFE;stroke-width:0.832677}
    .fil0 {fill:#FEFEFE}
    .fil1 {fill:#FEFEFE;fill-rule:nonzero}
   ]]>
  </style>
 </defs>
 <g id="Layer_x0020_1">
  <metadata id="CorelCorpID_0Corel-Layer"/>
  <path id="Path" class="fil0" d="M23 33l0 0c0,0 0,0 0,-1 -1,0 -1,0 -1,0l0 0 -1 0 -1 0 -1 1 -1 0 0 0 -1 0c-1,0 -1,0 -1,0l-1 0c-2,0 -4,0 -6,-1 -1,-1 -3,-2 -4,-3 -1,-1 -2,-2 -3,-4 -2,-3 -2,-7 0,-10 1,-2 2,-3 3,-4 1,-1 2,-2 4,-3 2,-1 3,-1 5,-1 2,0 4,0 5,1l1 0 0 0c0,0 1,0 1,0 0,0 0,0 0,0 1,0 1,0 1,0 0,0 0,-1 0,-1l1 0 0 10 0 0 -1 -1c0,-1 0,-1 0,-1l-1 -1 0 -2c-2,-3 -5,-5 -7,-5 -2,0 -3,2 -4,3 -1,4 -1,7 -1,10 0,3 0,6 1,9 1,2 3,3 5,3 1,0 2,0 3,0 0,-1 1,-2 2,-3 1,-1 1,-2 2,-3 0,-1 1,-3 1,-4l1 0 -1 11z"/>
  <path id="Path_0" class="fil0" d="M26 33l0 -1c0,0 1,0 2,0 0,0 0,-1 0,-1 1,0 1,-1 1,-1 0,0 0,0 0,-1 0,0 0,0 0,0 0,-1 0,-1 0,-1l0 -16c0,-1 0,-1 0,-2 0,0 0,-1 -1,-1 0,0 0,0 -1,-1 0,0 -1,0 -1,0l0 0 14 0 0 0c-1,0 -1,0 -2,0 0,1 -1,1 -1,1 0,0 0,1 0,1 0,0 0,1 0,1 0,0 0,0 0,1 0,0 0,0 0,1l0 15c-1,1 0,1 0,2 0,0 0,1 0,1 0,0 1,1 1,1 1,0 1,0 2,0l0 1 -14 0z"/>
  <path id="Path_1" class="fil0" d="M61 8l-18 0 -1 7 0 0 0 -1c1,0 1,0 1,-1 0,0 0,0 0,0l1 -1c1,-1 2,-2 3,-2l1 -1c0,0 0,0 1,0 0,-1 0,-1 0,-1l2 0 0 20c0,0 0,0 0,1 0,0 0,0 0,0l0 1c-1,0 -1,1 -1,1 0,0 -1,1 -1,1 -1,0 -2,0 -2,0l0 1 15 0 0 -1c-1,0 -1,0 -2,0 -1,0 -1,-1 -1,-1 0,0 -1,-1 -1,-1 0,-1 0,-1 0,-2 0,0 0,0 0,-1l0 -19c0,0 1,0 1,0 0,0 1,0 1,0 0,1 1,1 1,1 0,0 1,0 1,0 0,1 1,1 1,1 1,1 1,1 1,1l1 1c0,1 0,1 1,1 0,0 0,1 0,1 0,0 0,1 1,1l0 0 -1 -7 -5 0z"/>
  <path id="Path_2" class="fil0" d="M69 33l0 -1c0,0 1,0 1,0 1,0 1,-1 1,-1 1,0 1,-1 1,-1 0,0 0,0 0,-1 0,0 0,0 0,0 0,-1 0,-1 0,-1l0 -16c0,-1 0,-1 0,-2 0,0 0,-1 -1,-1 0,0 0,0 -1,-1 0,0 -1,0 -2,0l0 0 15 0 0 0c-1,0 -1,0 -2,0 0,1 -1,1 -1,1 0,0 0,1 0,1 0,0 0,1 -1,1 0,0 0,0 0,1 0,0 0,0 0,1l0 15c0,1 1,1 1,2 0,0 0,1 0,1 0,0 1,1 1,1 1,0 1,0 2,0l0 1 -14 0z"/>
  <path class="fil1" d="M134 25c0,1 0,2 -1,3 0,1 -1,2 -2,3 -1,0 -2,1 -3,1 -1,1 -2,1 -3,1 -1,0 -3,0 -4,0 -1,0 -3,-1 -4,-1 -1,0 -1,0 -2,0 0,0 0,0 0,0 -1,0 -1,0 -1,0 0,0 0,0 -1,1l0 0 0 -12 0 0c0,1 0,1 1,2 0,0 0,0 0,1 0,0 1,1 1,1 0,0 0,1 1,2 1,1 2,2 3,3 1,1 2,2 2,2 1,0 2,1 3,1 2,0 3,-1 3,-1 1,-1 2,-2 2,-3 0,-1 -1,-2 -2,-3 -1,-1 -2,-2 -4,-2l-3 -2c-3,-1 -5,-2 -6,-3 -1,-1 -1,-2 -1,-4 0,-1 0,-2 1,-3 0,-1 1,-2 2,-3 0,0 1,-1 3,-1 1,-1 2,-1 4,-1 0,0 1,0 2,0 0,0 1,1 2,1l1 0c1,0 2,0 2,0 0,0 0,0 1,0 0,0 0,0 0,-1l0 0 1 10 -1 0c-1,-3 -2,-5 -4,-7 -1,-2 -3,-2 -5,-2 -1,0 -2,0 -3,1 0,0 -1,1 -1,2 0,1 0,1 1,2 0,0 0,1 1,1 0,0 1,1 1,1 1,1 2,1 3,1l4 2c2,1 3,2 4,3 1,1 2,2 2,4z"/>
  <path class="fil1" d="M111 22l-2 11 -23 0 0 -1c1,0 1,0 2,0 0,0 0,0 1,-1 0,0 0,-1 0,-1l0 -1c0,0 0,0 0,0 0,-1 0,-1 0,-1l0 -2 0 -12 0 -2c0,-1 0,-1 0,-2 0,0 0,-1 0,-1 -1,0 -1,-1 -1,-1 -1,0 -1,0 -2,0l0 0 22 0 1 8 0 0c0,0 0,-1 -1,-1 0,0 0,-1 0,-1 0,0 -1,-1 -1,-1 0,0 0,0 -1,-1 -1,-1 -2,-2 -3,-3 -2,-1 -3,-1 -5,-1l-1 0 0 12c1,-1 2,-1 2,-1 1,0 2,-1 2,-1 1,-1 1,-1 1,-1 1,-1 1,-1 1,-1 0,-1 0,-1 0,-2l1 0 0 12 -1 0c0,-2 -1,-3 -2,-4 -1,-1 -1,-1 -2,-2 0,0 -1,0 -2,0l0 9c0,1 0,2 0,2 0,1 1,1 2,1 1,0 2,0 3,-1 2,0 3,-1 4,-2 1,-1 2,-2 3,-3 0,-1 1,-3 2,-4l0 0z"/>
  <path id="Path_3" class="fil0" d="M252 15c4,0 6,2 6,6l0 11c0,0 0,0 0,1 0,0 0,0 0,0l-2 0c0,0 0,0 -1,0 0,-1 0,-1 0,-1l0 -11c0,-1 0,-2 -1,-2 0,-1 -1,-2 -2,-2 -3,0 -5,2 -5,6l0 9c0,0 0,0 0,1 0,0 0,0 -1,0l-1 0c0,0 -1,0 -1,0 0,-1 0,-1 0,-1l0 -23c0,-1 0,-1 0,-1 0,0 1,0 1,0l1 0c1,0 1,0 1,0 0,0 0,0 0,1l0 8c1,-2 3,-3 5,-2l0 0z"/>
  <path id="Shape" class="fil0" d="M169 32l0 -24c0,0 0,0 0,0 0,0 0,0 1,0l1 0c0,0 1,0 1,0 0,0 0,0 0,1l0 9c1,-2 4,-4 7,-4 5,1 9,5 9,10 0,5 -4,9 -9,9 -3,0 -6,-1 -7,-3l0 2c0,0 0,0 0,0 0,1 -1,1 -1,1l-1 0c-1,0 -1,0 -1,-1 0,0 0,0 0,0zm9 -15c-3,0 -6,3 -6,7 0,1 1,3 2,4 1,1 3,2 4,2 4,0 7,-3 7,-6 0,-4 -3,-7 -7,-7z"/>
  <path id="Shape_4" class="fil0" d="M223 32l0 -11c0,-3 -3,-6 -6,-6 -3,-1 -7,1 -8,5 0,0 0,0 1,0 0,1 0,1 0,1l2 0c0,0 0,-1 1,-1 0,-2 2,-3 4,-3 2,1 3,2 3,4l0 3c-1,-2 -3,-2 -5,-2 -3,0 -6,2 -6,5 0,4 3,6 6,6 2,0 4,-1 5,-2l0 1c0,0 0,0 0,0 1,1 1,1 1,1l1 0c1,0 1,0 1,-1 0,0 0,0 0,0zm-7 -8c2,0 4,1 4,3 0,2 -1,3 -4,3 -3,0 -4,-1 -4,-3 0,-1 1,-3 4,-3z"/>
  <path id="Path_5" class="fil0" d="M293 28c0,3 -3,5 -7,5 -3,0 -6,-2 -7,-5 0,0 1,0 1,0 0,-1 0,-1 0,-1l2 0c0,0 0,1 1,1 0,2 1,2 3,2 2,0 4,-1 4,-2 0,-4 -10,-2 -10,-8 0,-3 3,-6 6,-6 4,0 6,2 7,5 0,1 0,1 -1,1 0,0 0,0 0,0l-2 0c0,0 0,0 -1,-1 0,-1 -1,-2 -3,-2 -2,0 -3,1 -3,3 0,4 10,1 10,8z"/>
  <path class="fil1 str0" d="M149 33c3,0 5,-1 7,-3 2,2 4,3 7,3l0 -3c-2,0 -4,0 -5,-2 1,-2 2,-5 3,-8l-3 0c0,3 -1,5 -2,7 -1,-1 -3,-3 -4,-5 -1,-1 -2,-2 -2,-3 2,-1 3,-2 4,-3 1,-1 2,-2 2,-4 0,-1 0,-2 -1,-3 -1,-1 -3,-2 -4,-2 -2,0 -4,1 -5,2 -1,1 -1,3 -1,4 0,2 0,4 2,6 -2,1 -4,2 -5,3 -1,1 -1,3 -1,4 0,2 1,4 2,5 1,1 3,2 6,2zm0 -15c-1,-2 -1,-3 -1,-5 0,-1 0,-2 0,-2 1,-1 2,-1 3,-1 1,0 1,0 2,1 0,0 0,1 0,2 0,1 0,2 -1,2 0,1 -2,2 -3,3zm0 12c-2,0 -3,0 -4,-1 -1,0 -1,-2 -1,-3 0,-2 1,-4 4,-5 0,0 1,1 2,3 2,2 3,4 4,5 -1,1 -3,1 -5,1z"/>
  <path class="fil1 str0" d="M234 33c2,0 3,0 4,-1 1,-1 2,-2 3,-4l-2 -1c-1,1 -2,2 -2,3 -1,0 -2,1 -3,1 -1,0 -3,-1 -3,-2 -1,-1 -2,-3 -2,-5 0,-2 1,-4 2,-5 1,-1 2,-2 3,-2 2,0 4,1 5,4l2 -1c-1,-3 -4,-5 -7,-5 -2,0 -4,1 -5,2 -2,2 -3,4 -3,7 0,3 1,5 3,7 1,1 3,2 5,2z"/>
  <path class="fil1 str0" d="M198 33c3,0 6,-1 7,-4l-1 -1c-1,1 -2,2 -2,2 -1,1 -2,1 -3,1 -2,0 -3,-1 -4,-2 -1,-1 -1,-2 -2,-4l13 0 0 -1c0,-3 -1,-5 -2,-7 -2,-1 -3,-2 -6,-2 -1,0 -1,0 -2,0 -1,1 -2,1 -3,2 -1,1 -1,2 -2,3 0,1 0,2 0,4 0,3 0,5 2,7 1,1 3,2 5,2zm-4 -10c0,-2 0,-4 1,-4 1,-1 2,-2 3,-2 2,0 3,1 4,2 0,1 1,2 1,4l-9 0z"/>
  <path class="fil1 str0" d="M269 33c3,0 5,-1 7,-4l-1 -1c-1,1 -2,2 -3,2 0,1 -1,1 -3,1 -1,0 -2,-1 -3,-2 -1,-1 -2,-2 -2,-4l12 0 0 -1c0,-3 0,-5 -2,-7 -1,-1 -3,-2 -5,-2 -1,0 -2,0 -2,0 -1,1 -2,1 -3,2 -1,1 -1,2 -2,3 0,1 0,2 0,4 0,3 0,5 2,7 1,1 3,2 5,2zm-5 -10c1,-2 1,-4 2,-4 1,-1 2,-2 3,-2 2,0 3,1 3,2 1,1 2,2 2,4l-10 0z"/>
 </g>
</svg>
