<?xml version="1.0" encoding="utf-8"?>
<!-- Generator: Adobe Illustrator 16.0.0, SVG Export Plug-In . SVG Version: 6.00 Build 0)  -->
<!DOCTYPE svg PUBLIC "-//W3C//DTD SVG 1.1//EN" "http://www.w3.org/Graphics/SVG/1.1/DTD/svg11.dtd">
<svg version="1.1" id="Layer_1" xmlns="http://www.w3.org/2000/svg" xmlns:xlink="http://www.w3.org/1999/xlink" x="0px" y="0px"
	 width="294px" height="60px" viewBox="0 0 294 60" enable-background="new 0 0 294 60" xml:space="preserve">
<path fill-rule="evenodd" clip-rule="evenodd" fill="#000" d="M83.15,40.728h-0.286c-0.004-0.164-0.075-0.318-0.196-0.43
	c-0.121-0.11-0.282-0.167-0.443-0.155h-0.303h-0.313l-0.749,0.151l-0.722,0.135l-0.777,0.135l-0.532,0.082h-0.708
	c-0.341,0-0.627,0-0.873,0h-0.64c-1.46,0.017-2.91-0.253-4.268-0.789c-1.264-0.482-2.425-1.203-3.419-2.127
	c-0.969-0.891-1.75-1.971-2.288-3.173c-1.09-2.511-1.09-5.363,0-7.876c0.527-1.188,1.276-2.266,2.206-3.173
	c0.965-0.904,2.088-1.625,3.313-2.127c1.298-0.523,2.687-0.785,4.087-0.775c1.313,0.019,2.619,0.184,3.897,0.489l0.448,0.108h0.219
	c0.16,0.043,0.327,0.072,0.491,0.082c0.135,0.013,0.271,0.013,0.409,0c0.158,0.013,0.315-0.026,0.45-0.108
	c0.127-0.113,0.223-0.26,0.272-0.423h0.286l0.464,7.672h-0.288l-0.366-1.049c-0.11-0.3-0.219-0.586-0.341-0.858l-0.409-0.804
	l-0.53-0.926c-1.607-2.609-3.325-3.905-5.153-3.897c-1.47,0.053-2.738,1.048-3.132,2.466c-0.822,2.343-1.182,4.823-1.062,7.304
	c-0.103,2.434,0.364,4.854,1.359,7.07c0.601,1.497,2.043,2.479,3.654,2.495c0.658-0.012,1.304-0.213,1.851-0.585
	c0.679-0.453,1.276-1.014,1.772-1.664c0.612-0.785,1.131-1.632,1.552-2.531c0.479-1.026,0.857-2.095,1.133-3.189h0.286L83.15,40.728
	L83.15,40.728z M168.454,36.941c-0.359,0.775-0.869,1.472-1.508,2.044c-0.667,0.589-1.432,1.052-2.266,1.361
	c-0.908,0.345-1.873,0.516-2.847,0.504c-0.912-0.013-1.823-0.082-2.724-0.205c-1.092-0.135-2.248-0.339-3.464-0.613l-0.924-0.188
	h-0.491c-0.229-0.017-0.454,0.036-0.653,0.146c-0.172,0.136-0.282,0.332-0.3,0.548h-0.302l-0.286-8.928h0.286
	c0.14,0.438,0.274,0.818,0.381,1.146c0.114,0.323,0.254,0.638,0.412,0.94c0.146,0.299,0.322,0.627,0.527,0.953
	c0.209,0.328,0.466,0.736,0.766,1.202c0.719,1.089,1.558,2.099,2.493,3.01c0.55,0.54,1.195,0.97,1.906,1.269
	c0.7,0.278,1.444,0.417,2.192,0.408c0.868,0.037,1.714-0.249,2.375-0.805c0.605-0.544,0.938-1.338,0.897-2.151
	c0-0.83-0.352-1.615-0.967-2.168c-0.928-0.781-1.999-1.382-3.148-1.771l-2.82-1.093c-1.477-0.498-2.836-1.296-3.992-2.34
	c-0.81-0.793-1.26-1.879-1.252-3.012c-0.004-0.871,0.197-1.729,0.586-2.508c0.376-0.777,0.916-1.464,1.579-2.016
	c0.697-0.598,1.504-1.06,2.371-1.362c0.961-0.335,1.97-0.501,2.985-0.491c0.523,0.004,1.047,0.041,1.565,0.108
	c0.531,0.069,1.173,0.178,1.906,0.327l0.928,0.205c0.446,0.123,0.904,0.188,1.362,0.204c0.168,0.019,0.335-0.03,0.466-0.137
	c0.124-0.135,0.205-0.307,0.23-0.491h0.286l0.326,7.181h-0.3c-0.563-1.924-1.562-3.695-2.915-5.177
	c-1.011-1.156-2.456-1.834-3.995-1.867c-0.813-0.042-1.616,0.231-2.232,0.762c-0.576,0.518-0.892,1.268-0.858,2.045
	c0.004,0.419,0.093,0.832,0.272,1.212c0.172,0.37,0.432,0.695,0.75,0.953c0.456,0.346,0.951,0.644,1.471,0.886
	c0.688,0.343,1.391,0.65,2.115,0.912l2.724,1.039c1.36,0.46,2.602,1.235,3.61,2.261c0.781,0.887,1.195,2.036,1.158,3.217
	C169.098,35.329,168.864,36.176,168.454,36.941L168.454,36.941L168.454,36.941z M273.559,40.851c2.279,0,4.065-0.957,5.366-2.863
	l-1.247-1.128c-0.531,0.748-1.104,1.305-1.709,1.664c-0.61,0.355-1.362,0.535-2.261,0.535c-1.129,0-2.066-0.413-2.808-1.239
	c-0.74-0.83-1.128-1.975-1.161-3.442h9.31v-0.463c0-2.352-0.505-4.13-1.51-5.334c-1.006-1.203-2.331-1.801-3.98-1.801
	c-0.715,0-1.419,0.139-2.108,0.421c-0.692,0.28-1.326,0.695-1.906,1.242c-0.586,0.545-1.056,1.282-1.411,2.214
	c-0.359,0.929-0.535,1.984-0.535,3.158c0,2.236,0.572,3.967,1.729,5.198C270.485,40.236,271.895,40.851,273.559,40.851
	L273.559,40.851z M269.789,32.663c0.151-1.331,0.576-2.339,1.276-3.02c0.695-0.683,1.521-1.024,2.47-1.024
	c1.046,0,1.865,0.364,2.457,1.088c0.59,0.726,0.924,1.711,1.011,2.957H269.789L269.789,32.663z M218.739,40.851
	c2.279,0,4.068-0.957,5.366-2.863l-1.251-1.128c-0.527,0.748-1.1,1.305-1.707,1.664c-0.608,0.355-1.36,0.535-2.256,0.535
	c-1.133,0-2.07-0.413-2.811-1.239c-0.74-0.83-1.129-1.975-1.161-3.442h9.309v-0.463c0-2.352-0.5-4.13-1.51-5.334
	c-1.007-1.203-2.331-1.801-3.979-1.801c-0.715,0-1.419,0.139-2.109,0.421c-0.688,0.28-1.325,0.695-1.905,1.242
	c-0.586,0.545-1.056,1.282-1.411,2.214c-0.359,0.929-0.539,1.984-0.539,3.158c0,2.236,0.579,3.967,1.737,5.198
	C215.664,40.236,217.075,40.851,218.739,40.851L218.739,40.851z M214.974,32.663c0.146-1.331,0.572-2.339,1.271-3.02
	c0.7-0.683,1.521-1.024,2.471-1.024c1.046,0,1.869,0.364,2.457,1.088c0.59,0.726,0.928,1.711,1.011,2.957H214.974L214.974,32.663z
	 M246.263,40.851c1.328,0,2.421-0.332,3.271-0.998c0.847-0.666,1.555-1.611,2.119-2.843l-1.771-0.715
	c-0.418,0.973-0.901,1.668-1.448,2.085c-0.553,0.418-1.247,0.631-2.094,0.631c-1.132,0-2.045-0.459-2.736-1.375
	c-0.69-0.907-1.034-2.184-1.034-3.823c0-1.775,0.373-3.077,1.109-3.914c0.738-0.837,1.643-1.256,2.71-1.256
	c1.595,0,2.728,0.897,3.395,2.689l1.82-0.769c-1.015-2.523-2.736-3.785-5.165-3.785c-1.633,0-3.048,0.597-4.244,1.789
	c-1.199,1.194-1.796,2.945-1.796,5.245c0,2.2,0.568,3.921,1.709,5.169C243.247,40.229,244.63,40.851,246.263,40.851L246.263,40.851z
	 M180.495,40.683c2.11,0,3.926-0.667,5.439-1.996c1.463,1.194,3.145,1.824,5.041,1.894v-1.946c-1.214,0-2.438-0.482-3.667-1.456
	c1.214-1.673,1.995-3.795,2.343-6.371h-1.997c-0.265,2.146-0.873,3.89-1.818,5.218c-0.884-0.903-1.873-2.081-2.973-3.529
	c-0.799-1.041-1.33-1.774-1.595-2.202c1.463-0.75,2.6-1.552,3.405-2.405c0.807-0.852,1.21-1.893,1.21-3.122
	c0-1.073-0.352-1.965-1.049-2.672c-0.696-0.708-1.693-1.063-2.995-1.063c-1.432,0-2.535,0.439-3.316,1.316
	c-0.785,0.879-1.174,1.951-1.174,3.212c0,1.364,0.418,2.805,1.247,4.325c-1.332,0.716-2.384,1.532-3.156,2.444
	c-0.773,0.911-1.162,2.016-1.162,3.313c0,1.537,0.539,2.76,1.612,3.672C176.961,40.225,178.494,40.683,180.495,40.683
	L180.495,40.683z M180.642,38.813c-1.36,0-2.396-0.29-3.104-0.871c-0.707-0.581-1.063-1.423-1.063-2.531
	c0-1.554,0.997-2.924,2.998-4.12c0.381,0.579,0.949,1.355,1.697,2.329c1.313,1.688,2.426,2.977,3.34,3.864
	C183.446,38.371,182.155,38.813,180.642,38.813L180.642,38.813z M180.47,28.962c-0.699-1.225-1.05-2.402-1.05-3.529
	c0-0.803,0.213-1.438,0.638-1.908c0.426-0.468,1.018-0.704,1.782-0.704c0.667,0,1.178,0.201,1.533,0.602
	c0.361,0.4,0.541,0.899,0.541,1.497c0,0.869-0.299,1.611-0.887,2.227C182.438,27.76,181.583,28.365,180.47,28.962L180.47,28.962z
	 M291.949,36.761c0,2.482-2.207,4.09-5.246,4.09c-2.822,0-4.92-1.362-5.205-3.856c-0.037-0.164,0.007-0.335,0.121-0.458
	c0.116-0.123,0.282-0.185,0.45-0.155h1.214c0.353,0,0.505,0.203,0.615,0.548c0.245,1.239,1.36,1.701,2.805,1.701
	c1.595,0,2.848-0.572,2.848-1.854c0-3.119-7.849-1.104-7.849-6.281c0-2.466,2.196-4.089,5.001-4.089
	c2.576,0,4.645,1.364,4.933,3.842c0.033,0.164-0.017,0.333-0.127,0.454c-0.114,0.12-0.278,0.182-0.447,0.16h-1.21
	c-0.355,0-0.502-0.203-0.616-0.544c-0.296-1.125-1.378-1.853-2.532-1.704c-1.361,0-2.617,0.571-2.617,1.865
	C284.086,33.641,291.949,31.555,291.949,36.761L291.949,36.761z M237.961,39.885v-8.261c-0.205-2.623-2.258-4.727-4.879-4.995
	s-5.059,1.378-5.791,3.91c-0.025,0.164,0.024,0.331,0.139,0.45c0.118,0.121,0.282,0.18,0.45,0.161h1.199
	c0.355,0,0.514-0.204,0.612-0.546c0.527-1.37,1.954-2.169,3.398-1.903c1.447,0.268,2.495,1.526,2.499,2.994v1.946
	c-1.066-1.096-2.562-1.677-4.086-1.591c-2.511,0-4.839,1.443-4.839,4.388c0,2.94,2.328,4.4,4.839,4.4
	c1.571,0.11,3.097-0.548,4.086-1.771v0.817c-0.018,0.16,0.041,0.315,0.155,0.43c0.113,0.11,0.274,0.164,0.433,0.143h1.198
	c0.156,0.017,0.315-0.036,0.43-0.15C237.916,40.196,237.973,40.041,237.961,39.885L237.961,39.885z M232.198,34.025
	c2.028,0,3.391,0.911,3.391,2.383c0,1.375-1.252,2.385-3.391,2.385c-2.14,0-3.119-1.022-3.119-2.385
	C229.079,35.047,230.165,34.025,232.198,34.025L232.198,34.025z M195.854,39.868V21.785c0.018-0.141,0.087-0.272,0.193-0.36
	c0.11-0.09,0.253-0.131,0.396-0.116h1.222c0.164-0.019,0.32,0.039,0.435,0.153c0.114,0.112,0.172,0.272,0.154,0.431v7.251
	c1.129-1.754,3.093-2.787,5.179-2.726c3.86,0.167,6.906,3.347,6.906,7.213c0,3.865-3.046,7.047-6.906,7.214
	c-2.082,0.058-4.046-0.978-5.179-2.724v1.746c0.012,0.156-0.044,0.312-0.158,0.422c-0.116,0.11-0.271,0.163-0.431,0.146h-1.222
	c-0.161,0.025-0.319-0.027-0.434-0.139C195.896,40.184,195.839,40.024,195.854,39.868L195.854,39.868z M203.159,28.764
	c-2.687-0.017-4.883,2.146-4.904,4.836c-0.032,1.304,0.466,2.572,1.387,3.501c0.92,0.928,2.184,1.439,3.488,1.419
	c2.691,0,4.871-2.176,4.883-4.866C208.017,30.963,205.846,28.776,203.159,28.764L203.159,28.764z M260.552,26.472
	c2.56,0,4.604,1.936,4.604,5.164v8.339c0.016,0.16-0.037,0.319-0.157,0.43c-0.109,0.114-0.272,0.164-0.429,0.144h-1.226
	c-0.156,0.016-0.312-0.037-0.425-0.147c-0.112-0.11-0.165-0.27-0.149-0.426v-8.257c0.075-0.789-0.195-1.576-0.744-2.146
	c-0.551-0.574-1.324-0.881-2.118-0.838c-1.701,0-3.418,1.035-3.418,4.003v7.238c0.012,0.16-0.044,0.315-0.16,0.426
	c-0.114,0.11-0.269,0.163-0.426,0.147h-1.225c-0.161,0.021-0.319-0.029-0.436-0.144c-0.114-0.11-0.172-0.27-0.15-0.43V21.893
	c-0.021-0.159,0.036-0.319,0.15-0.431c0.116-0.115,0.274-0.172,0.436-0.153h1.225c0.161-0.019,0.319,0.039,0.43,0.153
	c0.116,0.112,0.172,0.272,0.156,0.431v6.609c0.892-1.372,2.453-2.149,4.089-2.03H260.552L260.552,26.472z M151.104,32.229
	l-1.33,8.224H131.59v-0.294c0.636-0.032,1.102-0.11,1.403-0.229c0.301-0.115,0.554-0.308,0.767-0.577
	c0.194-0.27,0.319-0.561,0.376-0.871l0.059-0.462c0.019-0.155,0.039-0.34,0.057-0.553c0.021-0.208,0.029-0.47,0.029-0.781v-1.186
	V26.12v-1.648c0-0.581-0.043-1.033-0.129-1.362s-0.221-0.617-0.392-0.869c-0.192-0.27-0.44-0.458-0.737-0.562
	c-0.3-0.106-0.776-0.19-1.433-0.248v-0.291h17.05l1.158,6.66h-0.285c-0.157-0.366-0.301-0.691-0.426-0.969
	c-0.124-0.282-0.258-0.536-0.4-0.769c-0.148-0.231-0.304-0.456-0.48-0.679c-0.174-0.223-0.375-0.468-0.608-0.738
	c-0.924-1.1-1.934-1.902-3.026-2.405c-1.088-0.5-2.35-0.752-3.777-0.752h-0.81v8.917c0.81-0.078,1.495-0.217,2.055-0.419
	c0.561-0.201,1.08-0.5,1.564-0.884c0.384-0.327,0.685-0.646,0.897-0.955c0.211-0.33,0.362-0.618,0.446-0.87
	c0.088-0.249,0.169-0.625,0.248-1.13h0.29v8.92h-0.29c-0.309-1.313-0.916-2.364-1.824-3.158c-0.462-0.404-0.935-0.692-1.419-0.868
	c-0.48-0.172-1.139-0.279-1.967-0.317v6.833c0,1.002,0.114,1.677,0.345,2.028c0.233,0.345,0.688,0.521,1.362,0.521
	c0.908,0,1.818-0.201,2.736-0.598c0.916-0.393,1.783-0.937,2.588-1.631c0.813-0.696,1.546-1.526,2.201-2.491
	c0.658-0.965,1.189-2.016,1.595-3.157H151.104L151.104,32.229z M118.373,40.429V40.09c0.462-0.021,0.922-0.099,1.364-0.233
	c0.3-0.122,0.562-0.319,0.76-0.572c0.187-0.263,0.317-0.556,0.382-0.871c0-0.151,0-0.299,0-0.45s0-0.34,0-0.56
	c0.017-0.255,0.017-0.508,0-0.761v-12.13c0.015-0.456-0.028-0.914-0.121-1.362c-0.088-0.304-0.221-0.593-0.397-0.858
	c-0.184-0.256-0.439-0.45-0.736-0.558c-0.464-0.139-0.945-0.221-1.431-0.246v-0.339h11.078v0.339
	c-0.46,0.026-0.918,0.109-1.362,0.246c-0.298,0.112-0.558,0.307-0.748,0.558c-0.212,0.242-0.348,0.54-0.383,0.858
	c-0.039,0.151-0.067,0.307-0.082,0.465c0,0.163,0,0.339,0,0.543c0,0.207,0,0.479,0,0.804v12.129
	c-0.012,0.458,0.035,0.916,0.137,1.362c0.078,0.311,0.213,0.604,0.395,0.87c0.186,0.258,0.441,0.454,0.736,0.573
	c0.464,0.14,0.944,0.221,1.429,0.233v0.339L118.373,40.429L118.373,40.429z M112.28,21.08H98.15l-0.749,5.872h0.285l0.368-0.748
	c0.09-0.202,0.203-0.393,0.329-0.572c0.117-0.188,0.252-0.362,0.393-0.53l0.505-0.603c0.593-0.689,1.27-1.305,2.016-1.824
	l0.765-0.491c0.214-0.126,0.439-0.241,0.667-0.339c0.235-0.098,0.476-0.18,0.722-0.245l0.914-0.219v15.263c0,0.313,0,0.572,0,0.777
	c0,0.203,0,0.392,0,0.543l-0.082,0.438c-0.088,0.315-0.235,0.614-0.436,0.871c-0.243,0.262-0.548,0.463-0.885,0.585
	c-0.525,0.139-1.067,0.217-1.609,0.233v0.339h11.829V40.09c-0.552-0.017-1.102-0.095-1.636-0.233
	c-0.335-0.106-0.629-0.311-0.844-0.585c-0.202-0.246-0.343-0.535-0.411-0.847c-0.088-0.445-0.137-0.904-0.149-1.362
	c0-0.216,0-0.449,0-0.719v-14.99c0.291,0.049,0.577,0.112,0.859,0.188c0.231,0.061,0.46,0.133,0.681,0.221
	c0.215,0.092,0.426,0.199,0.627,0.313c0.258,0.139,0.509,0.292,0.75,0.462c0.348,0.214,0.675,0.462,0.979,0.736
	c0.315,0.272,0.613,0.558,0.9,0.847l0.599,0.667c0.166,0.192,0.317,0.399,0.45,0.613c0.144,0.217,0.266,0.444,0.368,0.681
	c0.123,0.231,0.246,0.52,0.382,0.844h0.285l-0.682-5.873L112.28,21.08L112.28,21.08z M85.111,40.429V40.09
	c0.462-0.021,0.923-0.099,1.364-0.233c0.298-0.122,0.562-0.319,0.763-0.572c0.184-0.263,0.313-0.556,0.38-0.871
	c0-0.151,0-0.299,0-0.45s0-0.34,0-0.56c0.014-0.255,0.014-0.508,0-0.761v-12.13c0.012-0.456-0.028-0.914-0.121-1.362
	c-0.088-0.304-0.223-0.593-0.396-0.858c-0.184-0.256-0.442-0.45-0.736-0.558c-0.466-0.139-0.945-0.221-1.432-0.246v-0.339h11.079
	v0.339c-0.462,0.026-0.92,0.109-1.362,0.246c-0.299,0.112-0.558,0.307-0.749,0.558c-0.213,0.242-0.348,0.54-0.382,0.858
	c-0.041,0.151-0.067,0.307-0.083,0.465c0,0.163,0,0.339,0,0.543c0,0.207,0,0.479,0,0.804v12.129
	c-0.01,0.458,0.035,0.916,0.137,1.362c0.08,0.311,0.212,0.604,0.396,0.87c0.184,0.258,0.442,0.454,0.736,0.573
	c0.462,0.14,0.945,0.221,1.427,0.233v0.339L85.111,40.429z"/>
<path fill-rule="evenodd" clip-rule="evenodd" fill="#00B6C3" d="M30.215,59.434c16.092,0,29.216-13.128,29.216-29.218
	C59.431,14.125,46.308,1,30.215,1S1,14.125,1,30.215C1,46.306,14.123,59.434,30.215,59.434z"/>
<path fill-rule="evenodd" clip-rule="evenodd" fill="#FFFFFF" d="M14.36,28.304h7.295v-1.323h-5.778V15.365H14.36V28.304
	L14.36,28.304z M26.87,18.362c-2.959,0-4.515,2.374-4.515,5.253c0,2.899,1.285,4.962,4.321,4.962c1.556,0,2.683-0.701,3.172-1.11
	l-0.585-0.992c-0.37,0.272-1.186,0.894-2.491,0.894c-2.063,0-2.84-1.673-2.918-3.268c0.156,0,0.311,0.019,0.505,0.019
	c1.887,0,5.351-0.466,5.351-3.345C29.71,19.335,28.68,18.362,26.87,18.362L26.87,18.362z M28.29,20.948
	c0,1.753-2.722,2.063-4.047,2.063c-0.156,0-0.272-0.021-0.389-0.021c0.057-1.535,0.855-3.5,2.938-3.5
	C27.667,19.491,28.29,20.035,28.29,20.948L28.29,20.948z M31.714,14.782v10.876c0,1.421,0.078,2.92,2.664,2.92
	c0.779,0,1.636-0.253,2.2-0.642l-0.447-1.012c-0.332,0.192-0.818,0.466-1.479,0.466c-0.914,0-1.421-0.409-1.421-1.693v-5.758h2.764
	v-1.304h-2.764v-3.853H31.714L31.714,14.782z M38.466,14.256l-1.111,4.3l0.914,0.272c1.033-1.771,1.753-3.151,1.753-3.832
	c0-0.621-0.487-0.779-1.031-0.779C38.834,14.217,38.601,14.238,38.466,14.256L38.466,14.256z M40.218,27.643
	c0.407,0.35,1.673,0.935,3.247,0.935c1.986,0,3.386-1.053,3.386-2.958c0-1.965-1.538-2.431-2.938-2.859
	c-1.109-0.331-2.063-0.603-2.063-1.752c0-1.069,0.935-1.499,1.773-1.499c0.99,0,1.769,0.448,2.411,1.051l0.877-0.896
	c-0.702-0.699-1.851-1.302-3.231-1.302c-1.693,0-3.249,0.914-3.249,2.86c0,1.926,1.38,2.411,2.936,2.781
	c1.129,0.272,2.006,0.624,2.006,1.752c0,1.147-0.838,1.652-1.926,1.652c-1.129,0-2.084-0.466-2.646-0.855L40.218,27.643
	L40.218,27.643z M22.249,49.328c2.607,0,3.892-1.693,4.046-4.438c0.039-0.834,0.058-1.828,0.058-2.662v-7.279
	c-1.088-0.466-2.53-0.679-3.579-0.679c-2.625,0-4.533,1.595-4.533,4.862c0,3.096,1.712,4.086,3.482,4.224
	c-1.4,0.777-2.529,1.809-2.529,3.46C19.194,48.395,20.245,49.328,22.249,49.328L22.249,49.328z M24.856,40.106
	c0,1.439-0.973,2.335-2.47,2.335c-2.375,0-2.646-1.906-2.646-3.464c0-2.355,1.126-3.563,2.858-3.563
	c0.953,0,1.675,0.159,2.257,0.352V40.106L24.856,40.106z M20.654,46.624c0-1.517,1.321-2.588,4.182-3.93v1.497
	c0,2.18-0.525,3.971-2.45,3.971C21.333,48.162,20.654,47.733,20.654,46.624L20.654,46.624z M32.755,43.316
	c-2.219,0-2.607-2.278-2.607-4.205c0-2.102,0.836-3.655,2.685-3.655c1.888,0,2.568,1.636,2.568,3.971
	C35.401,41.546,34.604,43.316,32.755,43.316L32.755,43.316L32.755,43.316z M28.631,39.308c0,3.501,1.517,5.178,3.987,5.178
	c2.433,0,4.32-1.599,4.32-5.39c0-4.399-2.646-4.825-3.989-4.825C31.023,34.271,28.631,35.28,28.631,39.308L28.631,39.308z
	 M39.662,33.897l0.313,7.104h0.953l0.329-7.104V31.41c0-0.41-0.137-0.72-0.815-0.72c-0.624,0-0.779,0.33-0.779,0.699V33.897
	L39.662,33.897z M39.352,43.435c0,0.622,0.427,1.088,1.108,1.088c0.643,0,1.071-0.507,1.071-1.107c0-0.606-0.447-1.052-1.131-1.052
	C39.818,42.363,39.352,42.851,39.352,43.435z"/>
</svg>
