<?xml version="1.0" encoding="utf-8"?>
<svg width="293px" height="42px" viewBox="0 0 293 42" version="1.1" xmlns:xlink="http://www.w3.org/1999/xlink" xmlns="http://www.w3.org/2000/svg">
  <desc>Created with Lunacy</desc>
  <defs>
    <linearGradient x1="1.0444479" y1="0.502938867" x2="-0.04239317" y2="0.489370167" id="gradient_1">
      <stop offset="0" stop-color="#6EA606" />
      <stop offset="0.51" stop-color="#A0C904" />
      <stop offset="1" stop-color="#A6D200" />
    </linearGradient>
    <linearGradient x1="1.07173181" y1="0.574101031" x2="1.04341781" y2="-0.5101751" id="gradient_2">
      <stop offset="0" stop-color="#6EA606" />
      <stop offset="0.51" stop-color="#A0C904" />
      <stop offset="1" stop-color="#A6D200" />
    </linearGradient>
  </defs>
  <g id="Citrus-Holidays-Logo">
    <path d="M12.725 10.8552L15.9976 7.54771C16.6201 6.87649 16.6201 5.83892 15.9976 5.16771L12.725 1.84271C11.5466 0.662915 9.94755 0 8.28005 0C6.61255 0 5.01346 0.662915 3.83505 1.84271L0.47505 5.16771C-0.15835 5.84137 -0.15835 6.89154 0.47505 7.56521L3.78255 10.8377C4.96067 12.036 6.56973 12.7123 8.25014 12.7156C9.93056 12.7189 11.5422 12.0488 12.725 10.8552Z" transform="translate(1.69495 5.419795)" id="Path" fill="url(#gradient_1)" stroke="none" />
    <path d="M6.91654 8.08345L4.81654 10.2009C4.39422 10.6168 3.71636 10.6168 3.29404 10.2009L1.17654 8.11845C-0.392181 6.54713 -0.392181 4.00227 1.17654 2.43095L3.25904 0.313446C3.68731 -0.104482 4.37077 -0.104482 4.79904 0.313446L6.89904 2.39595C8.47261 3.96243 8.48044 6.5073 6.91654 8.08345L6.91654 8.08345Z" transform="translate(15.58846 0.001554022)" id="Path" fill="url(#gradient_2)" stroke="none" />
    <path d="M8.29941 6.63653C11.5894 6.63653 14.2144 9.12153 14.2144 13.269L14.2144 23.979C14.238 24.1835 14.1657 24.3873 14.0185 24.5311C13.8712 24.6749 13.6657 24.7425 13.4619 24.714L11.8869 24.714C11.6859 24.7366 11.4856 24.6664 11.3425 24.5234C11.1995 24.3804 11.1294 24.18 11.1519 23.979L11.1519 13.374C11.2504 12.3584 10.9007 11.3504 10.1945 10.6139C9.48825 9.87738 8.49577 9.48575 7.47691 9.54153C5.28941 9.54153 3.08441 10.8715 3.08441 14.6865L3.08441 23.979C3.1012 24.1818 3.02667 24.3815 2.88113 24.5236C2.73558 24.6658 2.53421 24.7356 2.33191 24.714L0.756906 24.714C0.553079 24.7425 0.347569 24.6749 0.200343 24.5311C0.0531177 24.3873 -0.019232 24.1835 0.00440609 23.979L0.00440609 0.756531C-0.0180306 0.550893 0.0540081 0.346175 0.200279 0.199904C0.34655 0.0536328 0.551268 -0.0184058 0.756906 0.00403087L2.33191 0.00403087C2.53754 -0.0184058 2.74226 0.0536328 2.88853 0.199904C3.0348 0.346175 3.10684 0.550893 3.08441 0.756531L3.08441 9.24403C4.22784 7.48238 6.23981 6.4831 8.3344 6.63653L8.29941 6.63653Z" transform="translate(166.4031 9.095969)" id="Path" fill="#1D1D1B" stroke="none" />
    <path d="M5.72737 0.717348C2.24746 2.16837 -0.0137444 5.57497 0.000423058 9.34525C-0.0232655 11.8154 0.948724 14.191 2.69708 15.936C4.44544 17.6811 6.82286 18.6486 9.29292 18.6203C13.0632 18.6273 16.4656 16.3597 17.91 12.8771C19.3545 9.39441 18.5558 5.38441 15.8873 2.7209C13.2188 0.0574036 9.20729 -0.73367 5.72737 0.717348ZM9.25822 3.16785C12.692 3.1486 15.494 5.9115 15.5229 9.34525C15.5611 11.0138 14.9188 12.626 13.7436 13.811C12.5685 14.9961 10.9617 15.652 9.29292 15.6278C5.85905 15.6276 3.07273 12.849 3.06317 9.41511C3.0536 5.98125 5.8244 3.1871 9.25822 3.16785Z" transform="translate(183.8721 15.67975)" id="Shape" fill="#1D1D1B" fill-rule="evenodd" stroke="none" />
    <path d="M0.00472854 24.679L0.00472854 0.756531C-0.0177082 0.550893 0.0543306 0.346175 0.200602 0.199904C0.346873 0.0536328 0.551591 -0.0184058 0.75723 0.00403087L2.31473 0.00403087C2.52037 -0.0184058 2.72509 0.0536328 2.87136 0.199904C3.01763 0.346175 3.08967 0.550893 3.06723 0.756531L3.06723 24.679C3.09087 24.8835 3.01852 25.0873 2.8713 25.2311C2.72407 25.3749 2.51856 25.4425 2.31473 25.414L0.77473 25.414C0.568145 25.4486 0.357351 25.3838 0.20584 25.2392C0.0543286 25.0946 -0.0201902 24.887 0.00472854 24.679L0.00472854 24.679Z" transform="translate(206.1453 8.395969)" id="Path" fill="#1D1D1B" stroke="none" />
    <path d="M0.00440609 0.756531L0.00440609 3.13653C-0.0180306 3.34217 0.0540081 3.54689 0.200279 3.69316C0.34655 3.83943 0.551268 3.91147 0.756906 3.88903L2.31441 3.88903C2.52004 3.91147 2.72476 3.83943 2.87103 3.69316C3.0173 3.54689 3.08934 3.34217 3.06691 3.13653L3.06691 0.756531C3.08934 0.550893 3.0173 0.346175 2.87103 0.199904C2.72476 0.0536328 2.52004 -0.0184058 2.31441 0.00403087L0.756906 0.00403087C0.551268 -0.0184058 0.34655 0.0536328 0.200279 0.199904C0.0540081 0.346175 -0.0180306 0.550893 0.00440609 0.756531ZM0.00440609 7.82653L0.00440609 23.979C-0.019232 24.1835 0.0531177 24.3873 0.200343 24.5311C0.347569 24.6749 0.553079 24.7425 0.756906 24.714L2.31441 24.714C2.51823 24.7425 2.72374 24.6749 2.87097 24.5311C3.01819 24.3873 3.09054 24.1835 3.06691 23.979L3.06691 7.82653C3.08934 7.62089 3.0173 7.41618 2.87103 7.2699C2.72476 7.12363 2.52004 7.05159 2.31441 7.07403L0.756906 7.07403C0.551268 7.05159 0.34655 7.12363 0.200279 7.2699C0.0540081 7.41618 -0.0180306 7.62089 0.00440609 7.82653Z" transform="translate(213.9156 9.095969)" id="Shape" fill="#1D1D1B" fill-rule="evenodd" stroke="none" />
    <path d="M18.6022 23.839L18.6022 0.616531C18.5846 0.435132 18.4951 0.268325 18.3538 0.153272C18.2124 0.0382204 18.0309 -0.0155177 17.8497 0.00403087L16.2747 0.00403087C16.0691 -0.0184058 15.8644 0.0536328 15.7181 0.199904C15.5718 0.346175 15.4998 0.550893 15.5222 0.756531L15.5222 10.0665C14.0712 7.81611 11.5488 6.48853 8.87221 6.56653C3.91111 6.78218 0 10.867 0 15.8328C0 20.7986 3.91111 24.8834 8.87221 25.099C11.5472 25.1701 14.0664 23.8442 15.5222 21.599L15.5222 23.839C15.5054 24.0418 15.58 24.2415 15.7255 24.3836C15.871 24.5258 16.0724 24.5956 16.2747 24.574L17.8497 24.574C18.0535 24.6025 18.2591 24.5349 18.4063 24.3911C18.5535 24.2473 18.6259 24.0435 18.6022 23.839ZM9.22251 9.57663C12.6757 9.55738 15.4933 12.3359 15.5222 15.789C15.5654 17.4683 14.921 19.0923 13.7382 20.285C12.5553 21.4778 10.9367 22.1357 9.25722 22.1065C5.80401 22.1064 3.00202 19.3121 2.99246 15.8589C2.98289 12.4057 5.76936 9.59588 9.22251 9.57663Z" transform="translate(220.7453 9.23597)" id="Shape" fill="#1D1D1B" fill-rule="evenodd" stroke="none" />
    <path d="M14.5075 17.0587L14.5075 6.45366C14.2433 3.08135 11.6055 0.380389 8.24037 0.0365712C4.87525 -0.307247 1.74569 1.80445 0.805 5.05366C0.770642 5.2649 0.837355 5.48002 0.985206 5.63474C1.13306 5.78947 1.34492 5.86589 1.5575 5.84116L3.0975 5.84116C3.5525 5.84116 3.7625 5.57866 3.885 5.14116C4.56368 3.38109 6.39971 2.354 8.25471 2.69672C10.1097 3.03944 11.4575 4.65478 11.4625 6.54116L11.4625 9.04366C10.0904 7.63489 8.17609 6.88831 6.2125 6.99616C2.9925 6.99616 0 8.85116 0 12.6312C0 16.4112 2.9925 18.2837 6.2125 18.2837C8.22886 18.4273 10.1885 17.5781 11.4625 16.0087L11.4625 17.0587C11.4389 17.2631 11.5112 17.467 11.6584 17.6108C11.8057 17.7546 12.0112 17.8221 12.215 17.7937L13.755 17.7937C13.9573 17.8152 14.1587 17.7454 14.3042 17.6033C14.4498 17.4611 14.5243 17.2614 14.5075 17.0587ZM7.105 9.53366C9.7125 9.53366 11.4625 10.7062 11.4625 12.5962C11.4625 14.3637 9.8525 15.6587 7.105 15.6587C4.3575 15.6587 3.0975 14.3462 3.0975 12.5962C3.0975 10.8462 4.4975 9.53366 7.105 9.53366Z" transform="translate(243.005 16.01634)" id="Shape" fill="#1D1D1B" fill-rule="evenodd" stroke="none" />
    <path d="M13.5024 0.00443671L15.2524 0.00443671C15.7774 0.00443671 16.0399 0.319437 15.8474 0.861937L7.72739 24.1194C7.6144 24.4928 7.25921 24.7393 6.86989 24.7144L5.11988 24.7144C4.90076 24.7447 4.68296 24.6509 4.5544 24.4709C4.42583 24.2909 4.40772 24.0544 4.50738 23.8569L6.72988 17.4694L0.0798795 0.861937C-0.130121 0.336937 0.0798795 0.00443671 0.63988 0.00443671L2.38988 0.00443671C2.77789 -0.03629 3.13926 0.207077 3.24738 0.581937L8.32239 13.2169L12.6974 0.616937C12.7989 0.255982 13.1274 0.00604739 13.5024 0.00443671L13.5024 0.00443671Z" transform="translate(259.6026 16.16556)" id="Path" fill="#1D1D1B" stroke="none" />
    <path d="M13.4398 13.3C13.4398 16.485 10.6048 18.55 6.70228 18.55C3.07978 18.55 0.384777 16.8 0.0172766 13.5975C-0.0323639 13.3869 0.0264988 13.1654 0.174152 13.0072C0.321806 12.849 0.538729 12.775 0.752277 12.81L2.30978 12.81C2.76478 12.81 2.95728 13.0725 3.09728 13.51C3.41228 15.1025 4.84728 15.6975 6.70228 15.6975C8.74978 15.6975 10.3598 14.9625 10.3598 13.3175C10.3598 9.31 0.279777 11.9 0.279777 5.25C0.279777 2.0825 3.09728 0 6.70228 0C10.0098 0 12.6698 1.75 13.0373 4.935C13.0782 5.14427 13.0163 5.36048 12.8708 5.51636C12.7253 5.67225 12.5139 5.74891 12.3023 5.7225L10.7448 5.7225C10.2898 5.7225 10.0973 5.46 9.95728 5.0225C9.57447 3.58017 8.18235 2.64461 6.70228 2.835C4.95228 2.835 3.34228 3.57 3.34228 5.2325C3.34228 9.2925 13.4398 6.615 13.4398 13.3Z" transform="translate(277.0777 15.7325)" id="Path" fill="#1D1D1B" stroke="none" />
    <path d="M22.26 25.8478L21.8925 25.8478C21.8882 25.6372 21.7978 25.4376 21.6424 25.2954C21.487 25.1532 21.2802 25.0809 21.07 25.0953L20.685 25.0953L20.2825 25.0953L19.32 25.2878L18.3925 25.4628L17.395 25.6378L16.7125 25.7428L15.8025 25.7428C15.365 25.7428 14.9975 25.7428 14.6825 25.7428L13.86 25.7428C11.9858 25.7611 10.1258 25.4164 8.38251 24.7278C6.7562 24.1092 5.26471 23.1822 3.99001 21.9978C2.74354 20.8522 1.74324 19.4649 1.05001 17.9203C-0.350004 14.694 -0.350004 11.0317 1.05001 7.80534C1.72692 6.27814 2.68914 4.89421 3.88501 3.72784C5.12518 2.56742 6.56615 1.64236 8.13751 0.997837C9.80586 0.326626 11.5893 -0.0122189 13.3875 0.00033656C15.0739 0.0260116 16.7524 0.237284 18.3925 0.630337L18.97 0.770337L19.25 0.770337C19.4562 0.825158 19.6672 0.860315 19.88 0.875336C20.0547 0.890027 20.2303 0.890027 20.405 0.875336C20.6073 0.888423 20.8087 0.839589 20.9825 0.735337C21.1463 0.589622 21.2672 0.402085 21.3325 0.192837L21.7 0.192837L22.295 10.0453L21.9275 10.0453L21.455 8.69784C21.315 8.31284 21.175 7.94534 21.0175 7.59534L20.4925 6.56284L19.81 5.37284C17.745 2.0245 15.54 0.35617 13.195 0.367837C11.3069 0.435044 9.67923 1.71597 9.17001 3.53534C8.11439 6.54472 7.65088 9.7299 7.80501 12.9153C7.67656 16.0375 8.27566 19.1469 9.55501 21.9978C10.3266 23.9158 12.1778 25.1798 14.245 25.2003C15.0946 25.1859 15.9216 24.9245 16.625 24.4478C17.4954 23.8659 18.264 23.1446 18.9 22.3128C19.6842 21.3055 20.3534 20.2138 20.895 19.0578C21.5072 17.7417 21.9936 16.3706 22.3475 14.9628L22.715 14.9628L22.26 25.8478Z" transform="translate(15.99499 8.417164)" id="Path" fill="#3A3A3A" stroke="none" />
    <path d="M0.2275 24.7625L0.2275 24.325C0.821236 24.3018 1.40947 24.2018 1.9775 24.0275C2.3627 23.8722 2.70056 23.6188 2.9575 23.2925C3.19487 22.9561 3.36156 22.5751 3.4475 22.1725C3.4475 21.98 3.4475 21.7875 3.4475 21.595C3.4475 21.4025 3.4475 21.1575 3.4475 20.8775C3.46732 20.5511 3.46732 20.2239 3.4475 19.8975L3.4475 4.3225C3.46336 3.73502 3.4105 3.14771 3.29 2.5725C3.17857 2.18108 3.00738 1.8092 2.7825 1.47C2.54676 1.1413 2.21745 0.891264 1.8375 0.7525C1.23998 0.573634 0.622979 0.467862 0 0.4375L0 0L14.2275 0L14.2275 0.4375C13.6336 0.471464 13.046 0.577234 12.4775 0.7525C12.0951 0.895548 11.7613 1.14439 11.515 1.47C11.2428 1.77874 11.0717 2.16354 11.025 2.5725C10.9745 2.76779 10.9394 2.96673 10.92 3.1675C10.92 3.3775 10.92 3.605 10.92 3.8675C10.92 4.13 10.92 4.48 10.92 4.9L10.92 20.475C10.9056 21.0633 10.9644 21.6512 11.095 22.225C11.1967 22.6254 11.3686 23.0045 11.6025 23.345C11.8424 23.6738 12.1698 23.9285 12.5475 24.08C13.144 24.2605 13.762 24.3606 14.385 24.3775L14.385 24.815L0.2275 24.7625Z" transform="translate(40.5475 9.1175)" id="Path" fill="#3A3A3A" stroke="none" />
    <path d="M19.4425 23.8525L19.845 24.78L30.4675 24.6925L30.4675 24.255C29.9054 24.2288 29.3479 24.1408 28.805 23.9925C28.4164 23.8718 28.0582 23.6689 27.755 23.3975C27.3824 23.0217 27.0537 22.6049 26.775 22.155C26.425 21.595 26.0225 20.93 25.6025 20.1425L23.485 16.1C22.8757 14.7652 21.9934 13.5729 20.895 12.6C20.558 12.3586 20.1862 12.1698 19.7925 12.04C19.2226 11.8531 18.6368 11.7184 18.0425 11.6375C19.7586 11.497 21.4041 10.8921 22.8025 9.8875C23.8977 9.11887 24.5505 7.86549 24.5525 6.5275C24.5456 5.52258 24.2277 4.54444 23.6425 3.7275C22.9943 2.82739 22.135 2.10025 21.14 1.61C20.4966 1.2909 19.8297 1.02177 19.145 0.805C18.4091 0.564983 17.6538 0.389323 16.8875 0.28C16.0475 0.1575 15.1025 0 14.07 0L0 0L0 0.3675C0.622979 0.397862 1.23998 0.503634 1.8375 0.6825C2.22077 0.815124 2.55179 1.06645 2.7825 1.4C3.02092 1.73791 3.19312 2.11795 3.29 2.52C3.41833 3.0942 3.47709 3.68176 3.465 4.27L3.465 19.8975C3.48531 20.2297 3.48531 20.5628 3.465 20.895C3.47713 21.1282 3.47713 21.3618 3.465 21.595L3.465 22.19C3.39402 22.592 3.2258 22.9705 2.975 23.2925C2.72401 23.6289 2.38483 23.8894 1.995 24.045C1.42697 24.2193 0.838736 24.3193 0.245 24.3425L0.245 24.78L14.4725 24.78L14.4725 24.3425C13.8495 24.3256 13.2315 24.2255 12.635 24.045C12.2573 23.8935 11.9298 23.6388 11.69 23.31C11.5473 23.1218 11.4297 22.9159 11.34 22.6975C11.235 22.4214 11.1644 22.1334 11.13 21.84C11.0973 21.3914 11.0973 20.9411 11.13 20.4925L11.13 12.46L11.795 12.46C12.4129 12.4717 13.0167 12.6468 13.545 12.9675C14.1468 13.3388 14.6508 13.8489 15.015 14.455C15.3825 15.015 15.8025 15.8025 16.2925 16.765C16.7825 17.7275 17.36 18.97 18.0425 20.51C18.2 20.8775 18.3925 21.3675 18.62 21.9275C18.8475 22.4875 19.1275 23.135 19.4425 23.8525ZM14.4725 0.84C15.0511 1.05421 15.5555 1.43097 15.925 1.925C16.7207 3.23427 17.1048 4.75236 17.0275 6.2825C17.1448 7.84514 16.725 9.401 15.8375 10.6925C14.8583 11.6881 13.4827 12.1895 12.0925 12.0575L11.06 12.0575L11.06 0.5075L12.0925 0.5075C12.8988 0.485399 13.7031 0.597771 14.4725 0.84Z" transform="translate(82.9325 9.1)" id="Shape" fill="#3A3A3A" fill-rule="evenodd" stroke="none" />
    <path d="M26.985 1.1375C26.5175 1.48982 26.1298 1.93712 25.8475 2.45C25.1027 3.7897 24.6103 5.25486 24.395 6.7725C24.0654 9.03199 23.9191 11.3144 23.9575 13.5975L23.9575 16.45C23.9932 17.6684 23.8697 18.8861 23.59 20.0725C23.3634 20.9487 22.9516 21.7663 22.3825 22.47C20.825 24.395 18.1825 25.375 14.4375 25.375C11.5138 25.533 8.60881 24.8204 6.09 23.3275C5.62745 23.005 5.20453 22.629 4.83 22.2075C4.46552 21.8001 4.1859 21.3242 4.0075 20.8075C3.79921 20.1887 3.65839 19.5491 3.5875 18.9C3.48885 18.0403 3.4421 17.1754 3.4475 16.31L3.4475 4.3925C3.46336 3.80502 3.4105 3.21771 3.29 2.6425C3.18193 2.24439 3.01058 1.86623 2.7825 1.5225C2.54676 1.1938 2.21745 0.943764 1.8375 0.805C1.23998 0.626134 0.622979 0.520362 0 0.49L0 0.1225L14 0.1225L14 0.49C13.4052 0.516397 12.8167 0.622339 12.25 0.805C11.8936 0.959938 11.5854 1.20773 11.3575 1.5225C11.1286 1.85784 10.979 2.24083 10.92 2.6425C10.8652 2.83621 10.8358 3.03622 10.8325 3.2375C10.8325 3.43 10.8325 3.675 10.8325 3.955C10.8325 4.235 10.8325 4.585 10.8325 4.9875L10.8325 15.155C10.8325 16.1175 10.8325 16.905 10.8325 17.64C10.8325 18.375 10.8325 18.935 10.9725 19.39C11.0121 19.8243 11.1001 20.2528 11.235 20.6675C11.3321 21.0165 11.4733 21.3517 11.655 21.665C12.1374 22.4484 12.8536 23.0605 13.7025 23.415C14.6982 23.8825 15.7877 24.1159 16.8875 24.0975C17.7413 24.1032 18.5909 23.9793 19.4075 23.73C20.1125 23.5326 20.7723 23.1998 21.35 22.75C21.9618 22.2293 22.4568 21.5852 22.8025 20.86C22.925 20.5625 23.03 20.2825 23.1175 20.0025C23.2138 19.7069 23.2784 19.4018 23.31 19.0925C23.31 18.76 23.3975 18.375 23.4325 17.9375C23.4675 17.5 23.4325 16.9925 23.4325 16.3975L23.4325 12.985C23.4325 12.25 23.4325 11.55 23.4325 10.92C23.4325 10.29 23.4325 9.695 23.4325 9.17C23.4325 8.645 23.4325 8.05 23.275 7.42C23.1175 6.79 23.135 6.3175 23.03 5.7575C22.925 5.1975 22.82 4.7425 22.6975 4.27C22.5797 3.80788 22.4216 3.35699 22.225 2.9225C21.9879 2.33463 21.637 1.79938 21.1925 1.3475C20.6747 0.915574 20.0813 0.583302 19.4425 0.3675L19.4425 0L28.735 0L28.735 0.3675C28.1072 0.508064 27.5128 0.769603 26.985 1.1375L26.985 1.1375Z" transform="translate(109.935 8.995)" id="Path" fill="#3A3A3A" stroke="none" />
    <path d="M20.2475 20.7031C19.784 21.7003 19.1232 22.5933 18.305 23.3281C17.4537 24.0866 16.4685 24.6801 15.4 25.0781C14.2317 25.5194 12.9913 25.739 11.7425 25.7256C10.5717 25.707 9.40299 25.6194 8.2425 25.4631C6.8425 25.2881 5.355 25.0256 3.7975 24.6756L2.6075 24.4306L1.9775 24.4306C1.6848 24.4125 1.39312 24.4793 1.1375 24.6231C0.917253 24.7926 0.777712 25.0463 0.7525 25.3231L0.3675 25.3231L0 13.8606L0.3675 13.8606C0.5425 14.4206 0.7175 14.9106 0.8575 15.3306C1.00378 15.7449 1.17922 16.1485 1.3825 16.5381C1.575 16.9231 1.8025 17.3431 2.065 17.7631C2.3275 18.1831 2.66 18.7081 3.045 19.3031C3.97229 20.7022 5.04584 21.9986 6.2475 23.1706C6.95145 23.8661 7.78343 24.4188 8.6975 24.7981C9.5926 25.158 10.5503 25.3365 11.515 25.3231C12.6235 25.3726 13.7102 25.0041 14.56 24.2906C15.34 23.5886 15.764 22.5738 15.715 21.5256C15.714 20.4639 15.2624 19.4525 14.4725 18.7431C13.2786 17.7394 11.9075 16.9678 10.43 16.4681L6.8075 15.0681C4.91012 14.4267 3.16483 13.4022 1.68 12.0581C0.64212 11.0399 0.061235 9.64447 0.07 8.19056C0.0673475 7.07335 0.324989 5.97089 0.8225 4.97056C1.30509 3.97133 1.9975 3.08791 2.8525 2.38056C3.75019 1.61343 4.78275 1.02 5.8975 0.630562C7.12901 0.2007 8.4257 -0.0124549 9.73 0.000562105C10.4031 0.00543214 11.0752 0.0521892 11.7425 0.140562C12.425 0.228062 13.2475 0.368062 14.1925 0.560562L15.3825 0.823062C15.9537 0.978139 16.541 1.06623 17.1325 1.08556C17.3463 1.10904 17.5605 1.04602 17.7275 0.910562C17.8882 0.735556 17.992 0.515855 18.025 0.280562L18.3925 0.280562L18.8125 9.50306L18.4275 9.50306C17.703 7.02966 16.4219 4.75491 14.6825 2.85306C13.3871 1.36769 11.5255 0.497246 9.555 0.455562C8.50792 0.401078 7.48009 0.752045 6.685 1.43556C5.94252 2.10101 5.53784 3.06452 5.5825 4.06056C5.58364 4.5991 5.70313 5.13081 5.9325 5.61806C6.15723 6.09352 6.48621 6.51222 6.895 6.84306C7.48332 7.28754 8.11681 7.66881 8.785 7.98056C9.66691 8.421 10.5725 8.81243 11.4975 9.15306L14.9975 10.4831C16.7494 11.0751 18.3379 12.0701 19.635 13.3881C20.6376 14.5257 21.1694 16.0024 21.1225 17.5181C21.0709 18.6315 20.772 19.7195 20.2475 20.7031L20.2475 20.7031Z" transform="translate(139.09 8.696938)" id="Path" fill="#3A3A3A" stroke="none" />
    <path d="M19.11 0.035L0.9625 0.035L0 7.5775L0.3675 7.5775L0.84 6.615C0.955101 6.35659 1.0958 6.11036 1.26 5.88C1.412 5.64023 1.58164 5.4121 1.7675 5.1975L2.415 4.4275C3.1739 3.53771 4.04442 2.74954 5.005 2.0825L5.985 1.4525C6.26175 1.28951 6.54811 1.14341 6.8425 1.015C7.14417 0.889096 7.45405 0.783853 7.77 0.7L8.9425 0.42L8.9425 20.02C8.9425 20.4225 8.9425 20.755 8.9425 21.0175C8.9425 21.28 8.9425 21.525 8.9425 21.7175L8.8375 22.2775C8.72635 22.684 8.53605 23.0647 8.2775 23.3975C7.96431 23.7361 7.57412 23.9942 7.14 24.15C6.46576 24.33 5.77264 24.4299 5.075 24.4475L5.075 24.885L20.265 24.885L20.265 24.4475C19.556 24.4277 18.8516 24.3279 18.165 24.15C17.7355 24.0149 17.3571 23.7525 17.08 23.3975C16.8198 23.0836 16.6397 22.7113 16.555 22.3125C16.4393 21.736 16.3749 21.1504 16.3625 20.5625C16.3625 20.2825 16.3625 19.985 16.3625 19.635L16.3625 0.385C16.7341 0.447059 17.1021 0.528841 17.465 0.63C17.7623 0.704818 18.0545 0.798338 18.34 0.91C18.6152 1.03007 18.8839 1.16442 19.145 1.3125C19.477 1.49213 19.7984 1.69079 20.1075 1.9075C20.5551 2.18398 20.9768 2.50026 21.3675 2.8525C21.77 3.2025 22.155 3.57 22.5225 3.9375L23.2925 4.795C23.5044 5.04267 23.6975 5.30591 23.87 5.5825C24.0518 5.86039 24.2098 6.15309 24.3425 6.4575C24.5 6.755 24.6575 7.1225 24.8325 7.5425L25.2 7.5425L24.325 0L19.11 0.035Z" transform="translate(56.56 8.995)" id="Path" fill="#3A3A3A" stroke="none" />
  </g>
</svg>