<?xml version="1.0" encoding="utf-8"?>
<svg width="99px" height="13px" viewBox="0 0 99 13" version="1.1" xmlns:xlink="http://www.w3.org/1999/xlink" xmlns="http://www.w3.org/2000/svg">
  <desc>Created with Lunacy</desc>
  <defs>
    <path d="M0 0L98.6925 0L98.6925 12.6556L0 12.6556L0 0Z" transform="translate(0 -0.0001733333)" id="path_1" />
    <clipPath id="mask_1">
      <use xlink:href="#path_1" />
    </clipPath>
  </defs>
  <g id="Eva-Air-Logo">
    <path d="M0 0L98.6925 0L98.6925 12.6556L0 12.6556L0 0Z" transform="translate(0 -0.0001733333)" id="Clip-2" fill="none" stroke="none" />
    <g clip-path="url(#mask_1)">
      <path d="M88.218 12.656L82.9565 12.656L82.9565 2.26722e-05L93.1849 2.26722e-05C94.3549 -0.00257733 95.4226 0.218423 96.421 0.674289C97.539 1.16742 98.2661 1.98296 98.4455 2.94236C98.6778 4.05256 98.2211 5.14109 97.1793 5.95402C96.6992 6.33189 96.1255 6.58062 95.4477 6.70456C96.6333 6.91602 97.5451 7.60329 97.8155 8.48989C97.9082 8.80709 97.9663 9.09916 98.0009 9.42329C98.0928 10.3064 98.1864 11.109 98.3008 11.9904C98.332 12.2434 98.4637 12.4679 98.6934 12.656L93.4163 12.656C93.1831 12.3864 93.0488 12.103 93.0037 11.7841C92.8815 10.9772 92.7879 10.2414 92.7056 9.43022C92.6718 9.10262 92.4863 8.81229 92.1657 8.58782C91.845 8.36249 91.4463 8.24116 91.0061 8.23509L88.218 8.23249L88.218 12.656ZM0 2.26722e-05L0 12.656L14.4803 12.656L14.4803 9.34702L5.2936 9.34702L5.2936 7.74109L14.5132 7.74109L14.5132 4.55522L5.2832 4.55522L5.2832 3.29856L14.4837 3.29856L14.4837 2.26722e-05L0 2.26722e-05ZM21.7152 12.656L16.5256 2.26722e-05L22.0567 2.26722e-05L24.8239 7.63709L27.7385 2.26722e-05L33.3051 2.26722e-05L27.9049 12.656L21.7152 12.656ZM31.2737 12.656L37.0275 2.26722e-05L43.6133 2.26722e-05L49.192 12.656L43.5543 12.656L42.8757 10.8646L37.6029 10.8646L36.9035 12.656L31.2737 12.656ZM53.3364 12.656L59.0893 2.26722e-05L65.676 2.26722e-05L71.2547 12.656L65.6162 12.656L64.9385 10.8646L59.6648 10.8646L58.9663 12.656L53.3364 12.656ZM80.1519 12.656L74.7665 12.656L74.7665 2.26722e-05L80.1519 2.26722e-05L80.1519 12.656ZM88.2501 5.33002L91.5521 5.33002C92.0114 5.32742 92.43 5.18876 92.7411 4.93569C93.0505 4.68262 93.1996 4.36022 93.1615 4.01702C93.1268 3.71022 92.9483 3.43809 92.6423 3.23009C92.3373 3.02209 91.9585 2.91376 91.5451 2.91549L88.2501 2.91549L88.2501 5.33002ZM41.8479 8.04009L38.6767 8.04009L40.2861 3.89916L41.8479 8.04009ZM63.9097 8.04009L60.7386 8.04009L62.3489 3.89916L63.9097 8.04009Z" transform="translate(0 -0.0005426722)" id="Fill-1" fill="#FEFEFE" fill-rule="evenodd" stroke="none" />
    </g>
  </g>
</svg>