<?xml version="1.0" encoding="utf-8"?>
<svg width="40px" height="20px" viewBox="0 0 40 20" version="1.1" xmlns:xlink="http://www.w3.org/1999/xlink" xmlns="http://www.w3.org/2000/svg">
  <desc>Created with Lunacy</desc>
  <path d="M30 0C35.5231 0 40 4.47693 40 10C40 15.5231 35.5231 20 30 20L10 20C4.47769 20 0 15.5231 0 10C0 4.47693 4.47769 0 10 0L30 0ZM29.9996 1.51501L9.99961 1.51501C5.32118 1.51501 1.51465 5.32154 1.51465 9.99998C1.51465 14.6784 5.32118 18.4849 9.99961 18.4849L29.9996 18.4849C34.678 18.4849 38.4846 14.6784 38.4846 9.99998C38.4846 5.32154 34.678 1.51501 29.9996 1.51501ZM24.2773 10.7999C24.7181 10.7999 25.0772 10.4416 25.0772 10C25.0772 9.55913 24.7181 9.20006 24.2773 9.20006L17.649 9.20006L19.7352 7.11386C19.8867 6.96235 19.97 6.76085 19.97 6.54723C19.97 6.33361 19.8867 6.13287 19.7352 5.98137C19.4223 5.66851 18.9156 5.66927 18.6042 5.98137L15.1552 9.43035C15.0022 9.58337 14.9196 9.78638 14.9219 9.99621C14.9196 10.2136 15.0022 10.4166 15.1552 10.5697L18.6035 14.0179C18.7542 14.1694 18.9549 14.2527 19.1693 14.2527C19.3829 14.2527 19.5837 14.1694 19.7352 14.0179C19.8867 13.8671 19.97 13.6656 19.97 13.452C19.97 13.2384 19.8859 13.0369 19.7352 12.8869L17.649 10.7999L24.2773 10.7999Z" id="Back-Icon" fill="#ffffff" fill-rule="evenodd" stroke="none" />
</svg>