<?xml version="1.0" encoding="utf-8"?>
<svg width="20px" height="20px" viewBox="0 0 20 20" version="1.1" xmlns:xlink="http://www.w3.org/1999/xlink" xmlns="http://www.w3.org/2000/svg">
  <desc>Created with Lunacy</desc>
  <g id="Close-Icon">
    <path d="M0 9.77852C0 4.37852 4.37778 0 9.77852 0C15.1785 0 19.557 4.37852 19.557 9.77852C19.557 15.1793 15.1785 19.557 9.77852 19.557C4.37778 19.557 0 15.1793 0 9.77852ZM18.0756 9.77852C18.0756 5.2037 14.3533 1.48148 9.77852 1.48148C5.2037 1.48148 1.48148 5.2037 1.48148 9.77852C1.48148 14.3533 5.2037 18.0756 9.77852 18.0756C14.3533 18.0756 18.0756 14.3533 18.0756 9.77852Z" id="Menu-Icon" fill="#FFFFFF" fill-rule="evenodd" stroke="none" />
    <path d="M9.03778 1.48148C9.44741 1.48148 9.77926 1.14963 9.77926 0.740741C9.77926 0.331852 9.44741 0 9.03778 0L0.740741 0C0.331852 0 0 0.331852 0 0.740741C0 1.14963 0.331852 1.48148 0.740741 1.48148L9.03778 1.48148Z" transform="matrix(-0.7071068 0.7071067 -0.7071067 -0.7071068 13.75977 6.844788)" id="Path" fill="#FFFFFF" stroke="none" />
    <path d="M9.03778 1.48148C9.44741 1.48148 9.77926 1.14963 9.77926 0.740741C9.77926 0.331852 9.44741 0 9.03778 0L0.740741 0C0.331852 0 0 0.331852 0 0.740741C0 1.14963 0.331852 1.48148 0.740741 1.48148L9.03778 1.48148Z" transform="matrix(0.7071066 0.7071069 -0.7071069 0.7071066 6.844727 5.797241)" id="Path" fill="#FFFFFF" stroke="none" />
  </g>
</svg>