<?xml version="1.0" encoding="utf-8"?>
<svg width="16px" height="20px" viewBox="0 0 16 20" version="1.1" xmlns:xlink="http://www.w3.org/1999/xlink" xmlns="http://www.w3.org/2000/svg">
  <desc>Created with Lunacy</desc>
  <path d="M13.0699 12.2104L14.7963 14.5262C15.5334 15.5155 15.5129 16.9048 14.6918 17.8949C14.1865 18.5047 13.4495 19.1789 12.8601 19.5152C12.292 19.8311 11.6602 20 10.9655 20C8.20742 20 4.83874 17.2843 2.41771 13.074C1.09205 10.7575 0.248936 8.31528 0.0391034 6.18968C-0.0874021 4.6951 -0.0245281 2.02106 2.08062 0.799939C2.69193 0.442391 3.61762 0.147716 4.41756 0.0212105C4.54406 0 4.69102 0 4.81753 0C5.9129 0 6.90146 0.652981 7.34385 1.66351L8.48089 4.31558C9.07024 5.66321 8.48089 7.24188 7.15447 7.87365C6.88101 8.00015 6.67042 8.10469 6.5227 8.16832C6.5227 8.52663 6.67042 9.32581 7.23932 10.2947C7.80745 11.284 8.41726 11.7893 8.73314 11.9786C8.85965 11.8733 9.04903 11.7476 9.30128 11.5787C9.76564 11.2628 10.3118 11.0946 10.8595 11.0946C11.7231 11.0946 12.5647 11.5158 13.0699 12.2104ZM12.0806 18.0842C12.4389 17.8736 13.0282 17.3896 13.4494 16.8631C13.7653 16.4631 13.7653 15.9154 13.4698 15.5155L11.7442 13.1997C11.5336 12.9051 11.1965 12.7581 10.8594 12.7581C10.6276 12.7581 10.4178 12.821 10.2284 12.9475C9.72315 13.2838 9.38606 13.5156 9.28076 13.5792C9.1338 13.6421 8.98609 13.6838 8.81792 13.6838C7.9339 13.6838 6.71202 12.6733 5.80678 11.1158C4.73338 9.26291 4.56445 7.36835 5.40757 6.8843C5.51211 6.82067 5.89087 6.6525 6.43855 6.37904C6.98624 6.12602 7.21728 5.49501 6.98624 4.94733L5.87041 2.31571C5.70149 1.89453 5.30152 1.64227 4.85989 1.64227C4.79625 1.64227 4.75383 1.66348 4.69096 1.66348C4.03874 1.74757 3.30167 2.02103 2.94412 2.23162C0.943515 3.38911 1.36545 7.87362 3.89178 12.2528C6.01737 15.9154 8.94442 18.3577 11.0071 18.3577C11.4071 18.3577 11.7647 18.2736 12.0806 18.0842Z" id="Phone-Icon" fill="#000000" fill-rule="evenodd" stroke="none" />
</svg>