<?xml version="1.0" encoding="utf-8"?>
<svg width="21px" height="27px" viewBox="0 0 21 27" version="1.1" xmlns:xlink="http://www.w3.org/1999/xlink" xmlns="http://www.w3.org/2000/svg">
  <desc>Created with Lunacy</desc>
  <path d="M17.2536 16.119L19.5326 19.176C20.5056 20.482 20.4786 22.316 19.3946 23.623C18.7276 24.428 17.7546 25.318 16.9766 25.762C16.2266 26.179 15.3926 26.402 14.4756 26.402C10.8346 26.402 6.38762 22.817 3.19162 17.259C1.44162 14.201 0.32862 10.977 0.0516204 8.171C-0.11538 6.198 -0.0323796 2.668 2.74662 1.056C3.55362 0.584 4.77562 0.195 5.83162 0.028C5.99862 0 6.19262 0 6.35962 0C7.80562 0 9.11062 0.862 9.69462 2.196L11.1956 5.697C11.9736 7.476 11.1956 9.56 9.44462 10.394C9.08362 10.561 8.80562 10.699 8.61062 10.783C8.61062 11.256 8.80562 12.311 9.55662 13.59C10.3066 14.896 11.1116 15.563 11.5286 15.813C11.6956 15.674 11.9456 15.508 12.2786 15.285C12.8916 14.868 13.6126 14.646 14.3356 14.646C15.4756 14.646 16.5866 15.202 17.2536 16.119ZM15.9483 23.873C16.4213 23.595 17.1993 22.956 17.7553 22.261C18.1723 21.733 18.1723 21.01 17.7823 20.482L15.5043 17.425C15.2263 17.036 14.7813 16.842 14.3363 16.842C14.0303 16.842 13.7533 16.925 13.5033 17.092C12.8363 17.536 12.3913 17.842 12.2523 17.926C12.0583 18.009 11.8633 18.064 11.6413 18.064C10.4743 18.064 8.86131 16.73 7.6663 14.674C6.2493 12.228 6.0263 9.72697 7.1393 9.08797C7.2773 9.00397 7.7773 8.78197 8.50031 8.42097C9.2233 8.08697 9.52831 7.25397 9.2233 6.53097L7.7503 3.05697C7.5273 2.50097 6.9993 2.16797 6.4163 2.16797C6.3323 2.16797 6.2763 2.19597 6.1933 2.19597C5.3323 2.30697 4.3593 2.66797 3.8873 2.94597C1.2463 4.47397 1.8033 10.394 5.1383 16.175C7.9443 21.01 11.8083 24.234 14.5313 24.234C15.0593 24.234 15.5313 24.123 15.9483 23.873Z" id="Phone-Icon" fill="#FFFFFF" fill-rule="evenodd" stroke="none" />
</svg>