<?xml version="1.0" encoding="utf-8"?>
<svg width="27px" height="27px" viewBox="0 0 27 27" version="1.1" xmlns:xlink="http://www.w3.org/1999/xlink" xmlns="http://www.w3.org/2000/svg">
  <desc>Created with Lunacy</desc>
  <defs>
    <path d="M0 0L26.9459 0L26.9459 27L0 27L0 0Z" id="path_1" />
    <clipPath id="mask_1">
      <use xlink:href="#path_1" />
    </clipPath>
  </defs>
  <g id="Group-3">
    <path d="M0 0L26.9459 0L26.9459 27L0 27L0 0Z" id="Clip-2" fill="none" stroke="none" />
    <g clip-path="url(#mask_1)">
      <path d="M13.4737 0C6.03375 0 0 6.04425 0 13.5007C0 19.029 3.318 23.7773 8.06625 25.8652C8.02725 24.9232 8.05875 23.7915 8.30025 22.7655C8.55825 21.6712 10.0327 15.4095 10.0327 15.4095C10.0327 15.4095 9.603 14.5462 9.603 13.2743C9.603 11.2703 10.7617 9.77775 12.2017 9.77775C13.4272 9.77775 14.0197 10.7003 14.0197 11.8035C14.0197 13.0403 13.2338 14.886 12.8302 16.5952C12.492 18.027 13.5465 19.1963 14.955 19.1963C17.5087 19.1963 19.2277 15.9113 19.2277 12.0188C19.2277 9.06 17.238 6.84675 13.6215 6.84675C9.534 6.84675 6.9885 9.8985 6.9885 13.3088C6.9885 14.487 7.33425 15.3165 7.87575 15.9578C8.1255 16.254 8.15925 16.3717 8.07075 16.71C8.0055 16.9575 7.857 17.5568 7.7955 17.7937C7.70625 18.135 7.4295 18.2587 7.12125 18.1328C5.2395 17.361 4.36275 15.2963 4.36275 12.9757C4.36275 9.14025 7.58925 4.53975 13.9905 4.53975C19.1347 4.53975 22.5203 8.271 22.5203 12.2745C22.5203 17.5725 19.5825 21.5265 15.2498 21.5265C13.7962 21.5265 12.4267 20.7375 11.9595 19.8442C11.9595 19.8442 11.1765 22.9538 11.0115 23.5567C10.7272 24.594 10.1663 25.6373 9.6555 26.4465C10.866 26.805 12.147 27 13.4737 27C20.9145 27 26.946 20.9557 26.946 13.5007C26.946 6.04425 20.9145 0 13.4737 0" id="Fill-1" fill="#FEFEFE" stroke="none" />
    </g>
  </g>
</svg>