<?xml version="1.0" encoding="utf-8"?>
<svg width="193px" height="13px" viewBox="0 0 193 13" version="1.1" xmlns:xlink="http://www.w3.org/1999/xlink" xmlns="http://www.w3.org/2000/svg">
  <desc>Created with Lunacy</desc>
  <defs>
    <path d="M0 11.8443L191.623 11.8443L191.623 0L0 0L0 11.8443Z" transform="translate(0 0.000546)" id="path_1" />
    <clipPath id="mask_1">
      <use xlink:href="#path_1" />
    </clipPath>
  </defs>
  <g id="Singapore-Airlines-Logo">
    <path d="M3.4216 6.5806L6.5793 6.5806C7.3697 6.5806 7.6336 6.8432 7.6336 7.6336C7.6336 8.424 7.3697 8.9492 6.5793 8.9492L0 8.9492L0 10.7913L6.3167 10.7913C8.6853 10.7913 10.0022 9.2131 10.0022 7.6336C10.0022 6.0541 8.6853 4.212 6.3167 4.212C5.2637 4.212 3.1577 4.4746 3.1577 4.4746C2.6325 4.4746 2.106 3.9494 2.106 3.159C2.106 2.3699 2.6325 2.106 3.1577 2.106L9.7383 2.106L9.7383 0L3.4216 0C1.0517 0 0 1.3156 0 3.159C0 5.0011 1.0517 6.5806 3.4216 6.5806" transform="translate(0.00052 0.526136)" id="Fill-1" fill="#FEFEFE" stroke="none" />
    <path d="M3.6855 6.3167L6.8445 6.3167C7.3697 6.3167 7.8962 6.8419 7.8962 7.6323C7.8962 8.4227 7.3697 8.6853 6.8445 8.6853L0.2626 8.6853L0.2626 10.79L6.5806 10.79C8.9505 10.79 10.2661 9.2131 10.2661 7.6323C10.2661 5.7902 8.9505 4.2107 6.5806 4.2107L3.4229 4.2107C2.6325 4.2107 2.3686 3.9481 2.3686 3.1577C2.3686 2.3686 2.6325 2.1047 3.4229 2.1047L10.0022 2.1047L10.0022 0L3.6855 0C1.3169 0 0 1.3143 0 3.1577C0 4.9998 1.3169 6.3167 3.6855 6.3167" transform="translate(181.3564 0.527306)" id="Fill-3" fill="#FEFEFE" stroke="none" />
    <path d="M6.0541 10.7913L11.0552 10.7913L11.0552 3.6855L8.6866 3.6855L8.6866 8.6866L5.7915 8.6866C3.6855 8.6866 2.3699 7.6323 2.3699 5.2637C2.3699 3.159 3.6855 2.1047 5.7915 2.1047L11.0552 2.1047L11.0552 0L6.0541 0C2.106 0 0 2.8951 0 5.5276C0 7.8962 2.106 10.7913 6.0541 10.7913" transform="translate(30.00634 0.526526)" id="Fill-5" fill="#FEFEFE" stroke="none" />
    <path d="M0 11.8443L191.623 11.8443L191.623 0L0 0L0 11.8443Z" transform="translate(0 0.000546)" id="Clip-8" fill="none" stroke="none" />
    <g clip-path="url(#mask_1)">
      <path d="M0 10.7913L2.3686 10.7913L2.3686 0L0 0L0 10.7913Z" transform="translate(12.3721 0.527046)" id="Fill-7" fill="#FEFEFE" stroke="none" />
      <path d="M0 10.7913L2.3686 10.7913L2.3686 0L0 0L0 10.7913Z" transform="translate(124.5023 0.527046)" id="Fill-9" fill="#FEFEFE" stroke="none" />
      <path d="M0 10.7913L2.36861 10.7913L2.36861 0L0 0L0 10.7913Z" transform="translate(152.139 0.527046)" id="Fill-10" fill="#FEFEFE" stroke="none" />
      <path d="M2.3686 2.1047L6.318 2.1047C7.1071 2.1047 7.8962 2.8938 7.8962 3.6855L7.8962 10.7913L10.2661 10.7913L10.2661 3.4216C10.2661 1.5795 8.9492 0 6.8432 0L3.6855 0L2.3686 1.8421L2.3686 0L0 0L0 10.7913L2.3686 10.7913L2.3686 2.1047Z" transform="translate(17.89892 0.526916)" id="Fill-11" fill="#FEFEFE" stroke="none" />
      <path d="M2.3686 2.1047L6.3167 2.1047C7.3697 2.1047 7.8962 2.8938 7.8962 3.6855L7.8962 10.7913L10.2648 10.7913L10.2648 3.4216C10.2648 1.5795 8.9492 0 6.8432 0L3.6842 0L2.3686 1.8421L2.3686 0L0 0L0 10.7913L2.3686 10.7913L2.3686 2.1047Z" transform="translate(157.4045 0.526916)" id="Fill-12" fill="#FEFEFE" stroke="none" />
      <path d="M3.9481 7.6323L2.6312 10.7913L0 10.7913L5.2637 0L7.8962 0L13.1612 10.7913L10.5287 10.7913L8.9492 7.6323L3.9481 7.6323ZM8.1588 5.7902L6.5806 2.1047L5.0011 5.7902L8.1588 5.7902Z" transform="translate(109.7619 0.526916)" id="Fill-13" fill="#FEFEFE" fill-rule="evenodd" stroke="none" />
      <path d="M2.106 2.1047L6.0541 2.1047C6.8445 2.1047 7.3697 2.8938 7.3697 3.6855C7.3697 4.4733 6.8445 5.2637 6.0541 5.2637L3.159 5.2637L7.8962 10.7913L10.5287 10.7913L7.3697 6.8432C8.6866 6.3167 9.7396 5.0011 9.7396 3.4216C9.7396 1.5795 8.1601 0 6.0541 0L0 0L0 10.7913L2.106 10.7913L2.106 2.1047Z" transform="translate(81.33398 0.526916)" id="Fill-14" fill="#FEFEFE" stroke="none" />
      <path d="M0 10.7913L2.3686 10.7913L2.3686 2.1047L6.0541 2.1047C7.1071 2.1047 7.6336 2.8951 7.6336 3.6855C7.6336 4.4746 7.1071 5.2637 6.0541 5.2637L3.159 5.2637L7.8962 10.7913L10.7926 10.7913L7.3697 6.8432C8.9492 6.318 9.7383 5.0011 9.7383 3.4216C9.7383 1.5795 8.4227 0 6.3167 0L0 0L0 10.7913Z" transform="translate(130.0293 0.526526)" id="Fill-15" fill="#FEFEFE" stroke="none" />
      <path d="M8.6866 10.7913L8.6866 8.9492L2.3699 8.9492L2.3699 6.0528L7.8975 6.0528L7.8975 4.2107L2.3699 4.2107L2.3699 2.1047L8.6866 2.1047L8.6866 0L0 0L0 10.7913L8.6866 10.7913Z" transform="translate(93.70504 0.526526)" id="Fill-16" fill="#FEFEFE" stroke="none" />
      <path d="M8.6879 2.1047L8.6879 0L0 0L0 10.7913L8.6879 10.7913L8.6879 8.9492L2.3699 8.9492L2.3699 6.0528L7.8988 6.0528L7.8988 4.2107L2.3699 4.2107L2.3699 2.1047L8.6879 2.1047Z" transform="translate(170.5636 0.526916)" id="Fill-17" fill="#FEFEFE" stroke="none" />
      <path d="M8.1588 10.7913L8.1588 8.9492L2.3686 8.9492L2.3686 0L0 0L0 10.7913L8.1588 10.7913Z" transform="translate(142.4014 0.526526)" id="Fill-18" fill="#FEFEFE" stroke="none" />
      <path d="M8.9492 7.6323L3.9494 7.6323L2.6325 10.7913L0 10.7913L5.265 0L7.6336 0L12.8986 10.7913L10.2661 10.7913L8.9492 7.6323ZM8.1601 5.7902L6.318 1.8421L4.7385 5.7902L8.1601 5.7902Z" transform="translate(42.37753 0.526786)" id="Fill-19" fill="#FEFEFE" fill-rule="evenodd" stroke="none" />
      <path d="M3.6842 7.3697L2.3686 5.5276L6.0528 5.5276C6.8432 5.5276 7.3697 4.4733 7.3697 3.6855C7.3697 2.8938 6.8432 2.1047 6.0528 2.1047L2.3686 2.1047L2.3686 5.5276L2.3686 10.7913L0 10.7913L0 0L6.0528 0C8.4227 0 9.7383 1.8421 9.7383 3.6855C9.7383 5.7902 8.4227 7.3697 6.0528 7.3697L3.6842 7.3697Z" transform="translate(56.59238 0.526916)" id="Fill-20" fill="#FEFEFE" fill-rule="evenodd" stroke="none" />
      <path d="M11.8443 6.0541C11.8443 9.2131 9.2118 11.8443 5.7902 11.8443C2.6325 11.8443 0 9.2131 0 6.0541C0 2.6312 2.6325 0 5.7902 0C9.2118 0 11.8443 2.6312 11.8443 6.0541ZM9.4757 6.0541C9.4757 3.9481 7.8962 2.106 5.7902 2.106C3.9481 2.106 2.106 3.9481 2.106 6.0541C2.106 7.8962 3.9481 9.7396 5.7902 9.7396C7.8962 9.7396 9.4757 7.8962 9.4757 6.0541Z" transform="translate(67.64719 2.6E-05)" id="Fill-21" fill="#FEFEFE" fill-rule="evenodd" stroke="none" />
    </g>
  </g>
</svg>