<?xml version="1.0" encoding="utf-8"?>
<svg width="148px" height="15px" viewBox="0 0 148 15" version="1.1" xmlns:xlink="http://www.w3.org/1999/xlink" xmlns="http://www.w3.org/2000/svg">
  <desc>Created with Lunacy</desc>
  <defs>
    <path d="M0 0L13.813 0L13.813 13.3928L0 13.3928L0 0Z" transform="translate(0 0.02947059)" id="path_1" />
    <path d="M0 0L2.74588 0L2.74588 14.2415L0 14.2415L0 0Z" transform="translate(0.3097941 0.06308824)" id="path_2" />
    <clipPath id="mask_1">
      <use xlink:href="#path_1" />
    </clipPath>
    <clipPath id="mask_2">
      <use xlink:href="#path_2" />
    </clipPath>
  </defs>
  <g id="Vietnam-Airlines-Logo">
    <g id="Group-3" transform="translate(0 1.260485)">
      <path d="M0 0L13.813 0L13.813 13.3928L0 13.3928L0 0Z" transform="translate(0 0.02947059)" id="Clip-2" fill="none" stroke="none" />
      <g clip-path="url(#mask_1)">
        <path d="M13.8132 0C13.3319 0.956912 7.35309 13.3928 7.25162 13.3928L7.21147 13.3928C7.06941 13.3928 1.82382 2.26721 1.82382 2.26721C1.25647 1.15235 1.09368 0.625588 0.2025 0.220147C0.121324 0.179118 0 0.0816176 0 0.0207353L3.26426 0.0114706C3.72574 0.884559 7.88868 10.159 7.88868 10.159C12.6896 0.304853 12.3847 0.566912 12.6009 0L13.8132 0Z" transform="translate(-0.0002205882 0.02947059)" id="Fill-1" fill="#FEFEFE" stroke="none" />
      </g>
    </g>
    <path d="M5.51162 9.66618C7.07824 9.66618 8.38456 9.06574 9.285 7.99191L8.96603 7.69368C8.17147 8.64176 7.06412 9.07191 5.74985 8.97044C3.97103 8.83324 2.63735 6.88324 2.63735 5.07088C2.63735 4.69235 2.65544 4.30059 2.69206 3.87882L10.4285 3.87882C10.1718 1.85515 8.20809 0 5.45206 0C1.45853 0 0 2.55397 0 4.47926C0 7.41353 2.39382 9.66618 5.51162 9.66618ZM5.62015 0.675882C7.31779 0.675882 7.86353 2.11191 7.86353 3.24L2.76574 3.24C2.83324 2.78074 3.20338 0.675882 5.62015 0.675882Z" transform="translate(18.33776 5.016573)" id="Fill-4" fill="#FEFEFE" fill-rule="evenodd" stroke="none" />
    <path d="M5.51162 9.66662C7.07868 9.66662 8.385 9.06618 9.28544 7.99235L8.96559 7.69412C8.17147 8.64176 7.06412 9.07235 5.74985 8.97088C3.97103 8.83323 2.63735 6.88323 2.63735 5.07132C2.63735 4.69279 2.65544 4.30059 2.69206 3.87926L10.4285 3.87926C10.1718 1.85515 8.20809 0 5.45206 0C1.45853 0 0 2.55397 0 4.47926C0 7.41397 2.39382 9.66662 5.51162 9.66662ZM5.62015 0.676324C7.31779 0.676324 7.86353 2.11191 7.86353 3.24044L2.76574 3.24044C2.83324 2.78118 3.20338 0.676324 5.62015 0.676324Z" transform="translate(127.8786 5.026897)" id="Fill-6" fill="#FEFEFE" fill-rule="evenodd" stroke="none" />
    <path d="M2.46441 1.10029C2.46441 1.6875 1.9875 2.1825 1.36412 2.1825C0.776912 2.1825 0.281912 1.6875 0.281912 1.10029C0.281912 0.513529 0.776912 0 1.36412 0C1.9875 0 2.46441 0.513529 2.46441 1.10029ZM2.74588 3.43897L2.74588 4.01118L2.3175 4.01118L2.3175 12.4253L2.74588 12.4253L2.74588 12.9975L0 12.9975L0 12.4253L0.428382 12.4253L0.428382 4.01118L0 4.01118L0 3.43897L2.74588 3.43897Z" transform="translate(14.14826 1.685382)" id="Fill-8" fill="#FEFEFE" fill-rule="evenodd" stroke="none" />
    <path d="M2.46397 1.10029C2.46397 1.6875 1.9875 2.1825 1.36368 2.1825C0.776912 2.1825 0.281471 1.6875 0.281471 1.10029C0.281471 0.513529 0.776912 0 1.36368 0C1.9875 0 2.46397 0.513529 2.46397 1.10029ZM2.74588 3.43897L2.74588 4.01118L2.3175 4.01118L2.3175 12.4253L2.74588 12.4253L2.74588 12.9975L0 12.9975L0 12.4253L0.428382 12.4253L0.428382 4.01118L0 4.01118L0 3.43897L2.74588 3.43897Z" transform="translate(93.63543 1.685382)" id="Fill-10" fill="#FEFEFE" fill-rule="evenodd" stroke="none" />
    <g id="Group-14" transform="translate(106.3235 0.3781323)">
      <path d="M0 0L2.74588 0L2.74588 14.2415L0 14.2415L0 0Z" transform="translate(0.3097941 0.06308824)" id="Clip-13" fill="none" stroke="none" />
      <g clip-path="url(#mask_2)">
        <path d="M2.74588 0.572206L2.74588 0L2.3175 0L0.428382 0L0 0L0 0.572206L0.428382 0.572206L0.428382 13.6694L0 13.6694L0 14.2416L2.74588 14.2416L2.74588 13.6694L2.3175 13.6694L2.3175 0.572206L2.74588 0.572206Z" transform="translate(0.3097941 0.063)" id="Fill-12" fill="#FEFEFE" stroke="none" />
      </g>
    </g>
    <path d="M2.46397 1.10029C2.46397 1.6875 1.9875 2.1825 1.36368 2.1825C0.776912 2.1825 0.281471 1.6875 0.281471 1.10029C0.281471 0.513529 0.776912 0 1.36368 0C1.9875 0 2.46397 0.513529 2.46397 1.10029ZM2.74588 3.43897L2.74588 4.01118L2.3175 4.01118L2.3175 12.4253L2.74588 12.4253L2.74588 12.9975L0 12.9975L0 12.4253L0.428382 12.4253L0.428382 4.01118L0 4.01118L0 3.43897L2.74588 3.43897Z" transform="translate(111.2088 1.685382)" id="Fill-15" fill="#FEFEFE" fill-rule="evenodd" stroke="none" />
    <path d="M7.4325 9.79676C5.06206 11.5994 2.79529 11.2478 2.79529 7.84588L2.80147 2.75074L7.04074 2.75074L7.04074 2.05015L2.79529 2.05015L2.79529 0L0.906177 1.27235L0.906177 2.05015L0 2.05015L0 2.75074L0.906177 2.75074L0.906177 3.03618L0.906177 8.92588C0.906177 10.2243 2.7 11.4304 3.73368 11.5346C4.77221 11.64 6.49588 11.6329 7.70912 10.0632L7.4325 9.79676Z" transform="translate(29.23703 3.111132)" id="Fill-17" fill="#FEFEFE" stroke="none" />
    <path d="M10.106 8.98198C10.106 8.98198 10.1069 2.86771 10.1069 2.46624C10.1069 2.06521 9.88721 0.335803 7.44573 0.0728616C5.00471 -0.190521 3.95294 0.218891 2.45956 1.98183L2.45956 0.774332L2.45956 0.0728616L0.285441 0.0728616L0.0308823 0.0728616L0.0308823 0.774332L0.285441 0.774332L0.285441 8.98198L0 8.98198L0 9.55418L0.285441 9.55418L2.45956 9.55418L2.74544 9.55418L2.74544 8.98198L2.45956 8.98198L2.45956 3.55771C2.82618 2.97668 4.07647 1.47183 4.88912 1.20801C6.20294 0.781391 7.93191 0.870509 7.93191 1.97918L7.93191 8.98198L7.64603 8.98198L7.64603 9.55418L7.93191 9.55418L10.106 9.55418L10.3919 9.55418L10.3919 8.98198L10.106 8.98198Z" transform="translate(37.73965 5.128786)" id="Fill-19" fill="#FEFEFE" stroke="none" />
    <path d="M10.106 8.98198C10.106 8.98198 10.1069 2.86771 10.1069 2.46624C10.1069 2.06521 9.88721 0.335803 7.44574 0.0728616C5.00471 -0.190521 3.95294 0.218891 2.46 1.98183L2.46 0.774332L2.46 0.0728616L0.285441 0.0728616L0.0308824 0.0728616L0.0308824 0.774332L0.285441 0.774332L0.285441 8.98198L0 8.98198L0 9.55418L0.285441 9.55418L2.46 9.55418L2.74544 9.55418L2.74544 8.98198L2.46 8.98198L2.46 3.55771C2.82618 2.97668 4.07647 1.47183 4.88912 1.20801C6.20294 0.781391 7.93147 0.870509 7.93147 1.97918L7.93147 8.98198L7.64647 8.98198L7.64647 9.55418L7.93147 9.55418L10.106 9.55418L10.3915 9.55418L10.3915 8.98198L10.106 8.98198Z" transform="translate(116.0995 5.128786)" id="Fill-21" fill="#FEFEFE" stroke="none" />
    <path d="M14.5835 8.90912C14.5835 8.90912 14.5844 2.79485 14.5844 2.39338C14.5844 1.99235 14.3784 0 11.9232 0C10.5212 0 10.0147 0.146029 8.52177 1.90897L8.45647 1.87279C8.29059 1.14397 7.72324 0 5.86147 0C4.45941 0 3.95294 0.146029 2.46 1.90897L2.46 0.701471L2.46 0L0.285441 0L0.0308824 0L0.0308824 0.701471L0.285441 0.701471L0.285441 8.90912L0 8.90912L0 9.48132L0.285441 9.48132L2.46 9.48132L2.74544 9.48132L2.74544 8.90912L2.46 8.90912L2.46 3.48485C3.05382 0.903529 6.34765 0.797647 6.34765 1.90632L6.34765 8.90912L6.06177 8.90912L6.06177 9.48132L6.34765 9.48132L8.52177 9.48132L8.80765 9.48132L8.80765 8.90912L8.52177 8.90912L8.52177 8.84029C8.52177 8.33691 8.52221 5.19441 8.52221 3.48221C9.1178 0.903529 12.4094 0.798088 12.4094 1.90632L12.4094 8.90912L12.1235 8.90912L12.1235 9.48132L12.4094 9.48132L14.5835 9.48132L14.8694 9.48132L14.8694 8.90912L14.5835 8.90912Z" transform="translate(60.88844 5.201647)" id="Fill-23" fill="#FEFEFE" stroke="none" />
    <path d="M9.58321 3.23364L9.58321 8.56703C9.58321 9.19967 10.3954 9.73394 10.3954 9.73394L7.59218 9.73394L7.58865 7.91144C6.12086 9.21732 6.81571 8.73203 5.84953 9.41232C5.05365 9.97262 2.75556 10.3379 1.59747 9.46923C0.439826 8.601 -0.725321 7.07673 0.566443 5.21762C1.48233 3.8985 4.92659 3.76967 5.92188 3.60688C6.91718 3.44409 8.22483 2.42629 7.03056 1.50335C5.8363 0.580409 2.95321 0.298056 1.09144 2.15982L0.562914 1.52629C0.562914 1.52629 1.81365 0.00952705 4.19291 0.00952705C4.38646 0.00952705 4.58417 0.00719833 4.7841 0.00484354C7.04241 -0.0217553 9.58321 -0.0516813 9.58321 3.23364ZM4.47483 8.72762C5.41541 8.52864 7.41659 6.85306 7.59218 6.35188L7.59218 3.84247C7.59218 3.84247 7.69806 3.76085 6.79365 3.93556C4.20968 4.48879 2.78071 5.16203 2.42291 6.30335C1.84365 8.14835 3.5338 8.92659 4.47483 8.72762Z" transform="translate(49.06388 4.948987)" id="Fill-25" fill="#FEFEFE" fill-rule="evenodd" stroke="none" />
    <path d="M7.44574 0.0728616C5.00471 -0.190521 3.95294 0.218891 2.46 1.98183L2.46 0.774773L2.46 0.0728616L0.285882 0.0728616L0.0308824 0.0728616L0.0308824 0.774773L0.285882 0.774773L0.285882 8.98198L0 8.98198L0 9.55419L0.285882 9.55419L2.46 9.55419L2.74588 9.55419L2.74588 8.98198L2.46 8.98198L2.46 3.55771C2.82618 2.97669 4.07647 1.47183 4.88912 1.20801C5.685 0.949479 6.30485 1.20801 6.92868 1.44007L8.15956 0.209626C7.94427 0.150067 7.71044 0.101538 7.44574 0.0728616" transform="translate(98.06673 5.128653)" id="Fill-27" fill="#FEFEFE" stroke="none" />
    <path d="M6.70103 0L13.1457 13.2653L13.6125 13.2653L13.6125 13.8375L10.8666 13.8375L8.48647 8.91397L3.66706 8.91397L1.28029 13.8375L0 13.8375L6.70103 0ZM6.07588 3.93485L4.21103 7.78588L7.94029 7.78588L6.07588 3.93485Z" transform="translate(79.20856 0.8455147)" id="Fill-29" fill="#FEFEFE" fill-rule="evenodd" stroke="none" />
    <path d="M7.91957 2.32544L7.91957 0.891618C7.91957 0.891618 5.87603 0 4.32 0C2.76353 0 0.243971 0.533382 0.415589 2.90206C0.539118 4.59882 4.37294 5.53765 5.29633 6.01235C6.21927 6.4875 7.12854 7.24676 6.54353 7.98C5.52398 9.25765 2.37441 9.58632 0 7.35132L0.0202941 8.63294C0.0202941 8.63294 2.04221 10.099 4.09324 10.099C6.14471 10.099 7.97824 9.27353 8.51471 8.01265C9.05074 6.75132 9.08427 5.44412 6.61501 4.48544C4.62353 3.71162 1.62971 2.955 2.71103 1.63588C3.7928 0.316765 6.91192 1.31779 7.91957 2.32544" transform="translate(138.8033 4.795853)" id="Fill-31" fill="#FEFEFE" stroke="none" />
  </g>
</svg>