<?xml version="1.0" encoding="utf-8"?>
<svg width="142px" height="13px" viewBox="0 0 142 13" version="1.1" xmlns:xlink="http://www.w3.org/1999/xlink" xmlns="http://www.w3.org/2000/svg">
  <desc>Created with Lunacy</desc>
  <defs>
    <path d="M0 0L140.355 0L140.355 12.2671L0 12.2671L0 0Z" transform="translate(0.4338286 0.2685893)" id="path_1" />
    <clipPath id="mask_1">
      <use xlink:href="#path_1" />
    </clipPath>
  </defs>
  <g id="Cathy-Pacific-Logo">
    <g id="Group-6" transform="translate(0 0.002042857)">
      <path d="M0 0L140.355 0L140.355 12.2671L0 12.2671L0 0Z" transform="translate(0.4338286 0.2685893)" id="Clip-5" fill="none" stroke="none" />
      <g clip-path="url(#mask_1)">
        <path d="M17.9372 0L22.9989 10.5244C23.7018 11.9892 24.5765 11.9934 24.5765 11.9934L24.6587 12.0742L19.9197 12.0742L19.9949 11.9934C19.9949 11.9934 20.9551 11.8035 20.3473 10.5244L19.4726 8.66636L15.164 8.66636L14.2619 10.5244C13.6509 11.8035 14.6115 11.9934 14.6115 11.9934L14.6933 12.0742L11.2524 12.0742L11.3267 11.9934C11.3267 11.9934 12.1587 11.9628 12.9109 10.5244L17.9372 0ZM54.1668 0L59.2275 10.5244C59.9328 11.9892 60.807 11.9934 60.807 11.9934L60.8855 12.0742L56.1493 12.0742L56.2273 11.9934C56.2273 11.9934 57.1902 11.8035 56.5769 10.5244L55.7036 8.66636L51.3927 8.66636L50.4911 10.5244C49.8815 11.8035 50.8444 11.9934 50.8444 11.9934L50.9187 12.0742L47.4802 12.0742L47.5586 11.9934C47.5586 11.9934 48.3879 11.9628 49.14 10.5244L54.1668 0ZM89.2775 0L94.335 10.5244C95.0449 11.9892 95.9149 11.9934 95.9149 11.9934L95.9953 12.0742L91.2568 12.0742L91.3362 11.9934C91.3362 11.9934 92.2968 11.8035 91.6867 10.5244L90.8115 8.66636L86.5057 8.66636L85.6008 10.5244C84.9889 11.8035 85.9551 11.9934 85.9551 11.9934L86.027 12.0742L82.5918 12.0742L82.6698 11.9934C82.6698 11.9934 83.4985 11.9628 84.2511 10.5244L89.2775 0ZM139.449 11.5997L140.355 8.51593L140.254 8.58093C140.254 8.58093 138.796 10.9859 136.067 10.9859C133.598 10.9859 131.887 9.36511 131.887 6.40575C131.887 3.44964 133.547 1.51404 136.161 1.51404C138.872 1.51404 139.847 3.62421 139.847 3.62421L139.913 3.67807L139.913 1.19043C139.913 1.19043 138.283 0.394179 135.976 0.394179C131.803 0.394179 129.179 2.96679 129.179 6.42107C129.179 9.19889 131.343 12.2674 135.809 12.2674C137.49 12.2674 139.449 11.5997 139.449 11.5997ZM2.70818 6.40575C2.70818 9.36511 4.41489 10.9859 6.88861 10.9859C9.60979 10.9859 11.0728 8.58093 11.0728 8.58093L11.173 8.51593L10.27 11.5997C10.27 11.5997 8.30793 12.2674 6.62443 12.2674C2.16311 12.2674 0 9.19889 0 6.42107C0 2.96679 2.61996 0.396964 6.79296 0.396964C9.10604 0.396964 10.7296 1.19043 10.7296 1.19043L10.7296 3.67807L10.6646 3.62421C10.6646 3.62421 9.69011 1.51404 6.97961 1.51404C4.368 1.51404 2.70818 3.44964 2.70818 6.40575ZM106.494 8.58093L106.592 8.51593L105.689 11.5997C105.689 11.5997 103.729 12.2674 102.044 12.2674C97.5831 12.2674 95.42 9.19889 95.42 6.42107C95.42 2.96679 98.039 0.396964 102.216 0.396964C104.524 0.396964 106.149 1.19043 106.149 1.19043L106.149 3.67807L106.084 3.62421C106.084 3.62421 105.108 1.51404 102.402 1.51404C99.7852 1.51404 98.1273 3.44964 98.1273 6.40575C98.1273 9.36511 99.8349 10.9859 102.307 10.9859C105.028 10.9859 106.494 8.58093 106.494 8.58093ZM122.506 0.447107C122.506 0.447107 122.311 0.577107 120.954 0.577107L114.327 0.577107L114.402 0.656964C114.402 0.656964 115.169 0.771179 115.169 2.12457L115.169 10.5453C115.169 11.8992 114.402 12.0125 114.402 12.0125L114.327 12.0928L118.436 12.0928L118.356 12.0125C118.356 12.0125 117.591 11.8992 117.591 10.5453L117.591 6.46936L120.016 6.46936C121.37 6.46936 121.485 7.06504 121.485 7.06504L121.565 7.14489L121.565 4.67071L121.485 4.75057C121.485 4.75057 121.37 5.34254 120.016 5.34254L117.591 5.34254L117.591 1.66261L120.507 1.66261C121.863 1.66261 122.428 2.44075 122.428 2.44075L122.506 2.50296L122.506 0.447107ZM23.0991 0.4485C23.0991 0.4485 23.2886 0.5785 24.6457 0.5785L31.9331 0.5785C33.2907 0.5785 33.482 0.4485 33.482 0.4485L33.4778 2.73789L33.3975 2.67939C33.3975 2.67939 32.7465 1.68721 31.3913 1.68721L29.5063 1.68721L29.4956 10.5305C29.4956 11.888 30.2649 12.0032 30.2649 12.0032L30.342 12.0812L26.2303 12.0812L26.3101 12.0032C26.3101 12.0032 27.0739 11.888 27.0739 10.5305L27.0739 1.68721L25.1429 1.68721C23.7914 1.68721 23.1734 2.67939 23.1734 2.67939L23.0926 2.73789L23.0991 0.4485ZM46.2336 10.5305C46.2336 9.17382 46.2289 3.46125 46.2289 2.10554C46.2289 0.749821 46.9969 0.651857 46.9969 0.651857L47.0772 0.577107L42.9627 0.577107L43.0388 0.651857C43.0388 0.651857 43.8086 0.749821 43.8086 2.10554C43.8086 3.46125 43.8156 5.41218 43.8156 5.41218L38.1555 5.41218L38.1555 2.10554C38.1555 0.749821 38.928 0.656964 38.928 0.656964L39.0028 0.5785L34.8934 0.5785L34.9742 0.656964C34.9742 0.656964 35.7398 0.749821 35.7398 2.10554L35.7398 10.5305C35.7398 11.888 34.9742 12.0032 34.9742 12.0032L34.8934 12.0812L39.0028 12.0812L38.928 12.0032C38.928 12.0032 38.1555 11.888 38.1555 10.5305L38.1555 6.54132L43.8156 6.54132L43.8156 10.5305C43.8156 11.888 43.0476 12.0032 43.0476 12.0032L42.9673 12.0812L47.0832 12.0812L47.0038 12.0032C47.0038 12.0032 46.2336 11.888 46.2336 10.5305ZM80.4301 8.01171C82.9683 8.01171 84.481 6.08911 84.481 4.23614C84.481 3.211 84.1026 1.38311 81.5369 0.737286C80.9649 0.590107 80.3256 0.582214 79.4899 0.582214L74.978 0.577107L75.0527 0.651857C75.0527 0.651857 75.8239 0.766071 75.8239 2.12086L75.8239 10.5453C75.8239 11.8992 75.0527 12.0125 75.0527 12.0125L74.978 12.0928L79.0855 12.0928L79.0094 12.0125C79.0094 12.0125 78.2433 11.8992 78.2433 10.5453L78.2433 7.60918C78.6012 7.76843 79.3251 8.01171 80.4301 8.01171ZM111.342 2.12086L111.342 10.5453C111.342 11.8992 112.114 12.0125 112.114 12.0125L112.192 12.0928L108.077 12.0928L108.157 12.0125C108.157 12.0125 108.923 11.8992 108.923 10.5453L108.923 2.12086C108.923 0.766071 108.157 0.651857 108.157 0.651857L108.077 0.577107L112.192 0.577107L112.114 0.651857C112.114 0.651857 111.342 0.766071 111.342 2.12086ZM127.171 10.5453L127.171 2.12086C127.171 0.766071 127.939 0.651857 127.939 0.651857L128.016 0.577107L123.903 0.577107L123.981 0.651857C123.981 0.651857 124.749 0.766071 124.749 2.12086L124.749 10.5453C124.749 11.8992 123.981 12.0125 123.981 12.0125L123.903 12.0928L128.016 12.0928L127.939 12.0125C127.939 12.0125 127.171 11.8992 127.171 10.5453ZM67.3451 0.5785L67.4259 0.656964C67.4259 0.656964 68.4413 0.9425 67.6757 2.13432C67.2987 2.71329 66.1677 4.33457 65.136 5.90107C64.0993 4.33457 62.9845 2.704 62.6117 2.12457C61.8461 0.930893 62.8671 0.656964 62.8671 0.656964L62.9404 0.5785L58.2043 0.5785L58.2809 0.656964C58.2809 0.656964 58.9675 0.771179 59.8664 2.12457C60.2439 2.69704 62.1679 5.38479 63.2023 6.95314L63.2023 10.5305C63.2023 11.888 62.4334 12.0032 62.4334 12.0032L62.3559 12.0812L66.4681 12.0812L66.3896 12.0032C66.3896 12.0032 65.6235 11.888 65.6235 10.5305C65.6235 9.95568 65.6175 8.51918 65.6175 6.95314C66.6533 5.38479 68.5801 2.70864 68.9604 2.13432C69.8504 0.780929 70.8741 0.656964 70.8741 0.656964L70.9531 0.5785L67.3451 0.5785ZM78.2433 6.56407L78.2433 1.67746L78.7832 1.67746C79.4458 1.67746 80.1301 1.67746 80.541 1.81257C81.6275 2.13432 82.1763 2.96168 82.1763 4.26307C82.1763 5.32675 81.4993 6.90857 79.6283 6.90857C79.0888 6.90857 78.5237 6.69407 78.2433 6.56407ZM15.6344 7.69043L17.4107 3.95618L19.0301 7.69043L15.6344 7.69043ZM51.8649 7.69043L53.6412 3.95618L55.2602 7.69043L51.8649 7.69043ZM86.9756 7.69043L88.7496 3.95618L90.3709 7.69043L86.9756 7.69043Z" transform="translate(0.4338286 0.2685893)" id="Fill-4" fill="#FEFEFE" fill-rule="evenodd" stroke="none" />
      </g>
    </g>
  </g>
</svg>