<?xml version="1.0" encoding="utf-8"?>
<svg width="58px" height="15px" viewBox="0 0 58 15" version="1.1" xmlns:xlink="http://www.w3.org/1999/xlink" xmlns="http://www.w3.org/2000/svg">
  <desc>Created with Lunacy</desc>
  <defs>
    <path d="M0 0L4.45166 0L4.45166 6.5791L0 6.5791L0 0Z" transform="translate(0.1833559 0.1759322)" id="path_1" />
    <path d="M0 0L5.81286 0L5.81286 5.15364L0 5.15364L0 0Z" transform="translate(0 0.1925339)" id="path_2" />
    <path d="M0 0L1.02737 0L1.02737 1.00538L0 1.00538L0 0Z" transform="translate(0.1953051 0.0115678)" id="path_3" />
    <clipPath id="mask_1">
      <use xlink:href="#path_1" />
    </clipPath>
    <clipPath id="mask_2">
      <use xlink:href="#path_2" />
    </clipPath>
    <clipPath id="mask_3">
      <use xlink:href="#path_3" />
    </clipPath>
  </defs>
  <g id="Emirates-Logo">
    <path d="M1.21068 1.10288C1.13314 1.18347 0.860593 1.5961 0.860593 2.10712C0.860593 2.22966 0.862627 5.15898 0.860593 5.26398C0.856017 5.48695 0.72 5.80449 0.607881 5.91661C0.528559 5.99542 0.0429661 6.43703 0 6.48356L0.275339 6.48814C0.364831 6.4022 1.30068 5.57263 1.39881 5.46127C1.52619 5.31636 1.82949 4.94975 1.82949 4.37364C1.82949 4.23814 1.83102 1.46288 1.83102 1.34059C1.83102 0.885509 2.04305 0.632797 2.15237 0.511017C2.26449 0.385932 2.63314 0.0783051 2.69873 0.00864407L2.40966 0C2.33975 0.0701695 1.30678 1.0022 1.21068 1.10288" transform="translate(5.784737 0.2634152)" id="Fill-1" fill="#FEFEFE" stroke="none" />
    <path d="M0 4.47509L1.14585 5.47627L1.91314 5.47627C2.69364 5.47627 3.40653 5.1422 3.87712 4.67161C4.34822 4.20076 4.52136 3.56847 4.52136 2.97661L4.52136 1.33551C4.52136 0.784068 4.17483 0.463475 4.07873 0.367373C4.02636 0.315 3.69229 0 3.69229 0L3.69229 1.25924C3.69229 1.25924 4.06017 1.63907 4.13288 1.71585C4.4728 2.07712 4.46898 2.73458 3.3928 3.78356C3.20441 3.96737 2.6667 4.47509 1.92686 4.47509L0 4.47509Z" transform="translate(4.678474 8.370381)" id="Fill-3" fill="#FEFEFE" stroke="none" />
    <path d="M7.13619 2.64788C7.13619 2.35678 7.25847 2.02602 7.38636 1.89102C7.49186 1.77992 7.96398 1.3561 8.00771 1.31619L7.71864 1.31949C7.60703 1.40542 6.63051 2.29881 6.5067 2.43686C6.28805 2.68246 6.16551 3.14669 6.16119 3.26924C6.16119 3.26924 1.72297 3.27356 1.60932 3.27356C1.05483 3.27356 0.670932 2.72008 0.670932 2.23754C0.670932 2.17856 0.687966 1.07085 0.687966 1.07085C0.687966 0.118983 0.440085 0.0190678 0.394576 0L0 0C0.260847 0.132712 0.424068 0.563136 0.424068 0.81839C0.424068 0.864055 0.423939 0.968875 0.423772 1.1038C0.423239 1.53679 0.422323 2.27982 0.424068 2.37305C0.432712 2.78822 0.731695 4.34085 2.13076 4.34085L6.15254 4.34085C6.15254 4.34085 6.16551 6.80873 6.16551 6.91348C6.16551 7.32763 6.02847 7.57627 5.91025 7.69881C5.80653 7.80661 5.28915 8.2767 5.28915 8.2767L5.57797 8.27034C5.69619 8.18288 6.58042 7.37619 6.66356 7.28466C6.87763 7.04848 7.13619 6.78508 7.13619 5.99975L7.13619 4.36271C7.13619 4.36271 7.49517 3.98237 7.59992 3.89492C7.70441 3.80746 8.4 3.14669 8.4 3.14669C8.4 4.07847 9.04856 4.2511 9.42712 3.89059C9.57381 3.75102 10.0475 3.31653 10.1535 3.21229C10.4814 2.8889 10.6627 1.87678 9.86059 1.88364C9.38034 1.8872 8.80653 2.58305 8.74093 2.66593C8.56602 2.54339 8.40432 2.31178 8.40432 2.31178C8.40432 2.31178 8.40864 2.91966 8.40432 2.92831C8.33441 3.04627 8.01102 3.26924 7.76619 3.26924L7.13619 3.26924L7.13619 2.64788ZM9.27 3.27356C9.14441 3.17314 8.88076 2.82331 8.88076 2.82331C9.02949 2.66593 9.5339 2.61458 9.66407 2.7928C9.9928 3.24458 9.76017 3.66712 9.27 3.27356Z" transform="translate(0.4796186 4.219882)" id="Fill-5" fill="#FEFEFE" fill-rule="evenodd" stroke="none" />
    <path d="M1.49441 0.945763C1.49441 1.16568 0.792203 1.74915 0.751271 1.79008C0.700424 1.55364 0.523475 1.29178 0 0.768305L0.768305 0C1.28288 0.515593 1.49441 0.62517 1.49441 0.945763" transform="translate(2.985204 9.030102)" id="Fill-7" fill="#FEFEFE" stroke="none" />
    <g id="Group-11" transform="translate(1.525424 0.07835593)">
      <path d="M0 0L4.45166 0L4.45166 6.5791L0 6.5791L0 0Z" transform="translate(0.1833559 0.1759322)" id="Clip-10" fill="none" stroke="none" />
      <g clip-path="url(#mask_1)">
        <path d="M4.38992 1.6861C4.58873 1.48703 4.2572 1.06881 4.10314 0.914746C3.65466 0.466525 3.65873 0 3.65873 0C3.65873 0 3.5189 0.135508 3.13424 0.520169C2.92831 0.726356 2.98678 1.17 3.4167 1.59992C3.4167 1.59992 3.42788 2.39008 3.42788 2.68297C3.42788 2.78034 3.33585 2.88076 3.33585 2.88076C3.33585 2.88076 2.71068 2.31153 2.13915 2.31153L1.2872 2.31153C0.740339 2.31153 0.309661 2.79814 0.264915 2.84314C-0.0175424 3.12559 -0.0261864 3.66331 0.210763 3.90127C0.324915 4.01517 0.799831 4.48881 0.799831 4.48881C0.799831 4.48881 0.652881 3.52017 0.799831 2.87441C0.846864 2.66822 1.15729 2.47042 1.39119 2.62729C1.87017 2.94763 2.59754 3.62186 2.59754 3.62186C2.59754 3.62186 1.04466 5.24542 0.98339 5.30695C0.924407 5.36619 0.703729 5.53119 0.493729 5.53449C0.239201 5.53786 0.125853 5.4053 0.0216933 5.28348C0.0158819 5.27669 0.0100991 5.26992 0.00432203 5.26322C0.00432203 5.26322 0 5.98907 0 6.05466C0 6.31703 0.345763 6.57915 0.681864 6.57915L2.81568 6.57915C2.94686 6.57915 3.12153 6.55398 3.2878 6.40449C3.37525 6.32568 3.94907 5.74881 4.00475 5.68729C4.11737 5.56322 4.15831 5.43814 4.15831 5.27644C4.15831 5.20042 4.15678 4.84856 4.15678 4.46593C4.15678 3.67703 3.53771 3.0628 3.53771 3.0628C3.53771 3.0628 3.66381 2.9672 3.67246 2.63237C3.67475 2.54034 3.67246 1.79822 3.67246 1.79822C3.67246 1.79822 3.92771 2.04025 3.94144 2.14093C3.94144 2.14093 4.21398 1.86203 4.38992 1.6861ZM0.982373 5.59551C1.17915 5.47754 1.21576 5.42237 1.42602 5.2022C1.46975 5.15542 2.79483 3.79246 2.79483 3.79246C2.79483 3.79246 3.55119 4.56941 3.79042 4.98737C3.90737 5.19127 4.03703 5.59551 3.38568 5.59551L0.982373 5.59551Z" transform="translate(0.1833559 0.1758814)" id="Fill-9" fill="#FEFEFE" fill-rule="evenodd" stroke="none" />
      </g>
    </g>
    <g id="Group-14" transform="translate(0 7.451237)">
      <path d="M0 0L5.81286 0L5.81286 5.15364L0 5.15364L0 0Z" transform="translate(0 0.1925339)" id="Clip-13" fill="none" stroke="none" />
      <g clip-path="url(#mask_2)">
        <path d="M0.394576 0L0 0C0 0 0.424068 0.232881 0.424068 0.83339L0.424068 2.7511C0.424068 3.99941 1.45347 5.15364 2.70432 5.15364L3.74924 5.15364C4.37644 5.15364 4.59661 5.00161 4.97593 4.66525C5.11475 4.54144 5.29551 4.33856 5.36161 4.26483C5.58025 4.02025 5.81288 3.82246 5.81288 3.17975L5.81288 2.55203C5.81288 2.00924 5.4989 1.78373 5.34686 1.6317C5.24975 1.53432 4.98229 1.27907 4.98229 1.27907L4.98229 2.565C4.98229 2.565 5.24568 2.84517 5.36161 2.93669C5.90415 3.36483 5.47246 4.10873 4.96932 4.10873C4.8689 4.10873 2.81466 4.10924 2.67483 4.11305C1.83 4.1339 0.687966 3.38034 0.687966 2.11322L0.687966 1.0711C0.687966 0 0.394576 0 0.394576 0" transform="translate(-2.542373E-05 0.1925339)" id="Fill-12" fill="#FEFEFE" stroke="none" />
      </g>
    </g>
    <path d="M1.49441 0.946017C1.49441 1.16492 0.792203 1.74915 0.751271 1.79008C0.700932 1.55364 0.523475 1.29178 0 0.768305L0.768305 0C1.28364 0.515593 1.49441 0.624407 1.49441 0.946017" transform="translate(1.414703 9.033305)" id="Fill-15" fill="#FEFEFE" stroke="none" />
    <g id="Group-19" transform="translate(2.542373 13.55293)">
      <path d="M0 0L1.02737 0L1.02737 1.00538L0 1.00538L0 0Z" transform="translate(0.1953051 0.0115678)" id="Clip-18" fill="none" stroke="none" />
      <g clip-path="url(#mask_3)">
        <path d="M0.513559 1.00551C0.797288 1.00551 1.02737 0.780254 1.02737 0.502627C1.02737 0.225254 0.797288 0 0.513559 0C0.230085 0 0 0.225254 0 0.502627C0 0.780254 0.230085 1.00551 0.513559 1.00551" transform="translate(0.1953051 0.0115678)" id="Fill-17" fill="#FEFEFE" stroke="none" />
      </g>
    </g>
    <path d="M5.32144 7.67288C5.11551 7.67288 3.52703 7.67008 3.3 7.67008C2.66237 7.67008 2.71119 7.14076 2.65525 6.68847L2.65525 3.78814C2.65525 3.78814 3.09763 3.7772 3.59898 3.7772C4.15907 3.7772 4.85669 3.69458 5.53525 4.07847C5.53525 4.07847 5.04712 2.90161 3.59542 2.90161L2.65525 2.90161L2.65525 2.33161L2.65525 1.97212C2.65525 1.97212 2.65525 1.16263 2.45746 0.92339C2.45746 0.92339 3.7078 0.927966 3.79322 0.927966C4.94924 0.928729 5.84288 0.910678 6.77212 1.53C6.77212 1.53 6.59415 0 4.36144 0L0 0C0 0 0.757119 0.648305 0.736271 1.9678L0.757119 7.25314C0.757119 8.57975 1.28797 8.61661 1.28797 8.61661L2.77754 8.61661L3.4678 8.61661L5.58636 8.61661C6.56085 8.61661 6.89975 7.92 6.89975 7.54246L6.91424 7.03551C6.91424 7.03551 6.60483 7.67288 5.32144 7.67288" transform="translate(12.45994 3.764339)" id="Fill-20" fill="#FEFEFE" stroke="none" />
    <path d="M9.59415 5.52356L9.59415 1.82644C9.59415 0.39178 8.42212 0.010678 7.54932 0.010678C6.39356 0.010678 6.04729 0.976017 5.89983 1.30805C5.64203 0.408051 4.74127 0 4.00246 0C2.60644 0 2.25229 1.32941 2.25229 1.32941C2.25229 1.32941 2.21924 0.046017 1.09831 0.046017L0 0.0485593C0 0.0485593 0.636102 0.310169 0.636102 1.41915L0.634322 5.52432C0.634322 6.87966 1.18093 6.90331 1.18093 6.90331L2.9911 6.90331C2.94458 6.87966 2.29627 6.39076 2.29627 5.51263L2.29627 1.87144C2.31864 1.70975 2.5922 1.15958 3.37297 1.15958C3.81534 1.15958 4.30195 1.62051 4.29076 2.13915L4.28898 5.52254C4.28898 6.89771 4.82848 6.90153 4.82848 6.90153L6.64602 6.90153C6.64602 6.90153 5.95093 6.41237 5.95093 5.51085L5.94585 1.86864C6.01398 1.66551 6.25297 1.17102 6.9389 1.17102C7.48551 1.17102 7.94314 1.6322 7.93195 2.15085C7.93195 2.15085 7.92865 5.23932 7.93042 5.5261C7.93856 6.91017 8.46966 6.89771 8.46966 6.89771C9.41619 6.89771 10.2872 6.90153 10.2872 6.90153C10.2872 6.90153 9.59415 6.42229 9.59415 5.52356" transform="translate(19.62951 5.467017)" id="Fill-22" fill="#FEFEFE" stroke="none" />
    <path d="M2.29576 5.47678C2.29576 6.38822 2.99314 6.85678 2.99314 6.85678C2.99314 6.85678 2.12848 6.85297 1.18297 6.85297C1.18297 6.85297 0.627458 6.8611 0.627458 5.48746L0.627458 5.48136L0.629238 1.36449C0.629238 0.278898 0 0 0 0L1.09856 0C1.48576 0 2.2922 0 2.2922 1.53534L2.28941 5.47068L2.29576 5.47678Z" transform="translate(30.10365 5.511814)" id="Fill-24" fill="#FEFEFE" stroke="none" />
    <path d="M4.62025 0.526017C4.62025 0.526017 4.44559 0.0325424 3.69331 0.0325424C2.55636 0.0325424 2.27949 1.38356 2.27949 1.38356C2.18695 0.315763 1.90119 0 1.09856 0L0 0.00279661C0 0.00279661 0.63661 0.263644 0.63661 1.37263L0.634576 5.48314C0.634576 6.83949 1.18093 6.86186 1.18093 6.86186L2.99136 6.86186C2.94458 6.83949 2.29627 6.35059 2.29627 5.4722L2.29831 2.10686C2.3461 1.80153 2.50347 1.56686 2.74246 1.41203C3.33941 1.02585 4.15373 1.11712 4.62025 1.68712L4.62025 0.526017Z" transform="translate(33.35659 5.503704)" id="Fill-26" fill="#FEFEFE" stroke="none" />
    <path d="M3.2583 2.33517C3.87127 2.33517 4.3289 2.60314 4.3289 2.60314L4.33424 1.56839L2.81161 1.56839L2.81237 0C2.81237 0 2.41271 0.692034 1.59356 1.36449C1.07975 1.78703 0 2.30822 0 2.30822L1.14966 2.32907L1.14788 7.09907C1.14788 8.42212 1.70085 8.42212 1.70085 8.42212C2.6939 8.42212 3.50924 8.42593 3.50924 8.42593C3.50924 8.42593 2.80983 7.95737 2.80983 7.08737L2.81161 2.33237C3.28881 2.33415 2.95983 2.33517 3.2583 2.33517" transform="translate(43.16672 3.942585)" id="Fill-28" fill="#FEFEFE" stroke="none" />
    <path d="M1.91542 4.54632C2.55381 3.76785 3.3511 3.93437 4.36678 2.87191C5.70153 1.47513 4.7067 -0.00986587 2.86856 4.93812e-05C0.993305 0.0097104 0 1.74107 0 3.60615C0 5.50276 1.2183 6.90157 2.99695 6.90157C4.47305 6.90157 4.93754 6.36132 4.93754 6.36132L4.94314 5.25463C4.21856 6.50496 3.10042 6.10124 2.82458 5.97361C2.01814 5.60166 1.91542 4.54734 1.91542 4.54632ZM2.76508 0.547931C3.79246 0.470897 3.55602 1.8809 3.255 2.43666C2.79636 3.28149 2.19992 3.36971 1.80153 3.80191C1.80153 3.80191 1.575 0.637168 2.76508 0.547931Z" transform="translate(47.56284 5.476985)" id="Fill-30" fill="#FEFEFE" fill-rule="evenodd" stroke="none" />
    <path d="M2.22683 2.75901C2.71005 2.55324 3.11664 2.3801 3.24753 2.15085C3.47787 1.74915 3.38508 1.43898 3.38508 1.43898C3.39042 1.20966 3.32228 0.750508 2.40092 0.750508C1.45643 0.750508 1.08398 1.6978 1.08398 1.6978L1.08398 0.502373C1.08398 0.502373 1.74016 0 2.78381 0C3.86965 0 4.89169 0.717203 4.89169 1.63831L4.89169 5.49102C4.89169 6.39508 5.59643 6.86364 5.59643 6.86364C5.59643 6.86364 4.73253 6.85983 3.78626 6.85983C3.78626 6.85983 3.40059 6.81585 3.27804 6.05288C3.07262 6.45 2.58067 6.87712 1.76279 6.87712C0.920501 6.87712 0.25084 6.58398 0.0522808 5.57898C-0.294167 3.83255 1.1549 3.21548 2.22683 2.75901ZM1.47169 5.21619C1.47169 5.65627 1.76635 6.08619 2.17974 6.08619C2.91677 6.08619 3.08482 5.8439 3.25033 5.69669L3.24754 2.81161C2.87253 3.26822 1.47169 3.50466 1.47169 5.21619Z" transform="translate(37.6836 5.504848)" id="Fill-32" fill="#FEFEFE" fill-rule="evenodd" stroke="none" />
    <path d="M2.67967 5.04636C2.68984 5.53068 2.25637 6.16703 1.33425 6.16703C0.390265 6.16703 0.0129768 5.20093 0.0129768 5.20093L0.0129768 6.42534C0.0129768 6.42534 0.694079 6.91068 1.73798 6.91068C2.97637 6.91068 4.22849 5.96949 4.20052 4.6589C4.19137 4.19771 4.02713 3.80492 3.77544 3.46602C3.35645 2.90415 2.59349 2.51161 2.00289 2.1483C1.66577 1.94059 1.48705 1.56966 1.48247 1.43924C1.47255 1.20992 1.58391 0.746186 2.50628 0.746186C3.40578 0.746186 3.78891 1.69347 3.78891 1.69347L3.78535 0.54661C3.78535 0.54661 3.09688 0 2.05323 0C0.967384 0 -0.0185486 0.717458 0.000264956 1.63881C0.0170446 2.44754 0.357723 2.97178 1.01976 3.46525C1.28137 3.66025 1.59332 3.84991 1.95433 4.05025C2.48111 4.34237 2.67281 4.70034 2.67967 5.04636" transform="translate(53.2579 5.460559)" id="Fill-34" fill="#FEFEFE" stroke="none" />
  </g>
</svg>