<?xml version="1.0" encoding="utf-8"?>
<svg width="82px" height="13px" viewBox="0 0 82 13" version="1.1" xmlns:xlink="http://www.w3.org/1999/xlink" xmlns="http://www.w3.org/2000/svg">
  <desc>Created with Lunacy</desc>
  <defs>
    <path d="M0 0L81.6795 0L81.6795 12.7301L0 12.7301L0 0Z" transform="translate(7.811357E-05 0)" id="path_1" />
    <clipPath id="mask_1">
      <use xlink:href="#path_1" />
    </clipPath>
  </defs>
  <g id="Iberia-Logo">
    <path d="M0 0L81.6795 0L81.6795 12.7301L0 12.7301L0 0Z" transform="translate(7.811357E-05 0)" id="Clip-2" fill="none" stroke="none" />
    <g clip-path="url(#mask_1)">
      <path d="M67.8258 5.85636C69.0605 3.42189 70.1843 1.52129 71.2075 0.000288889L71.2075 0L75.2326 0C76.2758 1.52418 77.3848 3.43373 78.623 5.87167C79.8649 8.31971 80.9402 10.8146 81.6797 12.7287L77.5249 12.7287C77.254 11.8823 76.9616 11.1237 76.6314 10.3708L69.8061 10.3708C69.4785 11.1268 69.1691 11.9326 68.9149 12.7287L64.761 12.7287C65.4572 10.8183 66.5804 8.307 67.8258 5.85636ZM8.35742 0.000288889C8.1552 1.90176 8.04889 4.2978 8.04889 6.36307C8.04889 8.43267 8.14306 10.4578 8.35742 12.7287L15.8633 12.7287C18.5194 12.7287 20.1548 12.4208 21.1699 11.7272C21.9525 11.1898 22.4367 10.123 22.4367 8.94082C22.4367 7.55011 21.6423 6.43904 20.2484 5.8708C21.1754 5.34964 21.7653 4.34662 21.7653 3.26213C21.7653 2.25738 21.4753 1.56116 20.8238 1.00793C19.7295 0.0768444 17.7232 0.000288889 15.59 0.000288889L8.35742 0.000288889ZM25.3837 6.37116C25.3837 4.30011 25.505 2.01731 25.6931 0.000288889L37.8437 0.000288889C37.7631 0.895267 37.7134 1.64493 37.6727 2.53789L29.4137 2.53789C29.3435 3.38433 29.3195 4.40411 29.3195 5.10178L36.9467 5.10178L36.9467 7.50302L29.3195 7.50302C29.3209 8.35987 29.3504 9.23838 29.4145 10.1917L37.6831 10.1917C37.7276 11.1069 37.7773 11.8814 37.8406 12.7302L25.6939 12.7302C25.5212 10.6961 25.3837 8.43267 25.3837 6.37116ZM41.1232 6.36307C41.1232 4.27787 41.2272 1.9526 41.43 0.000288889L49.9415 0.000288889C52.0773 0.000288889 53.4114 0.395778 54.2705 1.28382C54.8746 1.91678 55.2224 2.83342 55.2224 3.80236C55.2224 5.49669 54.2009 6.89087 52.5496 7.47096C53.0156 7.93231 53.524 8.54764 54.062 9.30453C55.0026 10.6314 55.6286 11.6263 56.2064 12.7287L51.8046 12.7287C51.3077 11.52 50.8608 10.6239 50.2821 9.71476C49.785 8.92898 49.3118 8.32231 49.0232 8.00338L45.0613 8.00338C45.1171 9.66969 45.2003 11.0812 45.3699 12.7287L41.4326 12.7287C41.2263 10.5147 41.1232 8.43267 41.1232 6.36307ZM0.000152998 6.47256C-0.00475811 4.22356 0.108775 1.8226 0.310131 0.000866667L3.70313 0.000866667C3.8886 1.80584 4.01658 4.22731 4.0108 6.47169C4.00444 8.63316 3.92933 10.712 3.70169 12.7287L0.310131 12.7287C0.0897086 10.7016 0.00477522 8.62824 0.000152998 6.47256ZM58.781 6.47256C58.776 4.22356 58.8904 1.8226 59.0918 0.000866667L62.4839 0.000866667C62.6685 1.80584 62.7971 4.22731 62.791 6.47169C62.7852 8.63316 62.7101 10.712 62.4808 12.7287L59.0918 12.7287C58.8711 10.7016 58.7859 8.62824 58.781 6.47256ZM45.1795 2.3842L48.6427 2.3842C49.9176 2.3842 50.5378 2.5402 50.9344 2.96227C51.1702 3.19887 51.3109 3.57673 51.3109 3.97482C51.3109 4.66151 50.9567 5.26904 50.3359 5.64951L45.0587 5.64951C45.0613 4.7086 45.1012 3.63682 45.1795 2.3842ZM15.4349 2.40818L12.1043 2.40818C12.0382 3.30922 11.9997 4.19467 11.9867 5.14656L17.3173 5.14656C17.7131 4.8412 17.9295 4.37782 17.9295 3.83904C17.9295 3.44904 17.8119 3.09804 17.6146 2.89842C17.2295 2.51073 16.7811 2.40818 15.4349 2.40818ZM73.2161 3.00791C74.073 4.54249 74.8417 6.09844 75.6977 8.01464L70.7404 8.01464C71.5758 6.13629 72.3454 4.58091 73.2161 3.00791ZM11.9838 7.45247L16.7777 7.45247C17.4716 7.45247 17.8249 7.54693 18.1357 7.81156C18.4266 8.06 18.5618 8.36767 18.5618 8.78511C18.5618 9.22307 18.4347 9.56424 18.1742 9.82309C17.8009 10.1732 17.2751 10.3229 16.3565 10.3229L12.1043 10.3229C12.0205 9.31031 11.9876 8.28938 11.9838 7.45247Z" transform="translate(7.811357E-05 -8.666667E-05)" id="Fill-1" fill="#FFFFFF" fill-rule="evenodd" stroke="none" />
    </g>
  </g>
</svg>