<?xml version="1.0" encoding="utf-8"?>
<svg width="60px" height="15px" viewBox="0 0 60 15" version="1.1" xmlns:xlink="http://www.w3.org/1999/xlink" xmlns="http://www.w3.org/2000/svg">
  <desc>Created with Lunacy</desc>
  <defs>
    <path d="M0 0L2.61273 0L2.61273 3.4209L0 3.4209L0 0Z" transform="translate(0.1727532 0.0855974)" id="path_1" />
    <clipPath id="mask_1">
      <use xlink:href="#path_1" />
    </clipPath>
  </defs>
  <g id="Malyasia-Logo">
    <path d="M10.8259 0.664286C10.5873 0.361169 10.1213 0 9.26045 0L2.06299 0L0 7.55435L2.02247 7.55435L3.6337 1.65448L5.43682 1.65448L3.82656 7.55435L5.84922 7.55435L7.45734 1.65448L8.23188 1.65448C8.55253 1.65448 8.77987 1.73552 8.90708 1.89955C9.09351 2.13507 9.03506 2.48649 8.98442 2.67565L7.65175 7.55435L9.67383 7.55435L11.1056 2.31292C11.2728 1.70123 11.1701 1.09929 10.8259 0.664286" transform="translate(3.896104E-05 2.164968)" id="Fill-10" fill="#FEFEFE" stroke="none" />
    <path d="M6.43497 0C7.13919 0 7.76997 0.26961 8.12627 0.71961C8.50965 1.2037 8.58815 1.87227 8.36179 2.70273L7.0375 7.55435L1.84809 7.55435C1.14971 7.55435 0.615556 7.34727 0.306595 6.95669C-0.0171717 6.54857 -0.0849639 5.95909 0.105361 5.25526C0.488932 3.85286 1.62387 2.98344 3.06523 2.98344L6.26296 2.98344L6.34439 2.68734C6.44354 2.31916 6.42231 2.03864 6.27465 1.85299C6.12874 1.66773 5.85289 1.57403 5.45646 1.57403L1.63497 1.57403L2.06491 0L6.43497 0ZM2.98653 5.98032L5.44478 5.98032L5.83185 4.55805L3.40614 4.55805C2.92672 4.55805 2.41653 4.64279 2.24179 5.28253C2.18218 5.50247 2.19601 5.67019 2.28231 5.78143C2.42335 5.96006 2.75159 5.98032 2.98653 5.98032Z" transform="translate(11.07599 2.164968)" id="Fill-12" fill="#FEFEFE" fill-rule="evenodd" stroke="none" />
    <path d="M6.43505 0C7.13927 0 7.77258 0.26961 8.12693 0.718052C8.5109 1.2037 8.58921 1.87227 8.36129 2.70273L7.03817 7.55435L1.84875 7.55435C1.14882 7.55435 0.616805 7.34727 0.307259 6.95669C-0.0167018 6.54857 -0.0862473 5.95909 0.106999 5.25526C0.489012 3.85286 1.62297 2.98344 3.06745 2.98344L6.26343 2.98344L6.3433 2.68734C6.44362 2.31916 6.4218 2.03864 6.27375 1.85299C6.1294 1.66773 5.85297 1.57403 5.45654 1.57403L1.63505 1.57403L2.06401 0L6.43505 0ZM2.98758 5.98032L5.44583 5.98032L5.83427 4.55805L3.40622 4.55805C2.92856 4.55805 2.41719 4.64279 2.24187 5.28253C2.18284 5.50247 2.19551 5.67019 2.28297 5.78143C2.42557 5.96006 2.7544 5.98032 2.98758 5.98032Z" transform="translate(22.74669 2.164968)" id="Fill-14" fill="#FEFEFE" fill-rule="evenodd" stroke="none" />
    <path d="M7.80896 0L6.19773 5.89987L4.20974 5.89987C3.89182 5.89987 3.66331 5.81727 3.53591 5.65636C3.34851 5.41987 3.41026 5.05987 3.46208 4.86643L4.79143 0L2.76994 0L1.38994 5.05344C1.17623 5.83442 1.2411 6.44747 1.5826 6.8774C2.02325 7.43727 2.82058 7.55435 3.41182 7.55435L5.74656 7.55435L5.5389 8.29909C5.41422 8.75435 4.88201 9.23922 4.14156 9.23922L0.431104 9.23922L0 10.8127L4.31961 10.8127C5.52818 10.8127 7.15909 9.77026 7.56935 8.2724L9.83104 0L7.80896 0Z" transform="translate(30.20069 2.164929)" id="Fill-16" fill="#FEFEFE" stroke="none" />
    <path d="M7.9761 3.58169C7.66383 3.19071 7.1324 2.98364 6.43558 2.98364L4.35331 2.98364C4.10688 2.98364 3.76422 2.96338 3.61948 2.77792C3.53357 2.67136 3.51974 2.51007 3.5774 2.30026C3.75097 1.65994 4.27617 1.57403 4.76669 1.57403L8.78786 1.57403L9.21604 0L4.40182 0C2.95831 0 1.82377 0.87 1.44175 2.27084C1.25162 2.96825 1.32253 3.55247 1.64201 3.96039C1.95156 4.35097 2.48571 4.55825 3.18799 4.55825L5.26948 4.55825C5.51357 4.55825 5.85604 4.57831 6.00136 4.7626C6.08669 4.87247 6.10227 5.03825 6.04247 5.25545C5.86734 5.89519 5.34312 5.98032 4.85318 5.98032L0.428182 5.98032L0 7.55455L5.2163 7.55455C6.66039 7.55455 7.7961 6.68455 8.17792 5.28253C8.36922 4.58221 8.29948 3.99351 7.9761 3.58169" transform="translate(39.09275 2.16487)" id="Fill-18" fill="#FEFEFE" stroke="none" />
    <path d="M2.06143 0L0 7.55435L2.02208 7.55435L4.08467 0L2.06143 0Z" transform="translate(47.58764 2.164929)" id="Fill-20" fill="#FEFEFE" stroke="none" />
    <path d="M6.43364 0C7.13942 0 7.77273 0.26961 8.1261 0.718052C8.50948 1.2037 8.58935 1.87227 8.3624 2.70273L7.03773 7.55435L1.84909 7.55435C1.14799 7.55435 0.61539 7.34727 0.30526 6.95669C-0.016363 6.54857 -0.0862981 5.95909 0.107143 5.25526C0.488962 3.85286 1.6237 2.98344 3.06721 2.98344L6.26591 2.98344L6.34481 2.68734C6.44494 2.31916 6.42195 2.03864 6.27584 1.85299C6.12916 1.66773 5.85312 1.57403 5.4561 1.57403L1.63597 1.57403L2.06474 0L6.43364 0ZM2.98792 5.98032L5.44344 5.98032L5.83442 4.55805L3.40597 4.55805C2.9287 4.55805 2.41578 4.64279 2.2426 5.28253C2.18143 5.50247 2.19623 5.67019 2.28351 5.78143C2.42474 5.96006 2.75396 5.98032 2.98792 5.98032Z" transform="translate(50.98177 2.164968)" id="Fill-22" fill="#FEFEFE" fill-rule="evenodd" stroke="none" />
    <path d="M2.61955 0L0 9.60214L2.02188 9.60214L4.64221 0L2.61955 0Z" transform="translate(19.28328 0.1171948)" id="Fill-24" fill="#FEFEFE" stroke="none" />
    <path d="M2.97284 0C3.06654 0 3.38349 0.0187013 3.55978 0.250325C3.69147 0.421948 3.71427 0.670325 3.62641 0.988636L2.97401 3.39955L0.928551 3.39955C0.563096 3.39955 0.296603 3.30312 0.158096 3.12156C0.0275767 2.94955 -0.0456701 2.70604 0.0314728 2.39338C0.201927 1.70942 0.701408 1.34708 1.41732 1.34708L2.93816 1.34708C2.93816 1.34708 3.02991 1.03461 3.05173 0.931364C3.07511 0.818182 3.07511 0.696234 3.0192 0.622403C2.94849 0.529481 2.81836 0.482727 2.65433 0.482727L0.65407 0.482727L0.785758 0L2.97284 0ZM1.17498 2.92442L2.50725 2.92442L2.80998 1.82396L1.45901 1.82396C1.0205 1.82396 0.743486 2.00338 0.641992 2.38052C0.593486 2.55273 0.620564 2.67935 0.688745 2.76935C0.767447 2.87318 0.927382 2.92442 1.17498 2.92442Z" transform="translate(37.92661 11.40138)" id="Fill-26" fill="#FEFEFE" fill-rule="evenodd" stroke="none" />
    <path d="M0.58909 3.39955L1.51013 0L0.922401 0L0 3.39955L0.58909 3.39955Z" transform="translate(41.47646 11.40146)" id="Fill-28" fill="#FEFEFE" stroke="none" />
    <path d="M0.588311 4.33013L1.76552 0L1.17682 0L0 4.33013L0.588311 4.33013Z" transform="translate(44.78246 10.47088)" id="Fill-30" fill="#FEFEFE" stroke="none" />
    <path d="M0.587532 3.39955L1.51013 0L0.921038 0L0 3.39955L0.587532 3.39955Z" transform="translate(45.94597 11.40146)" id="Fill-32" fill="#FEFEFE" stroke="none" />
    <path d="M2.69143 0L0.921818 0L0 3.39955L0.588506 3.39955L1.38058 0.482727L2.47461 0.482727C2.71325 0.482727 2.8726 0.532013 2.96162 0.660584C3.06487 0.810779 3.02279 1.01104 2.94974 1.28318L2.37448 3.39955L2.97 3.39955L3.58695 1.12247C3.68747 0.755844 3.64909 0.476104 3.50532 0.289675C3.36117 0.097987 3.0861 0 2.69143 0" transform="translate(47.11001 11.40144)" id="Fill-34" fill="#FEFEFE" stroke="none" />
    <path d="M0.833283 1.39948C0.983477 1.01922 1.38146 0.482727 2.07965 0.482727L3.26601 0.482727L3.39653 0L2.00153 0C0.997503 0 0.315685 0.859481 0.0848408 1.71058C-0.0632112 2.25506 -0.0156787 2.73916 0.213217 3.03896C0.395555 3.27916 0.683088 3.39974 1.06549 3.39974L2.47354 3.39974L2.60231 2.92442L1.39374 2.92442C1.09802 2.92442 0.882958 2.86227 0.758672 2.71403C0.613347 2.54474 0.601659 2.24162 0.684646 1.92955L0.692633 1.90617L2.80315 1.90617L2.92997 1.43727L0.821205 1.43727L0.833283 1.39948Z" transform="translate(50.89796 11.40136)" id="Fill-36" fill="#FEFEFE" stroke="none" />
    <path d="M3.74688 0.481558L3.87896 0L2.01721 0C1.05779 0 0.758571 0.613636 0.656298 0.984351C0.583831 1.24656 0.633896 1.47818 0.73987 1.61708C0.875259 1.79513 1.08974 1.88571 1.45519 1.88571L2.37292 1.88571C2.93182 1.88571 2.83812 2.30279 2.79487 2.43701C2.65695 2.86617 2.20052 2.90416 1.72578 2.90416L0.127403 2.90416L0 3.37929L2.24844 3.37929C2.82273 3.37929 3.2998 3.01968 3.43792 2.40721C3.50338 2.11481 3.4463 1.8639 3.30623 1.69442C3.17844 1.53994 2.96338 1.41701 2.56967 1.41701L1.78227 1.41701C1.70513 1.41701 1.44351 1.425 1.35292 1.28688C1.29331 1.1963 1.29214 1.09773 1.33325 0.955714C1.45461 0.53961 1.84519 0.481558 2.01993 0.481558L3.74688 0.481558Z" transform="translate(53.83003 11.42172)" id="Fill-38" fill="#FEFEFE" stroke="none" />
    <g id="Group-42" transform="translate(42.46753 11.31526)">
      <path d="M0 0L2.61273 0L2.61273 3.4209L0 3.4209L0 0Z" transform="translate(0.1727532 0.0855974)" id="Clip-41" fill="none" stroke="none" />
      <g clip-path="url(#mask_1)">
        <path d="M1.89039 0C0.87039 0 0.671688 0.948117 0.652987 1.01708C0.633312 1.08623 0 3.42097 0 3.42097L0.588506 3.42097C0.588506 3.42097 1.1963 1.17779 1.21929 1.10591C1.25435 0.996623 1.41623 0.489156 1.98468 0.489156L2.47851 0.489156L2.61273 0L1.89039 0Z" transform="translate(0.1727532 0.0855974)" id="Fill-40" fill="#FEFEFE" stroke="none" />
      </g>
    </g>
  </g>
</svg>