<?xml version="1.0" encoding="utf-8"?>
<svg width="20px" height="20px" viewBox="0 0 20 20" version="1.1" xmlns:xlink="http://www.w3.org/1999/xlink" xmlns="http://www.w3.org/2000/svg">
  <desc>Created with Lunacy</desc>
  <path d="M3.03658 0L16.964 0C18.638 0 20.0006 1.36204 20.0006 3.03658L20.0006 16.9634C20.0006 18.6374 18.638 20 16.964 20L3.03658 20C1.36259 20 0 18.6374 0 16.9634L0 3.03658C0 1.36204 1.36259 0 3.03658 0ZM18.3442 16.9634C18.3442 17.7247 17.7247 18.3436 16.9639 18.3436L3.03651 18.3436C2.27571 18.3436 1.65625 17.7247 1.65625 16.9634L1.65625 3.03651C1.65625 2.27516 2.27571 1.65625 3.03651 1.65625L16.9639 1.65625C17.7247 1.65625 18.3442 2.27516 18.3442 3.03651L18.3442 16.9634ZM5.38425 9.27295C4.82717 9.27295 4.375 9.72457 4.375 10.2822C4.375 10.8398 4.82717 11.2914 5.38425 11.2914C5.94187 11.2914 6.39405 10.8398 6.39405 10.2822C6.39405 9.72457 5.94187 9.27295 5.38425 9.27295ZM9.99948 9.27295C9.44186 9.27295 8.99023 9.72457 8.99023 10.2822C8.99023 10.8398 9.44186 11.2914 9.99948 11.2914C10.5571 11.2914 11.0087 10.8398 11.0087 10.2822C11.0087 9.72457 10.5571 9.27295 9.99948 9.27295ZM13.6074 10.2822C13.6074 9.72457 14.0596 9.27295 14.6172 9.27295C15.1743 9.27295 15.6265 9.72457 15.6265 10.2822C15.6265 10.8398 15.1743 11.2914 14.6172 11.2914C14.0596 11.2914 13.6074 10.8398 13.6074 10.2822Z" id="List-Icon" fill="#1A1919" fill-rule="evenodd" stroke="none" />
</svg>