<?xml version="1.0" encoding="utf-8"?>
<svg width="69px" height="16px" viewBox="0 0 69 16" version="1.1" xmlns:xlink="http://www.w3.org/1999/xlink" xmlns="http://www.w3.org/2000/svg">
  <desc>Created with Lunacy</desc>
  <g id="Group-8" transform="translate(1 1)">
    <path d="M9.00563 4.30674L12.7711 4.85711C13.317 4.93691 13.4391 5.31367 13.0439 5.69863C12.0359 6.68038 10.3197 8.35205 10.3197 8.35205L10.9626 12.1007C11.0559 12.6445 10.7356 12.8772 10.2473 12.6203C9.0015 11.9652 6.87978 10.8494 6.87978 10.8494L3.51226 12.6203C3.02394 12.8772 2.70368 12.6445 2.79695 12.1007C3.03482 10.7138 3.43989 8.35205 3.43989 8.35205L0.715642 5.69863C0.320404 5.31367 0.442565 4.93691 0.988497 4.85711C2.38143 4.65352 4.75392 4.30674 4.75392 4.30674L6.43759 0.895811C6.6818 0.401068 7.07775 0.401068 7.32196 0.895811C7.94486 2.15775 9.00563 4.30674 9.00563 4.30674Z" id="Shape" fill="#000000" stroke="none" />
    <path d="M9.00563 4.30674L12.7711 4.85711C13.317 4.93691 13.4391 5.31367 13.0439 5.69863C12.0359 6.68038 10.3197 8.35205 10.3197 8.35205L10.9626 12.1007C11.0559 12.6445 10.7356 12.8772 10.2473 12.6203C9.0015 11.9652 6.87978 10.8494 6.87978 10.8494L3.51226 12.6203C3.02394 12.8772 2.70368 12.6445 2.79695 12.1007C3.03482 10.7138 3.43989 8.35205 3.43989 8.35205L0.715642 5.69863C0.320404 5.31367 0.442565 4.93691 0.988497 4.85711C2.38143 4.65352 4.75392 4.30674 4.75392 4.30674L6.43759 0.895811C6.6818 0.401068 7.07775 0.401068 7.32196 0.895811C7.94486 2.15775 9.00563 4.30674 9.00563 4.30674Z" transform="translate(13.30078 0)" id="Shape" fill="#000000" stroke="none" />
    <path d="M9.00563 4.30674L12.7711 4.85711C13.317 4.93691 13.4391 5.31367 13.0439 5.69863C12.0359 6.68038 10.3197 8.35205 10.3197 8.35205L10.9626 12.1007C11.0559 12.6445 10.7356 12.8772 10.2473 12.6203C9.0015 11.9652 6.87978 10.8494 6.87978 10.8494L3.51226 12.6203C3.02394 12.8772 2.70368 12.6445 2.79695 12.1007C3.03482 10.7138 3.43989 8.35205 3.43989 8.35205L0.715642 5.69863C0.320404 5.31367 0.442565 4.93691 0.988497 4.85711C2.38143 4.65352 4.75392 4.30674 4.75392 4.30674L6.43759 0.895811C6.6818 0.401068 7.07775 0.401068 7.32196 0.895811C7.94486 2.15775 9.00563 4.30674 9.00563 4.30674Z" transform="translate(26.60547 0)" id="Shape" fill="#000000" stroke="none" />
    <path d="M9.00563 4.30674L12.7711 4.85711C13.317 4.93691 13.4391 5.31367 13.0439 5.69863C12.0359 6.68038 10.3197 8.35205 10.3197 8.35205L10.9626 12.1007C11.0559 12.6445 10.7356 12.8772 10.2473 12.6203C9.0015 11.9652 6.87978 10.8494 6.87978 10.8494L3.51226 12.6203C3.02394 12.8772 2.70368 12.6445 2.79695 12.1007C3.03482 10.7138 3.43989 8.35205 3.43989 8.35205L0.715642 5.69863C0.320404 5.31367 0.442565 4.93691 0.988497 4.85711C2.38143 4.65352 4.75392 4.30674 4.75392 4.30674L6.43759 0.895811C6.6818 0.401068 7.07775 0.401068 7.32196 0.895811C7.94486 2.15775 9.00563 4.30674 9.00563 4.30674Z" transform="translate(40.00391 0)" id="Shape-2" fill="#000000" stroke="none" />
    <path d="M9.00563 4.30674L12.7711 4.85711C13.317 4.93691 13.4391 5.31367 13.0439 5.69863C12.0359 6.68038 10.3197 8.35205 10.3197 8.35205L10.9626 12.1007C11.0559 12.6445 10.7356 12.8772 10.2473 12.6203C9.0015 11.9652 6.87978 10.8494 6.87978 10.8494L3.51226 12.6203C3.02394 12.8772 2.70368 12.6445 2.79695 12.1007C3.03482 10.7138 3.43989 8.35205 3.43989 8.35205L0.715642 5.69863C0.320404 5.31367 0.442565 4.93691 0.988497 4.85711C2.38143 4.65352 4.75392 4.30674 4.75392 4.30674L6.43759 0.895811C6.6818 0.401068 7.07775 0.401068 7.32196 0.895811C7.94486 2.15775 9.00563 4.30674 9.00563 4.30674Z" transform="translate(53.24219 0)" id="Shape-3" fill="#000000" stroke="none" />
  </g>
</svg>