<?xml version="1.0" encoding="utf-8"?>
<svg width="98px" height="15px" viewBox="0 0 98 15" version="1.1" xmlns:xlink="http://www.w3.org/1999/xlink" xmlns="http://www.w3.org/2000/svg">
  <desc>Created with Lunacy</desc>
  <defs>
    <path d="M0 0L35.7133 0L35.7133 6.77379L0 6.77379L0 0Z" transform="translate(0 0.4672759)" id="path_1" />
    <clipPath id="mask_1">
      <use xlink:href="#path_1" />
    </clipPath>
  </defs>
  <g id="BA-Logo">
    <g id="Group-3" transform="translate(0 7.650311)">
      <path d="M0 0L35.7133 0L35.7133 6.77379L0 6.77379L0 0Z" transform="translate(0 0.4672759)" id="Clip-2" fill="none" stroke="none" />
      <g clip-path="url(#mask_1)">
        <path d="M17.3131 6.06828C17.3131 6.29586 17.2076 6.55552 16.9888 6.65224L18.9926 6.65224C18.7816 6.55552 18.6683 6.29586 18.6683 6.06828L18.6683 0.827069C19.2114 0.827069 19.8445 0.851379 20.2257 0.859655C20.5422 0.859655 21.0853 0.495 21.2721 0C20.8909 0.0812069 20.4936 0.0894828 20.1041 0.0894828L15.2933 0.0894828L14.8386 1.05466C15.1309 0.884483 15.5281 0.844138 15.8607 0.844138L17.3131 0.844138L17.3131 6.06828ZM24.5172 1.63862C24.5172 3.63465 27.4624 3.91862 27.4624 5.16776C27.4624 5.88155 26.9757 6.16603 26.3188 6.16603C25.4586 6.16603 24.7686 5.57328 24.436 4.81035C24.3957 5.07828 24.3714 5.34621 24.3714 5.61362C24.3714 5.84121 24.3879 6.06828 24.42 6.28759C24.9553 6.65224 25.8155 6.77379 26.4486 6.77379C27.6569 6.77379 28.8579 6.20638 28.8579 4.83466C28.8579 2.94466 25.8641 2.62862 25.8641 1.33034C25.8641 0.786724 26.3591 0.551379 26.8376 0.551379C27.4381 0.551379 28.0872 0.940862 28.3464 1.48448L28.2734 0.259655C27.8519 0.0651724 27.1867 0 26.7243 0C25.694 0 24.5172 0.405517 24.5172 1.63862ZM0.300517 6.06828C0.300517 6.28759 0.211034 6.54672 0 6.65224L2.78276 6.65224C3.87 6.65224 5.41138 6.27931 5.41138 4.80259C5.41138 3.77224 4.51086 3.20431 3.57776 3.21259C4.2269 3.09052 4.82741 2.5469 4.82741 1.85741C4.82741 0.559655 3.7081 0.0894828 2.56397 0.0894828L0 0.0894828C0.211034 0.202241 0.300517 0.454138 0.300517 0.681207L0.300517 6.06828ZM11.1914 6.69324C11.2147 6.69317 11.2379 6.6931 11.2609 6.6931C11.6829 6.6931 12.1045 6.64397 12.5105 6.52241C11.0012 6.51414 10.1984 3.30983 8.835 3.30155C9.79241 3.30155 10.6521 2.76621 10.6521 1.72759C10.6521 0.486724 9.36259 0.0894828 8.33224 0.0894828L5.955 0.0894828C6.16603 0.202241 6.26328 0.454138 6.26328 0.681207L6.26328 6.06828C6.26328 6.29586 6.16603 6.54672 5.955 6.65224L7.92621 6.65224C7.71569 6.55552 7.61793 6.28759 7.61793 6.06828L7.61793 3.56121C8.46983 3.56948 8.80293 4.45397 9.18414 5.09483C9.42724 5.49259 10.0438 6.4981 10.4902 6.62793C10.7115 6.69467 10.9594 6.69393 11.1914 6.69324ZM12.6078 6.65224C12.7702 6.57931 12.9403 6.36052 12.9403 6.06828L12.9403 0.681207C12.9403 0.381207 12.7702 0.170172 12.6078 0.0894828L14.6276 0.0894828C14.4574 0.170172 14.295 0.381207 14.295 0.681207L14.295 6.06828C14.295 6.36052 14.4574 6.57931 14.6276 6.65224L12.6078 6.65224ZM21.5074 6.65224C21.6698 6.57931 21.84 6.36052 21.84 6.06828L21.84 0.681207C21.84 0.381207 21.6698 0.170172 21.5074 0.0894828L23.5278 0.0894828C23.3571 0.170172 23.1952 0.381207 23.1952 0.681207L23.1952 6.06828C23.1952 6.36052 23.3571 6.57931 23.5278 6.65224L21.5074 6.65224ZM34.0666 6.06828C34.0666 6.36052 33.9124 6.58759 33.766 6.65224L35.7134 6.65224C35.5671 6.57931 35.4212 6.36052 35.4212 6.06828L35.4212 0.681207C35.4212 0.381207 35.5671 0.161897 35.7134 0.0894828L33.766 0.0894828C33.9124 0.161897 34.0666 0.381207 34.0666 0.681207L34.0666 2.88828C33.7091 2.92034 33.2224 2.94466 32.671 2.94466C32.1031 2.94466 31.6164 2.92862 31.2595 2.88828L31.2595 0.681207C31.2595 0.381207 31.4053 0.161897 31.5512 0.0894828L29.6043 0.0894828C29.7502 0.161897 29.9043 0.381207 29.9043 0.681207L29.9043 6.06828C29.9043 6.36052 29.7502 6.58759 29.6043 6.65224L31.5512 6.65224C31.4053 6.57931 31.2595 6.36052 31.2595 6.06828L31.2595 3.62638C31.6164 3.58552 32.1109 3.56948 32.671 3.56948C33.2224 3.56948 33.7091 3.58552 34.0666 3.62638L34.0666 6.06828ZM2.07672 0.656897C1.95517 0.656897 1.87448 0.656897 1.65517 0.681207L1.65517 2.97776L1.91483 2.97776C2.70155 2.97776 3.46397 2.73414 3.46397 1.82534C3.46397 0.916552 2.85569 0.656897 2.07672 0.656897ZM7.95103 0.656897C7.83724 0.656897 7.73172 0.672931 7.61793 0.689483L7.61793 2.96069C7.72345 2.96897 7.82069 2.97776 7.92621 2.97776C8.66483 2.97776 9.20793 2.57121 9.20793 1.76845C9.20793 0.949138 8.67259 0.656897 7.95103 0.656897ZM1.65517 3.58552C1.88224 3.56948 2.05241 3.56948 2.23966 3.56948C3.06672 3.56948 3.86224 3.79655 3.86224 4.78655C3.86224 5.79259 3.18879 6.08431 2.53138 6.08431C2.24741 6.08431 1.93914 6.06828 1.65517 6.01138L1.65517 3.58552Z" transform="translate(-0.0001034483 0.4672759)" id="Fill-1" fill="#FEFEFE" fill-rule="evenodd" stroke="none" />
      </g>
    </g>
    <path d="M34.5528 1.63862C34.5528 3.63465 37.4979 3.91862 37.4979 5.16776C37.4979 5.88155 37.0112 6.16603 36.3538 6.16603C35.4941 6.16603 34.8041 5.57328 34.4715 4.81086C34.4312 5.07828 34.4069 5.34621 34.4069 5.61362C34.4069 5.84121 34.4229 6.06828 34.4555 6.28759C34.9909 6.65224 35.851 6.77379 36.4841 6.77379C37.7007 6.77379 38.8934 6.20638 38.8934 4.83466C38.8934 2.94466 35.8997 2.62862 35.8997 1.33034C35.8997 0.786724 36.3947 0.551379 36.8731 0.551379C37.4736 0.551379 38.1228 0.940862 38.3824 1.48448L38.3095 0.259655C37.8874 0.0651724 37.2222 0 36.7598 0C35.7295 0 34.5528 0.405517 34.5528 1.63862ZM32.3053 3.50483L33.8633 0.778966C34.0091 0.51931 34.2362 0.21931 34.5124 0.0894828L33.1169 0.0894828C33.2141 0.154138 33.255 0.210517 33.255 0.308276C33.255 0.381207 33.1738 0.527069 33.0522 0.738621C33.0522 0.738621 32.0622 2.45845 31.9567 2.65293L30.7076 0.673448C30.3181 0.0651724 30.0016 0.00775862 29.369 0.00775862C28.9872 0.00775862 28.4198 0.113793 28.2331 0.186724C28.9143 0.186724 29.4822 1.12759 29.6038 1.33034L30.9507 3.49655L30.9507 6.06828C30.9507 6.27103 30.8617 6.54672 30.6667 6.65224L32.5976 6.65224C32.3948 6.55552 32.3053 6.27931 32.3053 6.06828L32.3053 3.50483ZM4.98931 6.42517C4.98931 6.53845 4.93293 6.58759 4.86776 6.65224L6.75 6.65224C6.58759 6.56328 6.3931 6.38483 6.30362 6.14121L4.09707 0.0894828L2.39328 0.0894828C2.53138 0.161897 2.6369 0.308276 2.6369 0.462414C2.6369 0.495 2.62862 0.51931 2.62034 0.543621L0.446379 6.14897C0.365172 6.35224 0.194483 6.55552 0 6.65224L1.32259 6.65224C1.24966 6.62017 1.16845 6.57155 1.16845 6.47379C1.16845 6.43345 1.19276 6.36052 1.27397 6.16603C1.27397 6.16603 1.85017 4.70534 1.90655 4.55897C2.29603 4.51862 2.69379 4.51034 3.08276 4.51034C3.49707 4.51034 3.91862 4.51034 4.32414 4.55897C4.38931 4.72966 4.92466 6.1981 4.92466 6.1981C4.97328 6.32017 4.98931 6.38483 4.98931 6.42517ZM7.41517 6.06828C7.41517 6.36052 7.245 6.57931 7.08259 6.65224L9.10293 6.65224C8.93224 6.57931 8.76983 6.36052 8.76983 6.06828L8.76983 0.681207C8.76983 0.381207 8.93224 0.170172 9.10293 0.0894828L7.08259 0.0894828C7.245 0.170172 7.41517 0.381207 7.41517 0.681207L7.41517 6.06828ZM15.5802 6.69324C15.6035 6.69317 15.6267 6.6931 15.6497 6.6931C16.0717 6.6931 16.4938 6.64397 16.8993 6.52241C15.4955 6.52241 14.6436 3.38328 13.2243 3.30207C13.9381 3.30207 14.8795 2.76621 14.8795 1.7281C14.8795 0.486724 13.589 0.0894828 12.5586 0.0894828L10.1819 0.0894828C10.3929 0.202241 10.4902 0.454138 10.4902 0.681207L10.4902 6.06828C10.4902 6.29586 10.3929 6.54672 10.1819 6.65224L12.1531 6.65224C11.9421 6.55552 11.8448 6.28759 11.8448 6.06828L11.8448 3.56172C12.6967 3.56172 13.1917 4.45397 13.5729 5.09483C13.8166 5.49259 14.4331 6.4981 14.8795 6.62793C15.1004 6.69467 15.3482 6.69393 15.5802 6.69324ZM23.836 0.729828L21.84 6.65224C21.6776 6.65224 21.5157 6.59586 21.4262 6.53069C21.2234 6.34397 20.9152 5.54897 20.8014 5.25724L19.9014 2.97776L18.6031 6.65224L17.986 6.65224L15.7552 0.713793C15.6579 0.462414 15.4955 0.21931 15.2524 0.0894828L17.1916 0.0894828C17.1103 0.154138 17.0534 0.227069 17.0534 0.365172C17.0534 0.429828 17.086 0.51931 17.1103 0.591724L18.5622 4.51862L20.1119 0.0894828L21.8157 4.35672L23.1057 0.495C23.1383 0.389483 23.1543 0.349138 23.1543 0.283966C23.1543 0.202241 23.1217 0.154138 23.0405 0.0894828L24.3228 0.0894828C24.0874 0.210517 23.9172 0.486724 23.836 0.729828ZM27.9326 6.65224C27.9978 6.58759 28.0547 6.53845 28.0547 6.42517C28.0547 6.38483 28.0303 6.32017 27.9895 6.1981C27.9895 6.1981 27.4541 4.72966 27.3895 4.55897C26.9834 4.51034 26.5614 4.51034 26.1481 4.51034C25.7586 4.51034 25.3609 4.51862 24.9714 4.55897C24.915 4.70534 24.3388 6.16603 24.3388 6.16603C24.2576 6.36052 24.2333 6.43345 24.2333 6.47379C24.2333 6.57155 24.3145 6.62017 24.3874 6.65224L23.0648 6.65224C23.2598 6.55552 23.43 6.35224 23.5112 6.14897L25.6857 0.543621C25.694 0.51931 25.7017 0.495 25.7017 0.462414C25.7017 0.308276 25.5962 0.161897 25.4586 0.0894828L27.1624 0.0894828L29.369 6.14121C29.4579 6.38483 29.6529 6.56328 29.8148 6.65224L27.9326 6.65224ZM12.1774 0.656897C12.0641 0.656897 11.9586 0.673448 11.8448 0.689483L11.8448 2.96069C11.9503 2.96897 12.0476 2.97776 12.1531 2.97776C12.8917 2.97776 13.4348 2.57121 13.4348 1.76845C13.4348 0.949138 12.8995 0.656897 12.1774 0.656897ZM3.15621 1.33862L2.15793 3.89379C2.45845 3.9269 2.76672 3.93466 3.06672 3.93466C3.40759 3.93466 3.74845 3.93466 4.08103 3.89379L3.15621 1.33862ZM25.2233 3.89379L26.221 1.33862L27.1459 3.89379C26.8133 3.93466 26.4724 3.93466 26.1316 3.93466C25.8316 3.93466 25.5233 3.9269 25.2233 3.89379Z" transform="translate(38.05138 8.117483)" id="Fill-4" fill="#FEFEFE" fill-rule="evenodd" stroke="none" />
    <path d="M13.2667 1.40741C12.7267 0.675 12.0838 0.233276 11.4088 0.130862C11.0385 0.0744828 10.6733 0.0325862 10.305 0C9.40138 0.604138 8.0731 1.2569 7.39655 1.53569C6.35897 1.96293 3.02793 3.10707 0 4.10534C1.9081 4.60448 4.20983 5.19362 7.11362 5.75741C9.0719 5.01724 12.7857 3.41948 13.4876 2.10207C13.5341 2.01517 13.5672 1.93241 13.5947 1.85172L13.2667 1.40741Z" transform="translate(83.07983 4.16669)" id="Fill-6" fill="#FEFEFE" stroke="none" />
    <path d="M39.4836 5.26397C39.1784 4.08828 38.0705 2.30431 37.1136 1.47828C36.1567 0.650172 34.8952 0.519828 33.9378 0.258103C33.2705 0.0765517 31.0164 0 28.9609 0C28.0681 0 27.2126 0.0144828 26.5412 0.0403448C24.3222 0.127759 5.48224 0.867931 0 1.08569C2.56707 1.91328 6.43965 2.87172 10.7907 3.30724C13.5548 3.58397 17.3369 3.64966 21.1226 3.64966C23.2966 3.64966 25.471 3.62793 27.4547 3.6119C30.0093 3.59172 31.8305 3.5519 33.2803 3.5519C34.6562 3.5519 35.6964 3.58862 36.7107 3.70914C36.9036 3.7319 37.0955 3.75672 37.2879 3.78621C38.1217 3.91345 38.8795 4.44672 39.4847 5.26707C39.4841 5.26603 39.4836 5.265 39.4836 5.26397" transform="translate(57.27817 0)" id="Fill-8" fill="#FEFEFE" stroke="none" />
  </g>
</svg>