<?xml version="1.0" encoding="utf-8"?>
<svg width="166px" height="24px" viewBox="0 0 166 24" version="1.1" xmlns:xlink="http://www.w3.org/1999/xlink" xmlns="http://www.w3.org/2000/svg">
  <desc>Created with Lunacy</desc>
  <defs>
    <linearGradient x1="1.0444479" y1="0.502938867" x2="-0.04239317" y2="0.489370167" id="gradient_1">
      <stop offset="0" stop-color="#6EA606" />
      <stop offset="0.51" stop-color="#A0C904" />
      <stop offset="1" stop-color="#A6D200" />
    </linearGradient>
    <linearGradient x1="1.07173181" y1="0.574101031" x2="1.04341781" y2="-0.5101751" id="gradient_2">
      <stop offset="0" stop-color="#6EA606" />
      <stop offset="0.51" stop-color="#A0C904" />
      <stop offset="1" stop-color="#A6D200" />
    </linearGradient>
  </defs>
  <g id="Citrus-Holidays-Logo">
    <path d="M7.27146 6.20297L9.14146 4.31297C9.49717 3.92942 9.49717 3.33653 9.14146 2.95297L7.27146 1.05297C6.59808 0.378809 5.68431 0 4.73146 0C3.7786 0 2.86483 0.378809 2.19146 1.05297L0.271457 2.95297C-0.0904856 3.33792 -0.0904856 3.93802 0.271457 4.32297L2.16146 6.19297C2.83467 6.87769 3.75413 7.26418 4.71437 7.26606C5.6746 7.26794 6.59557 6.88505 7.27146 6.20297Z" transform="translate(0 3.09613)" id="Path" fill="url(#gradient_1)" stroke="none" />
    <path d="M3.95231 4.61911L2.75231 5.82911C2.51098 6.06673 2.12364 6.06673 1.88231 5.82911L0.67231 4.63911C-0.224103 3.74121 -0.224103 2.28701 0.67231 1.38911L1.86231 0.179112C2.10704 -0.059704 2.49758 -0.059704 2.74231 0.179112L3.94231 1.36911C4.84149 2.26425 4.84597 3.71846 3.95231 4.61911L3.95231 4.61911Z" transform="translate(7.938477 0)" id="Path" fill="url(#gradient_2)" stroke="none" />
    <path d="M4.74252 3.7923C6.62252 3.7923 8.12252 5.2123 8.12252 7.5823L8.12252 13.7023C8.13603 13.8191 8.09469 13.9356 8.01056 14.0178C7.92643 14.1 7.80899 14.1386 7.69252 14.1223L6.79252 14.1223C6.67766 14.1352 6.56318 14.0951 6.48145 14.0134C6.39972 13.9316 6.35963 13.8172 6.37252 13.7023L6.37252 7.6423C6.42878 7.06194 6.22898 6.48593 5.82542 6.06507C5.42186 5.64422 4.85473 5.42043 4.27252 5.4523C3.02252 5.4523 1.76252 6.2123 1.76252 8.3923L1.76252 13.7023C1.77212 13.8182 1.72952 13.9323 1.64636 14.0135C1.56319 14.0947 1.44812 14.1346 1.33252 14.1223L0.432518 14.1223C0.316045 14.1386 0.198611 14.1 0.114482 14.0178C0.030353 13.9356 -0.0109897 13.8191 0.00251776 13.7023L0.00251776 0.432303C-0.0103032 0.314796 0.0308618 0.197814 0.114445 0.114231C0.198029 0.0306473 0.31501 -0.0105176 0.432518 0.00230335L1.33252 0.00230335C1.45003 -0.0105176 1.56701 0.0306473 1.65059 0.114231C1.73417 0.197814 1.77534 0.314796 1.76252 0.432303L1.76252 5.2823C2.41591 4.27564 3.56561 3.70463 4.76252 3.7923L4.74252 3.7923Z" transform="translate(94.11914 5.196777)" id="Path" fill="#FFFFFF" stroke="none" />
    <path d="M3.27278 0.409913C1.28426 1.23907 -0.00785397 3.1857 0.000241748 5.34015C-0.0132946 6.75164 0.542128 8.10912 1.54119 9.1063C2.54025 10.1035 3.89878 10.6563 5.31024 10.6401C7.4647 10.6442 9.40889 9.3484 10.2343 7.35832C11.0597 5.36823 10.6033 3.0768 9.07847 1.5548C7.55359 0.032802 5.26131 -0.41924 3.27278 0.409913ZM5.29041 1.8102C7.25259 1.7992 8.85371 3.378 8.87024 5.34015C8.89208 6.29358 8.52502 7.21485 7.8535 7.89202C7.18198 8.5692 6.26382 8.94398 5.31024 8.93015C3.34803 8.93008 1.75585 7.34227 1.75038 5.38006C1.74492 3.41786 3.32823 1.8212 5.29041 1.8102Z" transform="translate(104.1006 8.958923)" id="Shape" fill="#FFFFFF" fill-rule="evenodd" stroke="none" />
    <path d="M0.00270202 14.1023L0.00270202 0.432303C-0.0101189 0.314796 0.031046 0.197814 0.114629 0.114231C0.198213 0.0306473 0.315194 -0.0105176 0.432702 0.00230335L1.3227 0.00230335C1.44021 -0.0105176 1.55719 0.0306473 1.64077 0.114231C1.72436 0.197814 1.76552 0.314796 1.7527 0.432303L1.7527 14.1023C1.76621 14.2191 1.72487 14.3356 1.64074 14.4178C1.55661 14.5 1.43917 14.5386 1.3227 14.5223L0.442702 14.5223C0.324653 14.5421 0.2042 14.505 0.117622 14.4224C0.0310449 14.3397 -0.0115372 14.2211 0.00270202 14.1023L0.00270202 14.1023Z" transform="translate(116.8281 4.796753)" id="Path" fill="#FFFFFF" stroke="none" />
    <path d="M0.00251776 0.432303L0.00251776 1.7923C-0.0103032 1.90981 0.0308618 2.02679 0.114445 2.11038C0.198029 2.19396 0.31501 2.23512 0.432518 2.2223L1.32252 2.2223C1.44003 2.23512 1.55701 2.19396 1.64059 2.11038C1.72417 2.02679 1.76534 1.90981 1.75252 1.7923L1.75252 0.432303C1.76534 0.314796 1.72417 0.197814 1.64059 0.114231C1.55701 0.0306473 1.44003 -0.0105176 1.32252 0.00230335L0.432518 0.00230335C0.31501 -0.0105176 0.198029 0.0306473 0.114445 0.114231C0.0308618 0.197814 -0.0103032 0.314796 0.00251776 0.432303ZM0.00251776 4.4723L0.00251776 13.7023C-0.0109897 13.8191 0.030353 13.9356 0.114482 14.0178C0.198611 14.1 0.316045 14.1386 0.432518 14.1223L1.32252 14.1223C1.43899 14.1386 1.55642 14.1 1.64055 14.0178C1.72468 13.9356 1.76603 13.8191 1.75252 13.7023L1.75252 4.4723C1.76534 4.3548 1.72417 4.23781 1.64059 4.15423C1.55701 4.07065 1.44003 4.02948 1.32252 4.0423L0.432518 4.0423C0.31501 4.02948 0.198029 4.07065 0.114445 4.15423C0.0308618 4.23781 -0.0103032 4.3548 0.00251776 4.4723Z" transform="translate(121.2686 5.196777)" id="Shape" fill="#FFFFFF" fill-rule="evenodd" stroke="none" />
    <path d="M10.6298 13.6223L10.6298 0.352303C10.6198 0.248647 10.5686 0.153328 10.4879 0.0875843C10.4071 0.0218402 10.3034 -0.00886726 10.1998 0.00230335L9.29984 0.00230335C9.18233 -0.0105176 9.06535 0.0306473 8.98176 0.114231C8.89818 0.197814 8.85702 0.314796 8.86984 0.432303L8.86984 5.7523C8.04066 4.46635 6.59929 3.70773 5.06984 3.7523C2.23492 3.87553 0 6.20971 0 9.0473C0 11.8849 2.23492 14.2191 5.06984 14.3423C6.59837 14.3829 8.03792 13.6253 8.86984 12.3423L8.86984 13.6223C8.86024 13.7382 8.90283 13.8523 8.986 13.9335C9.06916 14.0147 9.18424 14.0546 9.29984 14.0423L10.1998 14.0423C10.3163 14.0586 10.4337 14.02 10.5179 13.9378C10.602 13.8556 10.6433 13.7391 10.6298 13.6223ZM5.27 5.47236C7.24323 5.46136 8.8533 7.04911 8.86984 9.0223C8.89452 9.98186 8.52628 10.9099 7.85038 11.5914C7.17448 12.273 6.24957 12.649 5.28984 12.6323C3.31658 12.6322 1.71544 11.0355 1.70998 9.06222C1.70451 7.08897 3.29678 5.48336 5.27 5.47236Z" transform="translate(125.1719 5.276794)" id="Shape" fill="#FFFFFF" fill-rule="evenodd" stroke="none" />
    <path d="M8.29 9.74781L8.29 3.68781C8.13905 1.76077 6.63171 0.217365 4.70878 0.0208978C2.78586 -0.17557 0.997538 1.03112 0.46 2.88781C0.440367 3.00851 0.478489 3.13144 0.562975 3.21985C0.647461 3.30827 0.768527 3.35194 0.89 3.33781L1.77 3.33781C2.03 3.33781 2.15 3.18781 2.22 2.93781C2.60781 1.93205 3.65698 1.34514 4.71698 1.54098C5.77698 1.73683 6.54716 2.65987 6.55 3.73781L6.55 5.16781C5.76594 4.36279 4.67205 3.93618 3.55 3.99781C1.71 3.99781 0 5.05781 0 7.21781C0 9.37781 1.71 10.4478 3.55 10.4478C4.70221 10.5299 5.82199 10.0446 6.55 9.14781L6.55 9.74781C6.53649 9.86463 6.57784 9.98112 6.66196 10.0633C6.74609 10.1455 6.86353 10.1841 6.98 10.1678L7.86 10.1678C7.9756 10.1801 8.09067 10.1402 8.17384 10.059C8.25701 9.97777 8.2996 9.86367 8.29 9.74781ZM4.06 5.44781C5.55 5.44781 6.55 6.11781 6.55 7.19781C6.55 8.20781 5.63 8.94781 4.06 8.94781C2.49 8.94781 1.77 8.19781 1.77 7.19781C1.77 6.19781 2.57 5.44781 4.06 5.44781Z" transform="translate(137.8916 9.151306)" id="Shape" fill="#FFFFFF" fill-rule="evenodd" stroke="none" />
    <path d="M7.71565 0.00253526L8.71565 0.00253526C9.01565 0.00253526 9.16565 0.182535 9.05565 0.492535L4.41565 13.7825C4.35108 13.9959 4.14812 14.1367 3.92565 14.1225L2.92565 14.1225C2.80044 14.1398 2.67598 14.0862 2.60251 13.9833C2.52905 13.8805 2.5187 13.7454 2.57565 13.6325L3.84565 9.98254L0.0456454 0.492535C-0.0743547 0.192535 0.0456454 0.00253526 0.365646 0.00253526L1.36565 0.00253526C1.58737 -0.0207371 1.79386 0.11833 1.85565 0.332535L4.75565 7.55254L7.25565 0.352535C7.31368 0.146276 7.50139 0.00345565 7.71565 0.00253526L7.71565 0.00253526Z" transform="translate(147.376 9.236572)" id="Path" fill="#FFFFFF" stroke="none" />
    <path d="M7.67987 7.6C7.67987 9.42 6.05987 10.6 3.82987 10.6C1.75987 10.6 0.219872 9.6 0.00987236 7.77C-0.0184936 7.64964 0.0151421 7.52307 0.0995154 7.43267C0.183889 7.34227 0.307845 7.29999 0.429872 7.32L1.31987 7.32C1.57987 7.32 1.68987 7.47 1.76987 7.72C1.94987 8.63 2.76987 8.97 3.82987 8.97C4.99987 8.97 5.91987 8.55 5.91987 7.61C5.91987 5.32 0.159872 6.8 0.159872 3C0.159872 1.19 1.76987 0 3.82987 0C5.71987 0 7.23987 1 7.44987 2.82C7.47325 2.93958 7.43787 3.06313 7.35473 3.15221C7.2716 3.24128 7.15078 3.28509 7.02987 3.27L6.13987 3.27C5.87987 3.27 5.76987 3.12 5.68987 2.87C5.47112 2.04581 4.67563 1.51121 3.82987 1.62C2.82987 1.62 1.90987 2.04 1.90987 2.99C1.90987 5.31 7.67987 3.78 7.67987 7.6Z" transform="translate(157.3613 8.989075)" id="Path" fill="#FFFFFF" stroke="none" />
    <path d="M12.72 14.7702L12.51 14.7702C12.5076 14.6499 12.4559 14.5358 12.3671 14.4545C12.2783 14.3733 12.1601 14.332 12.04 14.3402L11.82 14.3402L11.59 14.3402L11.04 14.4502L10.51 14.5502L9.94001 14.6502L9.55001 14.7102L9.03001 14.7102C8.78001 14.7102 8.57001 14.7102 8.39001 14.7102L7.92001 14.7102C6.84902 14.7206 5.78615 14.5237 4.79001 14.1302C3.86069 13.7767 3.00841 13.247 2.28001 12.5702C1.56774 11.9155 0.996138 11.1228 0.600007 10.2402C-0.200002 8.39657 -0.200002 6.30381 0.600007 4.46019C0.986811 3.58751 1.53665 2.79669 2.22001 2.13019C2.92868 1.4671 3.75209 0.93849 4.65001 0.570192C5.60335 0.186644 6.62243 -0.00698221 7.65001 0.00019232C8.61366 0.0148638 9.57277 0.135591 10.51 0.360192L10.84 0.440192L11 0.440192C11.1178 0.471519 11.2384 0.491609 11.36 0.500192C11.4598 0.508587 11.5602 0.508587 11.66 0.500192C11.7756 0.50767 11.8907 0.479765 11.99 0.420192C12.0836 0.336927 12.1527 0.229763 12.19 0.110192L12.4 0.110192L12.74 5.74019L12.53 5.74019L12.26 4.97019C12.18 4.75019 12.1 4.54019 12.01 4.34019L11.71 3.75019L11.32 3.07019C10.14 1.15686 8.88001 0.203526 7.54001 0.210192C6.4611 0.248597 5.53099 0.980555 5.24001 2.02019C4.63679 3.73984 4.37193 5.55994 4.46001 7.38019C4.3866 9.16431 4.72895 10.9411 5.46001 12.5702C5.90092 13.6661 6.95874 14.3885 8.14001 14.4002C8.62548 14.392 9.09805 14.2426 9.50001 13.9702C9.99737 13.6376 10.4366 13.2255 10.8 12.7502C11.2481 12.1746 11.6305 11.5507 11.94 10.8902C12.2899 10.1381 12.5678 9.35462 12.77 8.55019L12.98 8.55019L12.72 14.7702Z" transform="translate(8.170898 4.808899)" id="Path" fill="#FFFFFF" stroke="none" />
    <path d="M0.13 14.15L0.13 13.9C0.469277 13.8868 0.80541 13.8296 1.13 13.73C1.35012 13.6413 1.54318 13.4965 1.69 13.31C1.82564 13.1178 1.92089 12.9001 1.97 12.67C1.97 12.56 1.97 12.45 1.97 12.34C1.97 12.23 1.97 12.09 1.97 11.93C1.98132 11.7435 1.98132 11.5565 1.97 11.37L1.97 2.47C1.97906 2.1343 1.94886 1.79869 1.88 1.47C1.81632 1.24633 1.7185 1.03383 1.59 0.84C1.45529 0.652171 1.26711 0.509294 1.05 0.43C0.70856 0.327791 0.355988 0.26735 0 0.25L0 0L8.13 0L8.13 0.25C7.79062 0.269408 7.45484 0.329848 7.13 0.43C6.91149 0.511742 6.72074 0.653939 6.58 0.84C6.42443 1.01642 6.32671 1.23631 6.3 1.47C6.27116 1.5816 6.2511 1.69528 6.24 1.81C6.24 1.93 6.24 2.06 6.24 2.21C6.24 2.36 6.24 2.56 6.24 2.8L6.24 11.7C6.23179 12.0362 6.26538 12.3721 6.34 12.7C6.39814 12.9288 6.49632 13.1455 6.63 13.34C6.76706 13.5279 6.95418 13.6734 7.17 13.76C7.51087 13.8632 7.86399 13.9203 8.22 13.93L8.22 14.18L0.13 14.15Z" transform="translate(22.20117 5.209106)" id="Path" fill="#FFFFFF" stroke="none" />
    <path d="M11.11 13.63L11.34 14.16L17.41 14.11L17.41 13.86C17.0888 13.845 16.7702 13.7947 16.46 13.71C16.2379 13.641 16.0333 13.5251 15.86 13.37C15.6471 13.1553 15.4592 12.9171 15.3 12.66C15.1 12.34 14.87 11.96 14.63 11.51L13.42 9.2C13.0718 8.43725 12.5677 7.75593 11.94 7.2C11.7474 7.06206 11.535 6.95416 11.31 6.88C10.9843 6.77321 10.6496 6.69623 10.31 6.65C11.2906 6.56973 12.2309 6.22404 13.03 5.65C13.6558 5.21078 14.0288 4.49457 14.03 3.73C14.0261 3.15576 13.8444 2.59683 13.51 2.13C13.1396 1.61565 12.6486 1.20014 12.08 0.92C11.7124 0.737654 11.3312 0.583867 10.94 0.46C10.5195 0.322847 10.0879 0.22247 9.65 0.16C9.17 0.09 8.63 0 8.04 0L0 0L0 0.21C0.355988 0.22735 0.70856 0.287791 1.05 0.39C1.26901 0.465785 1.45816 0.609402 1.59 0.8C1.72624 0.993093 1.82464 1.21026 1.88 1.44C1.95333 1.76811 1.98691 2.10386 1.98 2.44L1.98 11.37C1.99161 11.5598 1.99161 11.7502 1.98 11.94C1.98693 12.0732 1.98693 12.2068 1.98 12.34L1.98 12.68C1.93944 12.9097 1.84332 13.126 1.7 13.31C1.55658 13.5022 1.36276 13.6511 1.14 13.74C0.81541 13.8396 0.479277 13.8968 0.14 13.91L0.14 14.16L8.27 14.16L8.27 13.91C7.91399 13.9003 7.56087 13.8432 7.22 13.74C7.00418 13.6534 6.81706 13.5079 6.68 13.32C6.59848 13.2125 6.53125 13.0948 6.48 12.97C6.41998 12.8122 6.37967 12.6477 6.36 12.48C6.34133 12.2237 6.34133 11.9663 6.36 11.71L6.36 7.12L6.74 7.12C7.09309 7.12668 7.43812 7.22674 7.74 7.41C8.08386 7.62219 8.37189 7.91366 8.58 8.26C8.79 8.58 9.03 9.03 9.31 9.58C9.59 10.13 9.92 10.84 10.31 11.72C10.4 11.93 10.51 12.21 10.64 12.53C10.77 12.85 10.93 13.22 11.11 13.63ZM8.27 0.48C8.60061 0.602404 8.88883 0.817699 9.1 1.1C9.55468 1.84815 9.77416 2.71563 9.73 3.59C9.79704 4.48294 9.55714 5.372 9.05 6.11C8.49049 6.67894 7.70439 6.96546 6.91 6.89L6.32 6.89L6.32 0.29L6.91 0.29C7.37074 0.277371 7.83036 0.341583 8.27 0.48Z" transform="translate(46.4209 5.199097)" id="Shape" fill="#FFFFFF" fill-rule="evenodd" stroke="none" />
    <path d="M15.42 0.65C15.1528 0.851324 14.9313 1.10693 14.77 1.4C14.3444 2.16554 14.063 3.00278 13.94 3.87C13.7517 5.16114 13.6681 6.46539 13.69 7.77L13.69 9.4C13.7104 10.0962 13.6398 10.7921 13.48 11.47C13.3505 11.9707 13.1152 12.4379 12.79 12.84C11.9 13.94 10.39 14.5 8.25 14.5C6.57928 14.5903 4.91932 14.1831 3.48 13.33C3.21568 13.1457 2.97402 12.9309 2.76 12.69C2.55172 12.4572 2.39194 12.1853 2.29 11.89C2.17098 11.5364 2.09051 11.1709 2.05 10.8C1.99363 10.3087 1.96692 9.81449 1.97 9.32L1.97 2.51C1.97906 2.1743 1.94886 1.83869 1.88 1.51C1.81824 1.28251 1.72033 1.06642 1.59 0.87C1.45529 0.682171 1.26711 0.539294 1.05 0.46C0.70856 0.357791 0.355988 0.29735 0 0.28L0 0.07L8 0.07L8 0.28C7.66012 0.295084 7.3238 0.355622 7 0.46C6.79635 0.548536 6.62022 0.690134 6.49 0.87C6.35922 1.06162 6.27373 1.28047 6.24 1.51C6.2087 1.62069 6.19189 1.73498 6.19 1.85C6.19 1.96 6.19 2.1 6.19 2.26C6.19 2.42 6.19 2.62 6.19 2.85L6.19 8.66C6.19 9.21 6.19 9.66 6.19 10.08C6.19 10.5 6.19 10.82 6.27 11.08C6.29261 11.3282 6.34292 11.573 6.42 11.81C6.4755 12.0094 6.55615 12.2009 6.66 12.38C6.93566 12.8276 7.3449 13.1774 7.83 13.38C8.39897 13.6471 9.02153 13.7805 9.65 13.77C10.1379 13.7733 10.6234 13.7025 11.09 13.56C11.4929 13.4472 11.8699 13.257 12.2 13C12.5496 12.7025 12.8325 12.3344 13.03 11.92C13.1 11.75 13.16 11.59 13.21 11.43C13.265 11.2611 13.3019 11.0868 13.32 10.91C13.32 10.72 13.37 10.5 13.39 10.25C13.41 10 13.39 9.71 13.39 9.37L13.39 7.42C13.39 7 13.39 6.6 13.39 6.24C13.39 5.88 13.39 5.54 13.39 5.24C13.39 4.94 13.39 4.6 13.3 4.24C13.21 3.88 13.22 3.61 13.16 3.29C13.1 2.97 13.04 2.71 12.97 2.44C12.9027 2.17593 12.8123 1.91828 12.7 1.67C12.5645 1.33407 12.364 1.02822 12.11 0.77C11.8141 0.523185 11.4751 0.333315 11.11 0.21L11.11 0L16.42 0L16.42 0.21C16.0613 0.290322 15.7216 0.439773 15.42 0.65L15.42 0.65Z" transform="translate(61.85156 5.139099)" id="Path" fill="#FFFFFF" stroke="none" />
    <path d="M11.57 11.8303C11.3052 12.4002 10.9276 12.9105 10.46 13.3303C9.97352 13.7638 9.41059 14.1029 8.8 14.3303C8.13239 14.5825 7.42361 14.708 6.71 14.7003C6.04096 14.6897 5.37313 14.6396 4.71 14.5503C3.91 14.4503 3.06 14.3003 2.17 14.1003L1.49 13.9603L1.13 13.9603C0.962745 13.95 0.796067 13.9882 0.65 14.0703C0.524145 14.1672 0.444407 14.3122 0.43 14.4703L0.21 14.4703L0 7.92032L0.21 7.92032C0.31 8.24032 0.41 8.52032 0.49 8.76032C0.57359 8.99711 0.673841 9.22769 0.79 9.45032C0.9 9.67032 1.03 9.91032 1.18 10.1503C1.33 10.3903 1.52 10.6903 1.74 11.0303C2.26988 11.8298 2.88333 12.5707 3.57 13.2403C3.97225 13.6378 4.44767 13.9536 4.97 14.1703C5.48149 14.376 6.02876 14.478 6.58 14.4703C7.21344 14.4986 7.83443 14.2881 8.32 13.8803C8.76573 13.4792 9.00798 12.8993 8.98 12.3003C8.97941 11.6936 8.72135 11.1157 8.27 10.7103C7.58776 10.1368 6.8043 9.69589 5.96 9.41032L3.89 8.61032C2.80578 8.24384 1.80847 7.65839 0.96 6.89032C0.366925 6.30849 0.0349914 5.51113 0.04 4.68032C0.0384843 4.04192 0.185708 3.41193 0.47 2.84032C0.745768 2.26933 1.14143 1.76452 1.63 1.36032C2.14296 0.921962 2.733 0.582859 3.37 0.360321C4.07372 0.114686 4.81468 -0.00711707 5.56 0.000321203C5.94462 0.00310408 6.3287 0.0298224 6.71 0.0803212C7.1 0.130321 7.57 0.210321 8.11 0.320321L8.79 0.470321C9.11639 0.558937 9.45198 0.609275 9.79 0.620321C9.91214 0.633736 10.0346 0.597727 10.13 0.520321C10.2218 0.420318 10.2811 0.294774 10.3 0.160321L10.51 0.160321L10.75 5.43032L10.53 5.43032C10.116 4.01695 9.38396 2.71709 8.39 1.63032C7.64975 0.781535 6.58598 0.284141 5.46 0.260321C4.86167 0.229188 4.27433 0.42974 3.82 0.820321C3.39572 1.20057 3.16448 1.75115 3.19 2.32032C3.19065 2.62806 3.25893 2.93189 3.39 3.21032C3.51842 3.48201 3.70641 3.72127 3.94 3.91032C4.27618 4.16431 4.63818 4.38218 5.02 4.56032C5.52395 4.812 6.0414 5.03567 6.57 5.23032L8.57 5.99032C9.57109 6.3286 10.4788 6.89719 11.22 7.65032C11.7929 8.30042 12.0968 9.14423 12.07 10.0103C12.0405 10.6466 11.8697 11.2683 11.57 11.8303L11.57 11.8303Z" transform="translate(78.51172 4.96875)" id="Path" fill="#FFFFFF" stroke="none" />
    <path d="M10.92 0.02L0.55 0.02L0 4.33L0.21 4.33L0.48 3.78C0.545772 3.63234 0.626173 3.49163 0.72 3.36C0.806859 3.22299 0.903793 3.09263 1.01 2.97L1.38 2.53C1.81366 2.02155 2.3111 1.57116 2.86 1.19L3.42 0.83C3.57814 0.736861 3.74177 0.653375 3.91 0.58C4.08238 0.508055 4.25946 0.447916 4.44 0.4L5.11 0.24L5.11 11.44C5.11 11.67 5.11 11.86 5.11 12.01C5.11 12.16 5.11 12.3 5.11 12.41L5.05 12.73C4.98649 12.9623 4.87774 13.1798 4.73 13.37C4.55103 13.5635 4.32807 13.711 4.08 13.8C3.69472 13.9029 3.29865 13.9599 2.9 13.97L2.9 14.22L11.58 14.22L11.58 13.97C11.1749 13.9587 10.7723 13.9017 10.38 13.8C10.1345 13.7228 9.91833 13.5728 9.76 13.37C9.61132 13.1906 9.50838 12.9779 9.46 12.75C9.39388 12.4206 9.35707 12.0859 9.35 11.75C9.35 11.59 9.35 11.42 9.35 11.22L9.35 0.22C9.56234 0.255462 9.77263 0.302195 9.98 0.36C10.1499 0.402753 10.3169 0.456193 10.48 0.52C10.6372 0.588611 10.7908 0.665382 10.94 0.75C11.1297 0.852646 11.3134 0.966168 11.49 1.09C11.7457 1.24799 11.9867 1.42872 12.21 1.63C12.44 1.83 12.66 2.04 12.87 2.25L13.31 2.74C13.4311 2.88153 13.5414 3.03195 13.64 3.19C13.7439 3.34879 13.8342 3.51605 13.91 3.69C14 3.86 14.09 4.07 14.19 4.31L14.4 4.31L13.9 0L10.92 0.02Z" transform="translate(31.35156 5.139099)" id="Path" fill="#FFFFFF" stroke="none" />
  </g>
</svg>