<?xml version="1.0" encoding="utf-8"?>
<svg width="27px" height="27px" viewBox="0 0 27 27" version="1.1" xmlns:xlink="http://www.w3.org/1999/xlink" xmlns="http://www.w3.org/2000/svg">
  <desc>Created with Lunacy</desc>
  <path d="M3.984 0L22.417 0C24.617 0 26.401 1.783 26.401 3.984L26.401 22.417C26.401 24.617 24.617 26.401 22.417 26.401L3.984 26.401C1.783 26.401 0 24.617 0 22.417L0 3.984C0 1.783 1.783 0 3.984 0ZM22.4164 2C22.5884 2 22.7544 2.029 22.9154 2.071L13.2004 11.786L3.48438 2.071C3.64438 2.029 3.80938 2 3.98338 2L22.4164 2ZM24.401 22.4171C24.401 23.5111 23.511 24.4011 22.417 24.4011L3.984 24.4011C2.889 24.4011 2 23.5111 2 22.4171L2 3.98411C2 3.81111 2.029 3.64611 2.071 3.48511L12.494 13.9071C12.681 14.0951 12.935 14.2001 13.201 14.2001C13.466 14.2001 13.72 14.0951 13.908 13.9071L24.33 3.48511C24.372 3.64511 24.401 3.81111 24.401 3.98411L24.401 22.4171Z" id="Email-Icon" fill="#FFFFFF" fill-rule="evenodd" stroke="none" />
</svg>