<?xml version="1.0" encoding="utf-8"?>
<svg width="77px" height="50px" viewBox="0 0 77 50" version="1.1" xmlns:xlink="http://www.w3.org/1999/xlink" xmlns="http://www.w3.org/2000/svg">
  <desc>Created with Lunacy</desc>
  <defs>
    <path d="M0 0L76.7056 0L76.7056 49.4517L0 49.4517L0 0Z" id="path_1" />
    <clipPath id="mask_1">
      <use xlink:href="#path_1" />
    </clipPath>
  </defs>
  <g id="IATA-Logo">
    <path d="M0 0L76.7056 0L76.7056 49.4517L0 49.4517L0 0Z" id="Clip-2" fill="none" stroke="none" />
    <g clip-path="url(#mask_1)">
      <path d="M30.5781 2.80741C31.4639 3.54444 32.4621 4.2463 33.5306 4.65185C34.4547 2.88148 35.7108 1.36543 37.1522 0C34.751 0.331481 32.4973 1.25556 30.5781 2.80741ZM43.2084 4.65185C44.2423 4.2463 45.2398 3.54444 46.1256 2.80741C44.2423 1.25556 41.988 0.331481 39.5898 0C41.067 1.4037 42.2491 2.84259 43.2084 4.65185ZM37.9284 0.515381C36.4864 1.69686 35.1957 3.28699 34.3809 4.9839C35.4883 5.35427 36.7086 5.64995 37.9284 5.64995L37.9284 0.515381ZM42.3589 4.9839C41.5095 3.2481 40.2182 1.69686 38.8145 0.515381L38.8145 5.64995C39.9959 5.64995 41.2132 5.39254 42.3589 4.9839ZM31.6877 11.5581L26.3691 11.5581C26.5167 8.45747 27.734 5.61179 29.9519 3.39697C30.9475 4.24636 31.9451 4.91302 33.1654 5.42845C32.2765 7.42413 31.7969 9.34265 31.6877 11.5581ZM50.3733 11.5581L45.0196 11.5581C44.9455 9.38154 44.4652 7.38586 43.6152 5.42845C44.7615 4.91302 45.8307 4.21055 46.793 3.39697C49.0825 5.68586 50.264 8.53154 50.3733 11.5581ZM37.9298 6.53585L37.9298 11.5581L32.6113 11.5581C32.6471 9.56486 33.091 7.56918 33.941 5.72412C35.1971 6.20375 36.5619 6.50005 37.9298 6.53585ZM38.8145 11.5581L38.8145 6.53585C40.1441 6.50005 41.5095 6.20375 42.7651 5.72412C43.6145 7.60745 44.133 9.52659 44.133 11.5581L38.8145 11.5581ZM31.6877 12.4463L26.3691 12.4463C26.5167 15.5469 27.7722 18.4284 29.9519 20.608C30.9475 19.7938 31.9451 19.1302 33.1654 18.6123C32.2765 16.5809 31.7969 14.6617 31.6877 12.4463ZM37.9298 17.4685L37.9298 12.4463L32.6113 12.4463C32.6471 14.4395 33.091 16.471 33.941 18.2444C35.1971 17.8006 36.5619 17.5043 37.9298 17.4685ZM38.8145 12.4463L38.8145 17.4685C40.1058 17.5043 41.5478 17.8006 42.7651 18.2444C43.6145 16.4352 44.133 14.4395 44.133 12.4463L38.8145 12.4463ZM50.3733 12.4463L45.0196 12.4463C44.9455 14.6617 44.501 16.6191 43.6152 18.6123C44.7615 19.1302 45.7949 19.7938 46.793 20.608C48.9696 18.4284 50.264 15.4728 50.3733 12.4463ZM23.9667 16.0271L0 16.0271C0.920988 17.5431 2.21543 18.982 3.54444 18.982L20.5698 18.982C21.4198 19.0203 21.4198 19.7938 20.5698 19.9061L3.84136 19.9061C4.43025 21.1234 5.83395 22.8969 7.34691 22.8969L22.6012 22.8969C23.3389 23.0067 23.3389 23.6728 22.6012 23.7827L7.45988 23.7827C8.34568 25.3345 9.85864 26.8117 11.5586 26.8117L24.5204 26.8117C25.3346 26.8857 25.2957 27.5141 24.4846 27.6617L11.3006 27.6617C11.9284 28.9913 13.4772 30.6888 15.4728 30.6888L28.4735 30.6888C30.9105 30.6888 33.2741 28.7339 33.9401 26.6283C27.8815 24.079 24.8549 20.4215 23.9667 16.0271ZM76.7057 16.0271L52.7749 16.0271C51.8897 20.4215 48.8243 24.079 42.7656 26.6283C43.4675 28.7339 45.8304 30.6888 48.2706 30.6888L61.2712 30.6888C63.2286 30.6888 64.8156 28.9913 65.444 27.6617L52.2212 27.6617C51.4453 27.5141 51.3712 26.8857 52.1854 26.8117L65.1835 26.8117C66.8471 26.8117 68.3965 25.3345 69.2465 23.7827L54.1403 23.7827C53.3669 23.6728 53.3669 23.0067 54.1403 22.8969L69.3582 22.8969C70.9076 22.8969 72.3113 21.1234 72.865 19.9061L56.136 19.9061C55.3243 19.7938 55.3243 19.0203 56.136 18.982L73.1996 18.982C74.5286 18.982 75.8199 17.5431 76.7057 16.0271ZM37.9284 23.4895C36.4864 22.3432 35.1957 20.7562 34.3809 19.0204C35.4883 18.6123 36.7086 18.3926 37.9284 18.3926L37.9284 23.4895ZM42.3589 19.0204C41.5095 20.7562 40.2182 22.3432 38.8145 23.5253L38.8145 18.3926C39.9959 18.3926 41.2132 18.6506 42.3589 19.0204ZM30.5781 21.1976C31.4639 20.4957 32.4973 19.7581 33.5306 19.3525C34.4936 21.1618 35.675 22.6396 37.1522 23.9692C34.751 23.6729 32.4621 22.7495 30.5781 21.1976ZM43.2084 19.3525C44.2423 19.7939 45.2756 20.4599 46.1256 21.1976C44.2423 22.7495 41.988 23.6729 39.5898 23.9692C41.067 22.6396 42.2491 21.1618 43.2084 19.3525ZM41.4731 37.6334L39.7385 49.4519L44.7608 49.4519L46.496 37.6334L50.7071 37.6334L51.483 33.6821L37.7805 33.6821L37.041 37.6334L41.4731 37.6334ZM14.0692 33.7561L10.9297 49.4518L16.0266 49.4518L19.1655 33.7561L14.0692 33.7561ZM19.166 49.4518L26.8475 33.7561L31.8703 33.7561L35.0475 49.4518L30.3185 49.4518L30.0611 47.6036L25.0382 47.6036L24.2271 49.4518L19.166 49.4518ZM57.3917 33.7561L49.709 49.4518L54.7701 49.4518L55.5818 47.6036L60.6047 47.6036L60.8263 49.4518L65.5911 49.4518L62.4522 33.7561L57.3917 33.7561ZM29.5462 44.3174L26.2949 44.3174L28.6962 38.5569L29.5462 44.3174ZM56.8379 44.3174L60.0867 44.3174L59.2397 38.5569L56.8379 44.3174Z" id="Fill-1" fill="#FEFEFE" fill-rule="evenodd" stroke="none" />
    </g>
  </g>
</svg>