<?xml version="1.0" encoding="utf-8"?>
<svg width="81px" height="15px" viewBox="0 0 81 15" version="1.1" xmlns:xlink="http://www.w3.org/1999/xlink" xmlns="http://www.w3.org/2000/svg">
  <desc>Created with Lunacy</desc>
  <g id="Lufthansa-Logo">
    <path d="M23.0613 0C20.9016 0 19.5271 1.16068 19.5271 3.33892L19.5271 3.67814L18.1706 3.67814L18.1706 5.87431L19.5271 5.87431L19.5271 12.6771L22.2223 12.6771L22.2223 5.87431L24.2036 5.87431L24.2036 3.67814L22.2223 3.67814L22.2223 3.3211C22.2223 2.53548 22.6685 2.2498 23.5074 2.2498C23.8288 2.2498 24.2036 2.28538 24.2036 2.28538L24.2036 0.107143C24.2036 0.107143 23.7575 0 23.0613 0ZM8.26417 10.1595L2.89154 10.1595L2.89154 0.178538L0 0.178538L0 12.6771L8.26417 12.6771L8.26417 10.1595ZM40.4519 7.40979C40.4519 4.44583 39.256 3.41032 36.9713 3.41032C35.704 3.41032 34.9722 3.89233 34.5081 4.55301L34.5081 0.196429L31.795 0.196429L31.795 12.677L34.4903 12.677L34.4903 7.53476C34.4903 6.33853 35.0971 5.80298 36.1145 5.80298C37.239 5.80298 37.7566 6.33853 37.7566 7.53476L37.7566 12.677L40.4519 12.677L40.4519 7.40979ZM28.9513 3.67814L31.004 3.67814L31.004 5.87431L28.9513 5.87431L28.9513 9.37384C28.9513 10.338 29.4511 10.588 30.2364 10.588C30.5577 10.588 31.004 10.5345 31.004 10.5345L31.004 12.6949C31.004 12.6949 30.3793 12.8377 29.7189 12.8377C27.5592 12.8377 26.2562 11.8557 26.2562 9.67748L26.2562 5.87431L24.8996 5.87431L24.8996 3.67814L26.2562 3.67814L26.2562 1.05351L28.9513 1.05351L28.9513 3.67814ZM56.1263 3.41032C58.4647 3.41032 59.6606 4.44583 59.6606 7.40979L59.6606 12.6771L56.9652 12.6771L56.9652 7.53476C56.9652 6.33852 56.4476 5.80298 55.3231 5.80298C54.3057 5.80298 53.6989 6.33852 53.6989 7.53476L53.6989 12.6771L51.0037 12.6771L51.0037 3.67817L53.5383 3.67817L53.5383 4.71379C53.9131 4.01736 54.6805 3.41032 56.1263 3.41032ZM68.7732 9.92738C68.7732 8.05261 67.6309 7.33843 65.3462 7.03482L64.4001 6.90995C63.6327 6.80278 63.4184 6.58849 63.4184 6.1958C63.4184 5.80298 63.7575 5.49937 64.6501 5.49937C65.5603 5.49937 65.8458 5.82087 65.9351 6.33852L68.5589 6.33852C68.4341 4.39233 67.1132 3.41032 64.6501 3.41032C61.9905 3.41032 60.7232 4.67804 60.7232 6.3921C60.7232 8.17764 61.8655 8.94537 63.8467 9.21316L64.7928 9.33823C65.721 9.46323 66.0779 9.67748 66.0779 10.1417C66.0779 10.6415 65.6496 10.8916 64.5964 10.8916C63.5612 10.8916 63.0972 10.5702 63.0257 9.90942L60.3663 9.90942C60.4197 11.713 61.5086 12.9448 64.5964 12.9448C67.4345 12.9448 68.7732 11.82 68.7732 9.92738ZM41.7728 6.33859C41.8798 4.42811 43.165 3.41035 45.8245 3.41035C48.4484 3.41035 49.8941 4.28522 49.8941 6.76706L49.8941 12.6771L47.4309 12.6771L47.4309 11.5521C46.6812 12.4806 45.8245 12.9448 44.3786 12.9448C42.2546 12.9448 41.2551 11.695 41.2551 10.0703C41.2551 8.3204 42.3081 7.35615 44.6287 7.10628L46.3421 6.92771C47.0024 6.85635 47.2703 6.69573 47.2703 6.26706C47.2703 5.78512 46.8062 5.46362 45.8245 5.46362C44.7178 5.46362 44.4323 5.83859 44.3966 6.33859L41.7728 6.33859ZM74.0207 3.41035C71.3613 3.41035 70.0761 4.42811 69.9691 6.33859L72.5929 6.33859C72.6286 5.83859 72.9141 5.46376 74.0207 5.46376C75.0025 5.46376 75.4666 5.78512 75.4666 6.2672C75.4666 6.69573 75.1989 6.85635 74.5384 6.92771L72.8249 7.10628C70.5046 7.35628 69.4513 8.32044 69.4513 10.0703C69.4513 11.695 70.451 12.9448 72.575 12.9448C74.0207 12.9448 74.8776 12.4806 75.6272 11.5521L75.6272 12.6771L78.0904 12.6771L78.0904 6.76706C78.0904 4.28535 76.6446 3.41035 74.0207 3.41035ZM14.7613 3.67814L17.4565 3.67814L17.4565 12.6771L14.922 12.6771L14.922 11.6414C14.5471 12.3378 13.7796 12.9448 12.3695 12.9448C10.067 12.9448 8.87112 11.9092 8.87112 8.94534L8.87112 3.67814L11.5663 3.67814L11.5663 8.8203C11.5663 10.0166 12.084 10.5522 13.1728 10.5522C14.1545 10.5522 14.7613 10.0166 14.7613 8.8203L14.7613 3.67814ZM47.3238 9.17741C47.3238 10.1595 46.3956 10.8916 44.9677 10.8916C44.2715 10.8916 43.861 10.5702 43.861 9.96303C43.861 9.49884 44.1466 9.10608 45.0569 8.98118L46.6098 8.7668C46.8775 8.73102 47.1631 8.67755 47.3238 8.62397L47.3238 9.17741ZM75.5202 9.17758C75.5202 10.1595 74.5918 10.8916 73.164 10.8916C72.4679 10.8916 72.0573 10.5702 72.0573 9.96303C72.0573 9.49884 72.3429 9.10608 73.2532 8.98118L74.8062 8.7668C75.0738 8.73122 75.3595 8.67755 75.5202 8.62397L75.5202 9.17758Z" transform="translate(0.9106877 1.071022)" id="Fill-1" fill="#FFFFFF" fill-rule="evenodd" stroke="none" />
  </g>
</svg>