<?xml version="1.0" encoding="utf-8"?>
<svg width="20px" height="20px" viewBox="0 0 20 20" version="1.1" xmlns:xlink="http://www.w3.org/1999/xlink" xmlns="http://www.w3.org/2000/svg">
  <desc>Created with Lunacy</desc>
  <path d="M9.77852 0C4.37778 0 0 4.37852 0 9.77852C0 15.1793 4.37778 19.557 9.77852 19.557C15.1785 19.557 19.557 15.1793 19.557 9.77852C19.557 4.37852 15.1785 0 9.77852 0ZM9.77848 1.48151C14.3533 1.48151 18.0755 5.20373 18.0755 9.77854C18.0755 14.3534 14.3533 18.0756 9.77848 18.0756C5.20367 18.0756 1.48145 14.3534 1.48145 9.77854C1.48145 5.20373 5.20367 1.48151 9.77848 1.48151ZM14.6679 6.81557C14.6679 7.22446 14.3361 7.55631 13.9264 7.55631L5.62941 7.55631C5.22052 7.55631 4.88867 7.22446 4.88867 6.81557C4.88867 6.40668 5.22052 6.07483 5.62941 6.07483L13.9264 6.07483C14.3361 6.07483 14.6679 6.40668 14.6679 6.81557ZM13.9264 10.5193C14.3361 10.5193 14.6679 10.1874 14.6679 9.77852C14.6679 9.36963 14.3361 9.03778 13.9264 9.03778L5.62941 9.03778C5.22052 9.03778 4.88867 9.36963 4.88867 9.77852C4.88867 10.1874 5.22052 10.5193 5.62941 10.5193L13.9264 10.5193ZM14.6679 12.7415C14.6679 13.1504 14.3361 13.4822 13.9264 13.4822L5.62941 13.4822C5.22052 13.4822 4.88867 13.1504 4.88867 12.7415C4.88867 12.3326 5.22052 12.0007 5.62941 12.0007L13.9264 12.0007C14.3361 12.0007 14.6679 12.3326 14.6679 12.7415Z" id="Menu-Icon" fill="#020303" fill-rule="evenodd" stroke="none" />
</svg>