<?xml version="1.0" encoding="utf-8"?>
<svg width="20px" height="20px" viewBox="0 0 20 20" version="1.1" xmlns:xlink="http://www.w3.org/1999/xlink" xmlns="http://www.w3.org/2000/svg">
  <desc>Created with Lunacy</desc>
  <defs>
    <path d="M0 0L19.5563 0L19.5563 19.5569L0 19.5569L0 0Z" id="path_1" />
    <clipPath id="mask_1">
      <use xlink:href="#path_1" />
    </clipPath>
  </defs>
  <g id="Group-3">
    <path d="M0 0L19.5563 0L19.5563 19.5569L0 19.5569L0 0Z" id="Clip-2" fill="none" stroke="none" />
    <g clip-path="url(#mask_1)">
      <path d="M2.95111 0L16.6052 0C18.2348 0 19.5563 1.32148 19.5563 2.95111L19.5563 16.6052C19.5563 18.2356 18.2348 19.557 16.6052 19.557L2.95111 19.557C1.32074 19.557 0 18.2356 0 16.6052L0 2.95111C0 1.32148 1.32074 0 2.95111 0ZM18.0738 16.6051C18.0738 17.4163 17.4145 18.0755 16.6042 18.0755L2.9501 18.0755C2.13973 18.0755 1.48047 17.4163 1.48047 16.6051L1.48047 2.95108C1.48047 2.1407 2.13973 1.48145 2.9501 1.48145L16.6042 1.48145C17.4145 1.48145 18.0738 2.1407 18.0738 2.95108L18.0738 16.6051ZM14.8026 9.77862C14.8026 10.1875 14.4715 10.5194 14.0619 10.5194L10.5167 10.5194L10.5167 14.0645C10.5167 14.4734 10.1856 14.8053 9.77593 14.8053C9.36704 14.8053 9.03518 14.4734 9.03518 14.0645L9.03518 10.5194L5.49074 10.5194C5.08111 10.5194 4.75 10.1875 4.75 9.77862C4.75 9.36973 5.08111 9.03788 5.49074 9.03788L9.03518 9.03788L9.03518 5.49269C9.03518 5.08381 9.36704 4.75195 9.77593 4.75195C10.1856 4.75195 10.5167 5.08381 10.5167 5.49269L10.5167 9.03788L14.0619 9.03788C14.4715 9.03788 14.8026 9.36973 14.8026 9.77862Z" id="Fill-1" fill="#020303" fill-rule="evenodd" stroke="none" />
    </g>
  </g>
</svg>