<?xml version="1.0" encoding="utf-8"?>
<svg width="50px" height="15px" viewBox="0 0 50 15" version="1.1" xmlns:xlink="http://www.w3.org/1999/xlink" xmlns="http://www.w3.org/2000/svg">
  <desc>Created with Lunacy</desc>
  <defs>
    <path d="M0 14.6977L48.9456 14.6977L48.9456 0L0 0L0 14.6977Z" transform="translate(0 0.01384615)" id="path_1" />
    <clipPath id="mask_1">
      <use xlink:href="#path_1" />
    </clipPath>
  </defs>
  <g id="Turkish-Airlines-Logo">
    <path d="M2.06452 1.00904L2.99913 1.00904L2.99913 0L0 0L0 1.00904L0.934327 1.00904L0.934327 4.5825L2.06452 4.5825L2.06452 1.00904Z" transform="translate(0.307875 2.141221)" id="Fill-1" fill="#FEFEFE" stroke="none" />
    <g id="Group-21" transform="translate(0 0.2745289)">
      <path d="M2.66452 0L2.66452 2.41269C2.66452 3.00808 2.62414 3.65827 1.8975 3.65827C1.17058 3.65827 1.13048 3.00808 1.13048 2.41269L1.13048 0L0 0L0 2.57625C0 3.16644 0.0230769 3.74971 0.455481 4.19337C0.818942 4.5701 1.3901 4.70337 1.8975 4.70337C2.40519 4.70337 2.97606 4.5701 3.33952 4.19337C3.77192 3.74971 3.795 3.16644 3.795 2.57625L3.795 0L2.66452 0Z" transform="translate(4.45099 1.866837)" id="Fill-2" fill="#FEFEFE" stroke="none" />
      <path d="M3.20077 1.40971C3.20077 2.04173 2.86673 2.58865 2.24913 2.70404L3.61615 4.5825L2.20875 4.5825L1.14202 2.81942L1.13048 2.81942L1.13048 4.5825L0 4.5825L0 0L1.68981 0C2.54913 0 3.20077 0.43125 3.20077 1.40971ZM1.23981 0.91125L1.13048 0.91125L1.13048 2.05385L1.23981 2.05385C1.60933 2.05385 2.02442 1.98087 2.02442 1.4824C2.02442 0.984231 1.60933 0.91125 1.23981 0.91125Z" transform="translate(9.729403 1.866894)" id="Fill-4" fill="#FEFEFE" fill-rule="evenodd" stroke="none" />
      <path d="M1.14173 1.89L1.13019 1.89L1.13019 0L0 0L0 4.5825L1.13019 4.5825L1.13019 2.59471L1.14173 2.59471L2.60077 4.5825L4.06558 4.5825L2.17962 2.16952L3.9101 0L2.50846 0L1.14173 1.89Z" transform="translate(14.41523 1.86675)" id="Fill-6" fill="#FEFEFE" stroke="none" />
      <path d="M0 14.6977L48.9456 14.6977L48.9456 0L0 0L0 14.6977Z" transform="translate(0 0.01384615)" id="Clip-9" fill="none" stroke="none" />
      <g clip-path="url(#mask_1)">
        <path d="M0 4.5825L1.13048 4.5825L1.13048 0L0 0L0 4.5825Z" transform="translate(19.55452 1.866923)" id="Fill-8" fill="#FEFEFE" stroke="none" />
        <path d="M3.03346 0.377019C2.64721 0.145962 2.11067 0 1.67221 0C0.801058 0 0.172788 0.607789 0.172788 1.5375C0.172788 2.4251 0.639808 2.61952 1.34942 2.83212C1.59144 2.9051 2.03596 3.02077 2.03596 3.35539C2.03596 3.67702 1.75298 3.81692 1.48788 3.81692C1.10106 3.81692 0.767019 3.60404 0.484327 3.34269L0 4.30298C0.443654 4.63125 0.980481 4.82539 1.52827 4.82539C1.96673 4.82539 2.42221 4.69789 2.76288 4.39442C3.10817 4.08462 3.21231 3.61615 3.21231 3.16067C3.21231 2.41933 2.745 2.09683 2.13952 1.90817L1.85135 1.81731C1.65548 1.75067 1.34942 1.64712 1.34942 1.38C1.34942 1.12442 1.62606 0.996635 1.83375 0.996635C2.11067 0.996635 2.37606 1.11837 2.58346 1.30067L3.03346 0.377019Z" transform="translate(21.9754 1.744904)" id="Fill-10" fill="#FEFEFE" stroke="none" />
        <path d="M1.13019 1.76798L1.13019 0L0 0L0 4.58221L1.13019 4.58221L1.13019 2.70404L2.7626 2.70404L2.7626 4.58221L3.89308 4.58221L3.89308 0L2.7626 0L2.7626 1.76798L1.13019 1.76798Z" transform="translate(26.48582 1.866952)" id="Fill-11" fill="#FEFEFE" stroke="none" />
        <path d="M3.33894 4.5825L3.05625 3.78635L1.49913 3.78635L1.19942 4.5825L0 4.5825L1.67221 0L2.90683 0L4.54442 4.5825L3.33894 4.5825ZM1.81067 2.87481L2.75077 2.87481L2.28952 1.41606L2.27769 1.41606L1.81067 2.87481Z" transform="translate(8.653846E-05 8.334635)" id="Fill-12" fill="#FEFEFE" fill-rule="evenodd" stroke="none" />
        <path d="M0 4.5825L1.13019 4.5825L1.13019 0L0 0L0 4.5825Z" transform="translate(5.373173 8.334807)" id="Fill-13" fill="#FEFEFE" stroke="none" />
        <path d="M3.20048 1.41029C3.20048 2.04202 2.86587 2.58894 2.24885 2.70462L3.61615 4.5825L2.20875 4.5825L1.14173 2.82L1.13019 2.82L1.13019 4.5825L0 4.5825L0 0L1.68923 0C2.54856 0 3.20048 0.431827 3.20048 1.41029ZM1.23981 0.911827L1.13019 0.911827L1.13019 2.05442L1.23981 2.05442C1.60904 2.05442 2.02413 1.98173 2.02413 1.48298C2.02413 0.984808 1.60904 0.911827 1.23981 0.911827Z" transform="translate(7.857664 8.334722)" id="Fill-14" fill="#FEFEFE" fill-rule="evenodd" stroke="none" />
        <path d="M1.13019 0L0 0L0 4.5825L2.48567 4.5825L2.48567 3.57346L1.13019 3.57346L1.13019 0Z" transform="translate(12.43725 8.334692)" id="Fill-15" fill="#FEFEFE" stroke="none" />
        <path d="M0 4.5825L1.13048 4.5825L1.13048 0L0 0L0 4.5825Z" transform="translate(15.94154 8.334807)" id="Fill-16" fill="#FEFEFE" stroke="none" />
        <path d="M0 4.5825L1.13019 4.5825L1.13019 1.7749L1.14173 1.7749L3.21231 4.5825L4.34279 4.5825L4.34279 0L3.21231 0L3.21231 2.80183L3.20077 2.80183L1.13019 0L0 0L0 4.5825Z" transform="translate(18.4789 8.334606)" id="Fill-17" fill="#FEFEFE" stroke="none" />
        <path d="M2.47413 1.00875L2.47413 0L0 0L0 4.5825L2.47413 4.5825L2.47413 3.57346L1.13019 3.57346L1.13019 2.78337L2.4049 2.78337L2.4049 1.77462L1.13019 1.77462L1.13019 1.00875L2.47413 1.00875Z" transform="translate(24.28128 8.334692)" id="Fill-18" fill="#FEFEFE" stroke="none" />
        <path d="M3.03346 0.377019C2.64721 0.145962 2.11096 0 1.6725 0C0.801923 0 0.173077 0.608365 0.173077 1.53779C0.173077 2.42567 0.640385 2.61981 1.34942 2.8324C1.59202 2.90538 2.03567 3.02077 2.03567 3.3551C2.03567 3.67673 1.75356 3.8175 1.48817 3.8175C1.10163 3.8175 0.767019 3.60433 0.484616 3.34298L0 4.30327C0.444231 4.63154 0.981058 4.82625 1.52827 4.82625C1.96702 4.82625 2.42221 4.69817 2.76289 4.39471C3.10846 4.08433 3.2126 3.61615 3.2126 3.16067C3.2126 2.41933 2.745 2.09712 2.1401 1.90875L1.85106 1.81731C1.65548 1.75096 1.34942 1.64712 1.34942 1.38029C1.34942 1.12471 1.62663 0.997212 1.83433 0.997212C2.11096 0.997212 2.37635 1.11865 2.58375 1.30125L3.03346 0.377019Z" transform="translate(27.85647 8.212875)" id="Fill-19" fill="#FEFEFE" stroke="none" />
        <path d="M0 7.34913C0 3.29683 3.13529 0 6.98942 0C10.8433 0 13.9786 3.29683 13.9786 7.34913C13.9786 11.4012 10.8433 14.6977 6.98942 14.6977C3.13529 14.6977 0 11.4012 0 7.34913ZM13.3474 7.34913C13.3474 7.71952 13.3174 8.08269 13.2626 8.43692L8.10029 8.25577C8.69683 7.61135 9.105 6.51721 9.00433 5.80702C8.69683 3.6274 6.90029 2.55087 5.7776 1.90644C5.23356 1.59404 4.72096 1.37163 4.35087 1.23952C5.1551 0.850096 6.04817 0.631154 6.98942 0.631154C10.4951 0.631154 13.3474 3.645 13.3474 7.34913ZM5.72683 5.30337C5.72683 3.74827 5.0925 2.35067 4.08231 1.37769C2.03481 2.4949 0.630865 4.75125 0.630865 7.34913C0.630865 8.5125 0.912692 9.6075 1.40712 10.5626C3.84923 10.1902 5.72683 7.98 5.72683 5.30337ZM1.54587 10.8167C2.66077 12.7627 4.68375 14.0665 6.98942 14.0665C10.0592 14.0665 12.6277 11.7557 13.2193 8.69423C11.7796 8.96654 4.71173 10.2992 1.54587 10.8167Z" transform="translate(34.96685 0.01399038)" id="Fill-20" fill="#FEFEFE" fill-rule="evenodd" stroke="none" />
      </g>
    </g>
  </g>
</svg>